<svg xmlns="http://www.w3.org/2000/svg" fill="none" viewBox="0 0 78 77" height="77" width="78">
<g clip-path="url(#clip0_283_2833)">
<path fill="#8A99A0" d="M59.8065 17.2441H18.0582V59.7249H59.8065V17.2441Z"></path>
<path fill="#0D212C" d="M25.499 44.3844C25.2038 44.3844 24.9529 44.2844 24.7462 44.0842C24.5396 43.8788 24.4363 43.635 24.4363 43.3528C24.4363 43.0653 24.5396 42.819 24.7462 42.6136C24.9529 42.4083 25.2038 42.3057 25.499 42.3057C25.7991 42.3057 26.0525 42.4083 26.2591 42.6136C26.4706 42.819 26.5764 43.0653 26.5764 43.3528C26.5764 43.635 26.4706 43.8788 26.2591 44.0842C26.0525 44.2844 25.7991 44.3844 25.499 44.3844Z"></path>
<path fill="#0D212C" d="M37.2996 44.2151H35.3808L30.3257 36.1001C30.1978 35.8948 30.0919 35.6817 30.0083 35.461H29.964C30.0034 35.6972 30.0231 36.2027 30.0231 36.9777V44.2151H28.3257V33.1743H30.3699L35.2554 41.0969C35.462 41.4255 35.5948 41.6513 35.6539 41.7744H35.6834C35.6342 41.4819 35.6096 40.9866 35.6096 40.2884V33.1743H37.2996V44.2151Z"></path>
<path fill="#0D212C" d="M45.5651 44.2151H39.6244V33.1743H45.329V34.7296H41.3808V37.8555H45.0191V39.4031H41.3808V42.6675H45.5651V44.2151Z"></path>
<path fill="#0D212C" d="M54.0081 34.7296H50.9676V44.2151H49.2112V34.7296H46.1781V33.1743H54.0081V34.7296Z"></path>
</g>
<defs>
<clipPath id="clip0_283_2833">
<rect transform="translate(18.0582 17.2441)" fill="white" height="42.4807" width="41.7483"></rect>
</clipPath>
</defs>
</svg>
