<svg xmlns="http://www.w3.org/2000/svg" fill="none" viewBox="0 0 95 96" height="96" width="95">
<path fill="#8A99A0" d="M47.0071 22.9561C47.4658 22.9561 47.9819 23.0148 48.4407 23.2471L65.9358 31.7295C66.7961 32.1943 67.4849 32.9494 67.7717 33.8789L72.1301 52.8779C72.2448 53.8656 72.0161 54.8536 71.4426 55.667L59.3391 70.8311C58.7081 71.7026 57.7329 72.168 56.7004 72.0518H37.428C36.4529 71.9936 35.4776 71.5282 34.7893 70.8311L22.6868 55.667C22.1132 54.8536 21.8838 53.8656 22.0559 52.8779L26.3577 33.7627C26.5871 32.7752 27.2181 32.02 28.0784 31.6133L45.5735 23.0723C46.0322 22.9562 46.5483 22.9561 47.0071 22.9561ZM47.1223 29.1729C46.7781 29.1148 46.4335 29.2896 46.1467 29.5801C45.9175 29.8124 45.803 30.1032 45.803 30.3936V30.6836C45.803 30.9159 45.8599 31.1485 45.9172 31.3809C45.9746 31.497 45.9748 31.6133 45.9748 31.7295V31.7881C46.0895 32.4269 46.0901 33.0658 46.0901 33.7627C46.0327 33.9369 45.9749 34.1113 45.803 34.2275V34.3438L45.7453 34.8086C45.1144 34.8667 44.4834 34.9834 43.7952 35.0996C41.0995 35.6806 38.6332 37.1328 36.7405 39.166L36.3957 38.9336H36.3381C36.281 38.9339 36.2237 38.992 36.1096 38.9922C35.9949 38.9922 35.8796 38.9341 35.7649 38.876C35.2488 38.4694 34.7327 38.0047 34.3313 37.54C34.274 37.4241 34.1593 37.3656 34.1018 37.3076C33.9297 37.1333 33.8149 36.9585 33.6428 36.7842C33.5855 36.7261 33.5283 36.726 33.4709 36.668C33.4225 36.619 33.4145 36.6115 33.4133 36.6104C33.184 36.4361 32.8973 36.3194 32.6106 36.3193C32.2664 36.3193 31.9789 36.4361 31.8069 36.7266C31.4631 37.2493 31.5779 37.9459 32.0364 38.3525C32.0937 38.3525 32.094 38.4111 32.094 38.4111C32.0955 38.4127 32.2088 38.5271 32.2659 38.5273C32.4379 38.6435 32.6673 38.7598 32.8967 38.876C33.0114 38.9341 33.1267 38.9917 33.2414 39.0498C33.8149 39.3983 34.3881 39.7473 34.8469 40.2119C34.9513 40.3177 35.0539 40.5197 35.0286 40.6865L35.0198 40.6768V40.7354C35.0249 40.7197 35.0261 40.703 35.0286 40.6865L35.3635 41.0254C35.3062 41.1416 35.249 41.2002 35.1916 41.3164C33.4135 44.1633 32.6676 47.533 33.1838 50.8447L32.7248 50.9609C32.7248 51.0189 32.6672 51.0186 32.6672 51.0186C32.6099 51.1929 32.4379 51.3096 32.2659 51.4258C31.635 51.6 31.0039 51.7163 30.3157 51.7744C30.2011 51.7744 30.0865 51.7741 29.9719 51.832C29.7425 51.832 29.5128 51.8906 29.2834 51.8906C29.2261 51.8906 29.1687 51.9482 29.0539 51.9482C28.9966 51.9482 28.9969 51.9489 28.9397 52.0068C28.3088 52.123 27.9071 52.7037 28.0217 53.3428C28.1364 53.8655 28.6521 54.2141 29.1682 54.1562C29.2828 54.1562 29.3408 54.1566 29.4553 54.0986C29.5127 54.0986 29.5129 54.0981 29.5129 54.04C29.5132 53.9821 29.6851 54.04 29.7424 54.04C29.9718 53.9819 30.2012 53.8657 30.3733 53.8076C30.4878 53.7496 30.6025 53.6915 30.717 53.6914H30.7746C31.4055 53.459 31.9791 53.2851 32.6672 53.1689H32.7248C32.8969 53.1689 33.0691 53.2266 33.1838 53.3428C33.2412 53.3428 33.2414 53.4014 33.2414 53.4014L33.7571 53.3428C34.6175 56.0154 36.2242 58.3976 38.4612 60.1406C38.9773 60.5473 39.4365 60.896 40.01 61.1865L39.7229 61.5928C39.7229 61.6509 39.7805 61.6514 39.7805 61.6514C39.8951 61.8256 39.8945 62.0582 39.8371 62.2324C39.6078 62.8132 39.2642 63.3942 38.9202 63.917V63.9756C38.8628 64.0917 38.8052 64.1496 38.6907 64.2656C38.5759 64.3818 38.4604 64.6143 38.2883 64.8467C38.2311 64.9047 38.2314 64.9634 38.1741 65.0215C38.174 65.0261 38.1713 65.0791 38.1164 65.0791C37.8296 65.6601 38.0592 66.3579 38.5754 66.6484C38.69 66.7065 38.8621 66.7645 38.9768 66.7646C39.4355 66.7646 39.8372 66.4739 40.0666 66.0674C40.0666 66.0674 40.0669 66.0088 40.1243 66.0088C40.1243 65.9509 40.1813 65.8929 40.2385 65.835C40.2959 65.6026 40.4106 65.4277 40.468 65.1953L40.5832 64.8467C40.7553 64.2078 41.0416 63.6267 41.3284 63.0459C41.443 62.8717 41.6154 62.7554 41.7873 62.6973C41.8447 62.6973 41.845 62.6968 41.845 62.6387L42.0744 62.1738C43.6805 62.8129 45.3439 63.1035 47.0647 63.1035C48.0972 63.1035 49.1299 62.9878 50.1623 62.6973C50.7932 62.5811 51.4238 62.3481 51.9973 62.1738L52.2268 62.5811C52.284 62.5811 52.2844 62.5809 52.2844 62.6387C52.4564 62.6968 52.6287 62.8131 52.7434 62.9873C53.0302 63.5683 53.3164 64.15 53.4885 64.7891V64.8467L53.6037 65.1953C53.6611 65.4277 53.7185 65.6607 53.8332 65.835C53.8903 65.8929 53.8904 65.9508 53.9475 66.0088C53.9475 66.0088 53.9479 66.0673 54.0051 66.0674C54.2346 66.4739 54.6362 66.7646 55.095 66.7646C55.267 66.7646 55.3819 66.7065 55.5539 66.6484C55.7834 66.5322 56.0132 66.2993 56.0705 66.0088C56.1278 65.7184 56.1275 65.428 56.0129 65.1377C56.0129 65.0796 55.9553 65.0791 55.9553 65.0791C55.9552 65.0212 55.8983 64.9632 55.841 64.9053C55.7264 64.673 55.6116 64.4984 55.4397 64.3242C55.3823 64.208 55.3249 64.1493 55.2102 64.0332V63.917C54.8087 63.3941 54.5217 62.8134 54.2922 62.2324C54.2349 62.0581 54.2351 61.8257 54.3498 61.6514C54.3498 61.5955 54.4024 61.5929 54.4065 61.5928L54.2346 61.1289C57.1599 59.3278 59.3974 56.5383 60.4299 53.2266L60.8879 53.2852C60.9453 53.2852 60.9455 53.2266 60.9455 53.2266C61.0602 53.1104 61.2325 53.0527 61.4045 53.0527H61.4621C62.0929 53.1689 62.7237 53.3429 63.2971 53.5752H63.3547C63.4693 53.6332 63.5839 53.6912 63.6985 53.6914C63.9279 53.8076 64.1009 53.9243 64.3303 53.9824C64.3875 53.9827 64.4454 54.04 64.5598 54.04C64.6167 54.04 64.6169 54.0407 64.6741 54.0986C64.7887 54.1567 64.8465 54.1562 64.9612 54.1562C65.4773 54.1561 65.9356 53.8075 66.1077 53.3428C66.0502 52.7038 65.5916 52.2392 65.0754 52.123C65.0181 52.123 64.9612 52.1225 64.9612 52.0645C64.9608 52.0067 64.8461 52.0068 64.7317 52.0068C64.5023 51.9487 64.2726 51.9482 64.0432 51.9482C63.9285 51.9482 63.8132 51.9487 63.6985 51.8906H63.6418C63.011 51.8325 62.3225 51.7162 61.6916 51.542C61.5196 51.4839 61.3476 51.3091 61.2903 51.1348L60.8313 51.0186C61.0606 49.3338 60.9459 47.591 60.6018 45.9062C60.2003 44.2213 59.5117 42.5941 58.594 41.1416L58.9377 40.793V40.7354C58.9377 40.5611 58.9959 40.3281 59.1106 40.2119C59.6267 39.7473 60.1426 39.3983 60.716 39.0498C60.8308 38.9917 60.9461 38.9341 61.0608 38.876C61.2901 38.7598 61.4623 38.6435 61.6916 38.5273C61.749 38.4694 61.8062 38.4692 61.8635 38.4111C61.9208 38.3531 61.8635 38.353 61.8635 38.2949C62.3797 37.8882 62.4945 37.1909 62.093 36.668C61.921 36.4357 61.577 36.2619 61.2903 36.2617C61.0035 36.2617 60.716 36.3775 60.4866 36.5518L60.4299 36.6104C60.3726 36.6685 60.3144 36.7266 60.2571 36.7266C60.0851 36.9007 59.9127 37.0748 59.7981 37.249C59.7408 37.365 59.627 37.4235 59.5696 37.4814C59.1681 37.9462 58.6512 38.4112 58.135 38.7598C58.0204 38.8178 57.9058 38.8759 57.7912 38.876C57.7339 38.876 57.6191 38.8755 57.5618 38.8174H57.5041L57.0452 39.1084C56.5863 38.6436 56.0704 38.1786 55.6116 37.7139C53.4893 36.029 50.8504 34.9829 48.1545 34.6924L48.0969 34.2275V34.2861C47.925 34.17 47.8681 33.9955 47.8108 33.8213C47.8108 33.1822 47.8103 32.5429 47.925 31.8457V31.7881C47.925 31.672 47.9825 31.5555 47.9827 31.4395C48.04 31.2072 48.0397 30.9745 48.0969 30.7422V30.3936C48.1543 29.8126 47.6958 29.231 47.1223 29.1729ZM46.1467 54.6797C46.4335 54.3311 46.8927 54.2149 47.2942 54.4473C47.4662 54.5634 47.5811 54.6793 47.7532 54.8535L50.5061 59.9082C50.162 59.9663 49.8177 60.0244 49.4162 60.1406C48.6134 60.3149 47.8106 60.4316 46.9504 60.4316C45.7459 60.4316 44.4834 60.1992 43.3362 59.8506L46.1467 54.6797ZM42.0744 51.9482C42.5333 51.9482 42.9927 52.2393 43.05 52.7041C43.1073 52.8784 43.1071 53.111 42.9924 53.2852L40.8127 58.6299C38.8052 57.2936 37.1988 55.2605 36.3957 52.9365L42.0744 51.9482ZM57.5041 52.8779C57.2173 53.6913 56.8732 54.4468 56.4143 55.0859C55.5539 56.4804 54.3495 57.7008 52.9729 58.5723L50.7356 53.1104C50.621 52.6456 50.8507 52.1811 51.2522 52.0068C51.4241 51.9488 51.5959 51.8907 51.7678 51.8906L57.5041 52.8779ZM48.9006 48.6367L48.4983 50.3213L46.9504 51.0771L45.4016 50.3213L45.0002 48.6367L46.0901 47.2422H47.8108L48.9006 48.6367ZM41.6155 46.9521C42.0169 47.3007 42.0746 47.8814 41.7307 48.2881C41.616 48.4624 41.5011 48.521 41.2717 48.5791L35.7073 50.2051C35.5353 47.765 36.1095 45.2668 37.3713 43.1172L41.6155 46.9521ZM56.4719 43.1172C57.1028 44.1629 57.5611 45.325 57.8479 46.5449C58.1347 47.7649 58.192 48.9851 58.0774 50.2051L52.6282 48.6367C52.1122 48.5203 51.826 47.9974 51.9407 47.4746C51.998 47.3005 52.0555 47.1845 52.1702 47.0684L56.4719 43.1172ZM45.2297 43.582C45.2297 44.1049 44.7704 44.5117 44.2541 44.5117C44.0821 44.5117 43.9672 44.4536 43.7952 44.3955L39.0344 40.9678C40.5256 39.5154 42.361 38.4698 44.3684 38.0049L45.5159 37.7725L45.2297 43.582ZM48.2698 37.8301C50.7934 38.1207 53.0305 39.2249 54.7512 40.9678L50.0471 44.3369C49.6456 44.5693 49.0722 44.5112 48.7854 44.1045C48.6709 43.9884 48.6135 43.8724 48.6135 43.6982L48.2698 37.8301Z"></path>
</svg>
