<svg xmlns="http://www.w3.org/2000/svg" fill="none" viewBox="0 0 95 96" height="96" width="95">
<g clip-path="url(#clip0_885_5027)">
<path fill="#8A99A0" d="M67.5578 42.0541C67.2696 39.9463 66.117 38.1162 64.0373 36.4629L62.8345 35.6425L62.0327 36.8667C61.0054 38.4444 60.4917 40.6405 60.6546 42.7483C60.7298 43.4803 60.9678 44.8182 61.707 45.9667C60.9678 46.3832 59.502 46.9386 57.5475 46.9007H20.2127L20.1375 47.3425C19.7867 49.4502 19.7867 56.0512 23.9837 61.1124C27.1785 64.9619 31.9519 66.9182 38.191 66.9182C51.7218 66.9182 61.7195 60.5696 66.4177 49.0085C68.2594 49.0463 72.2309 49.0211 74.273 45.0454C74.3232 44.957 74.4484 44.7172 74.7992 43.9599L74.9997 43.5434L73.8596 42.7609C72.6068 41.9405 69.7628 41.625 67.5578 42.0541ZM50.068 27.9561H44.3926V33.2192H50.068V27.9561ZM50.068 34.2794H44.3926V39.5425H50.068V34.2794ZM43.3528 34.2794H37.6774V39.5425H43.3528V34.2794ZM36.65 34.2794H30.9746V39.5425H36.65V34.2794ZM29.9348 40.6027H24.2594V45.8658H29.9348V40.6027ZM36.65 40.6027H30.9746V45.8658H36.65V40.6027ZM43.3528 40.6027H37.6774V45.8658H43.3528V40.6027ZM50.068 40.6027H44.3926V45.8658H50.068V40.6027ZM56.7833 40.6027H51.1079V45.8658H56.7833V40.6027Z"></path>
</g>
<defs>
<clipPath id="clip0_885_5027">
<rect transform="translate(20 27.9561)" fill="white" height="39" width="55"></rect>
</clipPath>
</defs>
</svg>
