<svg xmlns="http://www.w3.org/2000/svg" fill="none" viewBox="0 0 95 96" height="96" width="95">
<g clip-path="url(#clip0_885_5048)">
<path fill="#8A99A0" d="M71.7595 61.3846C72.1429 60.718 72.3811 59.967 72.3811 59.2926V35.8815C72.3811 35.207 72.1432 34.4561 71.7597 33.7896L47.9525 47.5871L71.7595 61.3846Z"></path>
<path fill="#5C707A" d="M50.0681 74.6764L70.2655 62.9709C70.8474 62.6337 71.3762 62.0514 71.7595 61.3847L47.9525 47.5872L24.1455 61.3849C24.5289 62.0514 25.0578 62.6339 25.6395 62.9709L45.837 74.6764C47.0004 75.3508 48.9046 75.3508 50.0681 74.6764Z"></path>
<path fill="#B9C2C6" d="M71.7595 33.7895C71.376 33.1227 70.8471 32.5405 70.2654 32.2032L50.0679 20.4978C48.9044 19.8233 47.0003 19.8233 45.8368 20.4978L25.6393 32.2032C24.4757 32.8775 23.5238 34.5328 23.5238 35.8815V59.2927C23.5238 59.9671 23.7619 60.7181 24.1454 61.3847L47.9524 47.5872L71.7595 33.7895Z"></path>
<path fill="#0D212C" d="M47.9525 63.935C38.9725 63.935 31.6667 56.6013 31.6667 47.587C31.6667 38.5727 38.9725 31.239 47.9525 31.239C53.747 31.239 59.1511 34.3692 62.0557 39.4079L55.0077 43.5019C53.5539 40.9798 50.8504 39.413 47.9525 39.413C43.4624 39.413 39.8096 43.0798 39.8096 47.587C39.8096 52.0941 43.4624 55.761 47.9525 55.761C50.8507 55.761 53.5543 54.1941 55.0082 51.6716L62.0562 55.7655C59.1516 60.8047 53.7473 63.935 47.9525 63.935Z"></path>
<path fill="#0D212C" d="M64.238 46.6789H62.4284V44.8625H60.6191V46.6789H58.8094V48.4953H60.6191V50.3119H62.4284V48.4953H64.238V46.6789Z"></path>
<path fill="#0D212C" d="M71.0239 46.6789H69.2143V44.8625H67.405V46.6789H65.5953V48.4953H67.405V50.3119H69.2143V48.4953H71.0239V46.6789Z"></path>
</g>
<defs>
<clipPath id="clip0_885_5048">
<rect transform="translate(23.5238 19.9919)" fill="white" height="55.1905" width="48.8571"></rect>
</clipPath>
</defs>
</svg>
