<svg xmlns="http://www.w3.org/2000/svg" fill="none" viewBox="0 0 95 96" height="96" width="95">
<g clip-path="url(#clip0_885_5035)">
<path fill="#8A99A0" d="M62.8689 65.6028H62.6338V65.4712H63.267V65.6028H63.0332V66.2592H62.8689V65.6028ZM64.1318 65.637H64.1281L63.8949 66.2595H63.7883L63.5568 65.637H63.554V66.2595H63.399V65.4714H63.6271L63.8417 66.0295L64.0557 65.4714H64.283V66.2595H64.1316L64.1318 65.637Z"></path>
<path fill="#8A99A0" d="M41.8147 49.4884C41.8147 49.4884 40.1783 50.44 42.9792 50.762C46.3724 51.1491 48.1066 51.0936 51.8459 50.3859C51.8459 50.3859 52.829 51.0023 54.202 51.5362C45.8194 55.1289 35.2306 51.3282 41.8147 49.4884ZM40.7904 44.8003C40.7904 44.8003 38.955 46.1588 41.758 46.4488C45.3827 46.8227 48.2452 46.8533 53.1985 45.8995C53.1985 45.8995 53.8837 46.5941 54.961 46.9739C44.8258 49.9375 33.5372 47.2076 40.7904 44.8003Z"></path>
<path fill="#8A99A0" d="M49.4256 36.8477C51.4911 39.2257 48.883 41.3657 48.883 41.3657C48.883 41.3657 54.1274 38.6583 51.7189 35.268C49.4693 32.1062 47.7442 30.5354 57.0832 25.1191C57.0834 25.119 42.4241 28.7802 49.4256 36.8477Z"></path>
<path fill="#8A99A0" d="M60.5122 52.956C60.5122 52.956 61.7232 53.9539 59.1786 54.7257C54.3401 56.1914 39.0401 56.634 34.7899 54.7842C33.262 54.1194 36.1272 53.197 37.0284 53.0034C37.9684 52.7996 38.5055 52.8376 38.5055 52.8376C36.8064 51.6406 27.523 55.1878 33.79 56.2038C50.8811 58.9755 64.9456 54.9557 60.5122 52.956ZM42.6016 39.9427C42.6016 39.9427 34.8191 41.7912 39.8456 42.4625C41.968 42.7466 46.1988 42.6823 50.1397 42.3521C53.3605 42.0805 56.5946 41.5029 56.5946 41.5029C56.5946 41.5029 55.4589 41.9893 54.6373 42.5502C46.7343 44.6288 31.4671 43.6618 35.8623 41.5357C39.5793 39.7389 42.6016 39.9427 42.6016 39.9427ZM56.5625 47.7464C64.5963 43.5717 60.8819 39.5598 58.2891 40.1004C57.6537 40.2327 57.3703 40.3473 57.3703 40.3473C57.3703 40.3473 57.6063 39.9777 58.0567 39.8178C63.1858 38.0145 67.1305 45.1362 56.4009 47.9569C56.4009 47.9569 56.5255 47.8459 56.5625 47.7464Z"></path>
<path fill="#8A99A0" d="M51.7189 16.373C51.7189 16.373 56.1681 20.8237 47.499 27.6678C40.5472 33.1577 45.9138 36.288 47.4961 39.8646C43.4384 36.2033 40.4604 32.9804 42.4583 29.9808C45.3905 25.5776 53.5141 23.4428 51.7189 16.373Z"></path>
<path fill="#8A99A0" d="M43.3911 59.0588C51.1026 59.5525 62.9444 58.785 63.2247 55.1362C63.2247 55.1362 62.6857 56.5194 56.8516 57.618C50.2699 58.8565 42.1519 58.712 37.3372 57.9182C37.3374 57.918 38.3229 58.7338 43.3911 59.0588Z"></path>
<path fill="#8A99A0" d="M42.1272 73.0013C41.3997 73.6322 40.6314 73.9864 39.9419 73.9864C38.9578 73.9864 38.4261 73.3963 38.4261 72.4498C38.4261 71.426 38.9959 70.6774 41.2813 70.6774H42.1271L42.1272 73.0013ZM44.1345 75.266V68.2555C44.1345 66.4645 43.1131 65.2829 40.6503 65.2829C39.2126 65.2829 37.9532 65.6379 36.9296 66.0907L37.2251 67.3316C38.031 67.0358 39.0742 66.7604 40.0982 66.7604C41.5169 66.7604 42.1272 67.3316 42.1272 68.5125V69.3987H41.4191C37.9722 69.3987 36.4174 70.7367 36.4174 72.7449C36.4174 74.4782 37.442 75.4634 39.3713 75.4634C40.6114 75.4634 41.5372 74.9513 42.4026 74.202L42.5596 75.2663L44.1345 75.266ZM50.8335 75.266H48.33L45.317 65.4604H47.5034L49.3729 71.4849L49.7885 73.2968C50.7344 70.6771 51.4034 68.0194 51.738 65.4604H53.8648C53.2948 68.6892 52.2695 72.2334 50.8335 75.266ZM60.4376 73.0013C59.7088 73.6322 58.9392 73.9864 58.2496 73.9864C57.2672 73.9864 56.7341 73.3963 56.7341 72.4498C56.7341 71.426 57.305 70.6774 59.5904 70.6774H60.4376V73.0013ZM62.4447 75.266V68.2555C62.4447 66.4645 61.4208 65.2829 58.9608 65.2829C57.5221 65.2829 56.2623 65.6379 55.2391 66.0907L55.5342 67.3316C56.3404 67.0358 57.3856 66.7604 58.4088 66.7604C59.8264 66.7604 60.4376 67.3316 60.4376 68.5125V69.3987H59.7283C56.2805 69.3987 54.7262 70.7367 54.7262 72.7449C54.7262 74.4782 55.7501 75.4634 57.679 75.4634C58.9199 75.4634 59.8453 74.9513 60.7121 74.202L60.8697 75.2663L62.4447 75.266ZM34.2164 76.9311C33.6442 77.7666 32.7199 78.4276 31.7081 78.8015L30.717 77.6353C31.4872 77.2401 32.1477 76.6019 32.4546 76.0075C32.7201 75.4788 32.8299 74.7973 32.8299 73.1678V61.9731H34.9626V73.0144C34.9625 75.1929 34.7883 76.0729 34.2164 76.9311Z"></path>
</g>
<defs>
<clipPath id="clip0_885_5035">
<rect transform="translate(16.2859 16.373)" fill="white" height="62.4286" width="62.4286"></rect>
</clipPath>
</defs>
</svg>
