<svg xmlns="http://www.w3.org/2000/svg" fill="none" viewBox="0 0 95 96" height="96" width="95">
<g clip-path="url(#clip0_885_5044)">
<path fill="#8A99A0" d="M72.1148 23.9707H22.3529V73.7326H72.1148V23.9707Z"></path>
<path fill="#0D212C" d="M55.7804 62.8473C56.7828 64.4839 58.0868 65.6869 60.3933 65.6869C62.3308 65.6869 63.5685 64.7185 63.5685 63.3805C63.5685 61.777 62.2969 61.2091 60.1642 60.2763L58.9952 59.7747C55.6209 58.3371 53.3792 56.5362 53.3792 52.729C53.3792 49.222 56.0513 46.5522 60.2274 46.5522C63.2005 46.5522 65.3379 47.587 66.8781 50.2962L63.2368 52.6343C62.4351 51.1967 61.5702 50.6304 60.2274 50.6304C58.8578 50.6304 57.9897 51.4992 57.9897 52.6343C57.9897 54.0371 58.8585 54.605 60.8648 55.4738L62.0338 55.9746C66.0069 57.6784 68.2501 59.4153 68.2501 63.3204C68.2501 67.5304 64.9429 69.8369 60.5015 69.8369C56.1588 69.8369 53.3531 67.7674 51.9803 65.055L55.7804 62.8473ZM39.2618 63.2525C39.9964 64.5558 40.6646 65.6577 42.2712 65.6577C43.8075 65.6577 44.7767 65.0566 44.7767 62.7193V46.8192H49.4528V62.7825C49.4528 67.6244 46.614 69.8282 42.4703 69.8282C38.7263 69.8282 36.5581 67.8906 35.4554 65.5569L39.2618 63.2525Z"></path>
</g>
<defs>
<clipPath id="clip0_885_5044">
<rect transform="translate(22.3529 23.9707)" fill="white" height="49.7619" width="49.7619"></rect>
</clipPath>
</defs>
</svg>
