<svg xmlns="http://www.w3.org/2000/svg" fill="none" viewBox="0 0 85 45" height="45" width="85">
<g clip-path="url(#clip0_433_2350)">
<mask height="20" width="79" y="12" x="3" maskUnits="userSpaceOnUse" style="mask-type:luminance" id="mask0_433_2350">
<path fill="white" d="M81.6757 12.7336H3.71304V31.8421H81.6757V12.7336Z"></path>
</mask>
<g mask="url(#mask0_433_2350)">
<path fill="#8A99A0" d="M11.7194 13.1128H11.9596C13.6433 13.1128 15.3269 13.1128 17.0106 13.1128C17.031 13.1128 17.052 13.1154 17.0719 13.1124C17.2194 13.0899 17.2865 13.1604 17.3406 13.2902C17.6757 14.0947 18.0195 14.8958 18.3607 15.6979C19.7986 19.0777 21.2366 22.4574 22.6744 25.8373C23.448 27.6557 24.2215 29.4742 24.9946 31.2927C25.0228 31.3589 25.0481 31.4263 25.0752 31.4936C24.9328 31.5397 20.1349 31.5425 19.5553 31.4986C17.8498 27.3294 16.1404 23.151 14.4125 18.9274C14.366 19.0115 14.3353 19.0569 14.3145 19.106C13.8524 20.1965 13.391 21.2874 12.9301 22.3784C12.2415 24.0086 11.5532 25.6392 10.865 27.2697C10.8368 27.3365 10.8108 27.4041 10.7707 27.5037C10.8775 27.5095 10.9615 27.518 11.0457 27.518C12.2591 27.5188 13.4723 27.5185 14.6857 27.5186C14.7668 27.5186 14.8478 27.5186 14.9463 27.5186C15.4907 28.8472 16.0316 30.1671 16.5818 31.5099H3.71304C6.38452 25.3713 9.04709 19.2531 11.7194 13.1128Z"></path>
<path fill="#8A99A0" d="M58.4465 17.4969C58.7459 17.4564 59.0144 17.4161 59.2839 17.3844C59.9633 17.3045 60.6431 17.3119 61.3232 17.3828C61.9835 17.4516 62.6273 17.5877 63.246 17.8236C65.3144 18.6119 66.5523 20.0875 67.0312 22.1818C67.2493 23.1358 67.2547 24.1013 67.1674 25.0708C67.0951 25.8739 66.936 26.6586 66.6449 27.4139C65.8111 29.5773 64.2134 30.9146 61.936 31.5029C60.8533 31.7827 59.749 31.8449 58.6324 31.8004C57.073 31.738 55.5701 31.4162 54.1026 30.9157C53.8726 30.8372 53.838 30.7914 53.8339 30.5563C53.8328 30.4966 53.8336 30.437 53.8336 30.3773C53.8336 24.6873 53.835 18.9973 53.8312 13.3072C53.8308 12.7942 53.8988 12.8119 54.328 12.8129C55.5548 12.8159 56.7816 12.8108 58.0084 12.81C58.0967 12.81 58.187 12.8093 58.2728 12.8261C58.4573 12.8622 58.4971 12.9152 58.4958 13.0974C58.4921 13.555 58.4882 14.0125 58.4825 14.4701C58.4712 15.3852 58.4586 16.3001 58.4467 17.2152C58.4456 17.3005 58.4465 17.3858 58.4465 17.4969ZM58.5163 21.6107C58.5163 21.6943 58.5163 21.7597 58.5163 21.8253C58.5163 23.7416 58.5163 25.6578 58.5164 27.5742C58.5164 27.8048 58.5175 27.8093 58.7587 27.8554C59.1625 27.9325 59.5685 27.9408 59.9789 27.9032C61.229 27.7891 62.1699 27.0289 62.502 25.8481C62.7016 25.1388 62.7208 24.4203 62.5758 23.7012C62.4406 23.0304 62.1329 22.4504 61.5568 22.0309C61.1372 21.7254 60.6583 21.5698 60.1423 21.5047C59.6014 21.4365 59.0703 21.4788 58.5163 21.6107Z"></path>
<path fill="#8A99A0" d="M32.7868 17.5885C32.7917 17.4853 32.7989 17.4014 32.7989 17.3174C32.7996 15.8914 32.7993 14.4656 32.7995 13.0396C32.7995 12.7454 32.8105 12.7338 33.1065 12.7337C34.3675 12.7333 35.6283 12.7335 36.8894 12.7335C36.9098 12.7335 36.9303 12.7334 36.9507 12.7338C37.1572 12.7387 37.175 12.7554 37.1786 12.9485C37.1795 13.0015 37.1788 13.0546 37.1788 13.1077C37.1785 18.4465 37.1757 23.7853 37.1819 29.1243C37.1824 29.5668 37.2399 30.0096 37.2777 30.4517C37.2919 30.618 37.2866 30.6523 37.1308 30.7114C35.9735 31.1498 34.7947 31.514 33.5651 31.7106C32.7673 31.8382 31.9655 31.8705 31.161 31.8175C29.9043 31.7348 28.6971 31.4622 27.5767 30.8826C26.0166 30.0757 24.9467 28.8592 24.4149 27.2188C23.924 25.7038 23.8551 24.1656 24.3257 22.6351C24.9272 20.6787 26.2387 19.306 28.1139 18.4283C28.9994 18.0139 29.9391 17.7767 30.9136 17.6627C31.4495 17.6 31.9867 17.5827 32.5254 17.5884C32.6059 17.5892 32.6864 17.5885 32.7868 17.5885ZM32.5994 27.8553V21.5078C32.5561 21.4944 32.5249 21.4826 32.4926 21.4753C32.4396 21.4633 32.3862 21.4481 32.3325 21.4448C31.7109 21.4065 31.0937 21.4171 30.4893 21.5908C29.6342 21.8364 29.0657 22.3681 28.7921 23.1945C28.586 23.8169 28.5652 24.4573 28.6071 25.1027C28.6347 25.5272 28.696 25.9463 28.8394 26.3503C29.0986 27.0802 29.6042 27.5606 30.3727 27.7651C30.9164 27.9097 31.473 27.9436 32.0338 27.9131C32.2165 27.9031 32.3983 27.8763 32.5994 27.8553Z"></path>
<path fill="#8A99A0" d="M38.378 24.7999C38.3865 23.6097 38.5453 22.5395 38.986 21.5223C39.7751 19.7014 41.1583 18.5152 43.0989 17.9642C44.7308 17.5009 46.3839 17.4948 48.0217 17.9336C50.222 18.5233 51.6401 19.9149 52.3042 22.032C52.6502 23.1351 52.7287 24.2683 52.6508 25.4155C52.5984 26.1864 52.4631 26.9409 52.1959 27.6699C51.4395 29.7335 49.9582 31.0282 47.7883 31.5813C46.7152 31.8548 45.6223 31.8869 44.5223 31.796C43.7991 31.7362 43.0941 31.5947 42.4148 31.3449C40.773 30.741 39.6404 29.632 38.9884 28.0529C38.6399 27.2088 38.4665 26.3269 38.4104 25.4214C38.3957 25.1833 38.3855 24.945 38.378 24.7999ZM48.0586 24.5285C48.0402 24.3203 48.0219 23.9824 47.9773 23.6479C47.9245 23.252 47.8173 22.8688 47.6224 22.5132C47.3372 21.9927 46.9015 21.6614 46.3142 21.5138C45.9256 21.4162 45.531 21.4036 45.1372 21.4445C44.306 21.5308 43.6999 21.9413 43.347 22.6845C43.2647 22.8578 43.1992 23.0411 43.147 23.2255C42.9509 23.9189 42.9419 24.6275 43.002 25.3371C43.0402 25.7878 43.145 26.2261 43.3462 26.6388C43.6718 27.3068 44.1974 27.7266 44.9477 27.8693C45.2849 27.9334 45.6242 27.9421 45.9642 27.8934C46.6038 27.8015 47.1245 27.5119 47.4765 26.9791C47.6186 26.7642 47.73 26.5246 47.8198 26.2837C48.0147 25.7601 48.0493 25.21 48.0586 24.5285Z"></path>
<path fill="#8A99A0" d="M72.8394 25.9095C72.8649 26.1332 72.9541 26.2828 73.0476 26.4278C73.4619 27.0703 74.0547 27.5026 74.7745 27.7678C75.6124 28.0765 76.4787 28.1607 77.367 28.0304C78.2789 27.8967 79.1597 27.6398 80.0463 27.4048C80.204 27.3631 80.3607 27.3181 80.5191 27.2793C80.7472 27.2234 80.7995 27.2645 80.7976 27.499C80.7921 28.1621 80.7843 28.8252 80.778 29.4884C80.775 29.8133 80.7747 30.1383 80.7708 30.4632C80.7672 30.7533 80.6811 30.8699 80.4066 30.9677C79.6061 31.2531 78.7927 31.492 77.9498 31.6294C76.983 31.7871 76.0134 31.8169 75.0382 31.7121C73.9362 31.5935 72.8844 31.311 71.9106 30.7904C69.9016 29.7157 68.6871 28.0787 68.3084 25.8754C68.0581 24.4192 68.1912 22.9885 68.7674 21.6185C69.6245 19.5802 71.1845 18.3242 73.3835 17.8312C74.507 17.5793 75.6401 17.5612 76.7635 17.8506C78.2266 18.2277 79.3998 19.0315 80.3267 20.1842C80.9221 20.9246 81.3569 21.7459 81.5634 22.6684C81.6297 22.9644 81.6714 23.2712 81.6747 23.5735C81.681 24.1432 81.6566 24.7134 81.6328 25.2829C81.6262 25.4396 81.5814 25.596 81.5438 25.7502C81.5171 25.8594 81.4359 25.9142 81.3175 25.9124C81.2493 25.9114 81.1811 25.9133 81.113 25.9133C78.4481 25.9121 75.7831 25.9107 73.1181 25.9095C73.0321 25.9095 72.9466 25.9095 72.8394 25.9095ZM77.4604 23.1636C77.4404 23.0476 77.4319 22.9555 77.408 22.8673C77.1683 21.9804 76.337 21.279 75.4025 21.1594C74.8489 21.0885 74.3273 21.152 73.8609 21.4708C73.3468 21.8221 73.0412 22.3118 72.8883 22.8971C72.8674 22.9772 72.8668 23.0621 72.8546 23.1636H77.4604Z"></path>
</g>
</g>
<defs>
<clipPath id="clip0_433_2350">
<rect transform="translate(3.62596 12.7335)" fill="white" height="19.5331" width="78.1325"></rect>
</clipPath>
</defs>
</svg>
