<svg xmlns="http://www.w3.org/2000/svg" fill="none" viewBox="0 0 91 45" height="45" width="91">
<g clip-path="url(#clip0_433_2361)">
<path fill="#8A99A0" d="M5.98901 27.0724C6.35233 26.8933 6.43933 26.53 6.43933 26.1667V18.1276C6.43933 17.8564 6.34722 17.4061 5.98901 17.2219H9.78596C11.5002 17.2219 13.2196 17.9434 13.2196 19.934C13.2196 20.9267 12.3138 21.7403 11.3211 21.9194C12.7693 21.9194 14.0332 22.7331 14.0332 24.2682C14.0332 26.5249 11.7765 27.0673 10.1493 27.0673H5.98901V27.0724ZM9.05932 18.1276H8.42479V21.5612H8.8751C10.0521 21.5612 11.1318 21.1979 11.1318 19.847C11.1318 18.496 10.226 18.1327 9.0542 18.1327L9.05932 18.1276ZM9.33053 22.4619H8.42479V26.0746C8.8751 26.1667 9.33053 26.1667 9.78084 26.1667C10.7736 26.1667 11.7663 25.8034 11.7663 24.2682C11.7663 22.8252 10.5894 22.4619 9.32541 22.4619H9.33053ZM17.8199 18.1276H17.3696V21.5612H17.8199C18.9048 21.5612 19.7184 20.9267 19.7184 19.7549C19.7184 18.583 18.9048 18.1276 17.8199 18.1276ZM22.7887 27.1594C22.4254 27.1594 21.9751 27.1594 21.6169 26.9803C20.9823 26.8012 20.0817 25.3531 19.7184 24.7236C19.0839 23.8179 18.6336 22.467 17.3696 22.467V26.1718C17.3696 26.5351 17.4617 26.8933 17.8199 27.0775H14.8366C15.1999 26.8984 15.2869 26.5351 15.2869 26.1718V18.1327C15.2869 17.8615 15.1948 17.4112 14.8366 17.227H18.4493C19.9845 17.227 21.883 17.8615 21.883 19.7549C21.883 21.29 20.619 22.1037 19.1709 22.1037C21.1563 22.1037 22.4254 26.8933 24.6821 26.8933C24.0475 27.0724 23.4181 27.1645 22.7836 27.1645L22.7887 27.1594ZM24.7793 27.0724C25.0505 26.9803 25.3217 26.6221 25.3217 26.1667V18.1276C25.3217 17.6773 25.0505 17.4061 24.7793 17.2219H27.8496C27.5784 17.401 27.3072 17.6722 27.3072 18.1276V26.1667C27.3072 26.617 27.5784 26.9803 27.8496 27.0724H24.7793ZM31.3753 27.0724C31.6465 26.8933 31.8256 26.53 31.8256 26.1667V18.3988H29.6559C29.1135 18.3988 28.5711 18.4909 28.1208 18.67L28.8423 17.227H35.9808C36.5232 17.227 37.1526 17.227 37.695 17.1349C37.4238 17.8564 36.6102 18.3988 36.1599 18.3988H33.8111V26.1667C33.8111 26.53 33.9902 26.8882 34.3535 27.0724H31.3702H31.3753ZM38.0583 27.0724C38.3296 26.9803 38.6008 26.6221 38.6008 26.1667V18.1276C38.6008 17.6773 38.3296 17.4061 38.0583 17.2219H41.1287C40.8574 17.401 40.5862 17.6722 40.5862 18.1276V26.1667C40.5862 26.617 40.8574 26.9803 41.1287 27.0724H38.0583ZM47.0032 24.8106C47.0032 23.0043 42.5768 22.554 42.5768 19.5707C42.5768 17.7643 44.2911 17.1298 45.8313 17.1298C46.5529 17.1298 47.5456 17.2219 48.1801 17.4931L48.2722 19.3916C47.9089 18.5779 46.9162 17.9485 46.0156 17.9485C45.294 17.9485 44.5725 18.3118 44.5725 19.1255C44.5725 21.0239 49.091 21.5664 49.091 24.3654C49.091 26.3509 47.2846 27.2567 45.4783 27.2567C44.4855 27.2567 43.2216 27.0775 42.4079 26.5351C42.4079 26.1718 42.3158 25.8136 42.3158 25.5424C42.3158 25.0921 42.408 24.7288 42.4949 24.2785C42.9453 25.4554 43.938 26.356 45.294 26.356C46.1947 26.356 47.0083 25.9057 47.0083 24.8209L47.0032 24.8106ZM56.3983 27.0724C56.5774 26.9803 56.8486 26.6221 56.8486 26.1667V22.554C56.3062 22.4619 55.5847 22.4619 54.771 22.4619C53.8704 22.4619 53.1438 22.4619 52.6014 22.554V26.1667C52.6014 26.617 52.8726 26.9803 53.0517 27.0724H50.1605C50.3396 26.9803 50.6108 26.6221 50.6108 26.1667V18.1276C50.6108 17.6773 50.3396 17.4061 50.1605 17.2219H53.0517C52.8726 17.401 52.6014 17.6722 52.6014 18.1276V21.4691C53.1438 21.4691 53.8653 21.5612 54.771 21.5612C55.5847 21.5612 56.3062 21.4691 56.8486 21.4691V18.1276C56.8486 17.6773 56.5774 17.4061 56.3983 17.2219H59.2895C59.0183 17.401 58.8392 17.6722 58.8392 18.1276V26.1667C58.8392 26.617 59.0183 26.9803 59.2895 27.0724H56.3983Z" clip-rule="evenodd" fill-rule="evenodd"></path>
<path fill="#8A99A0" d="M9.78021 39.8091C9.87232 39.717 9.95931 39.63 9.95931 39.4458C9.95931 39.4458 9.8672 39.2667 9.8672 39.0824C9.8672 39.0824 9.05357 36.9128 8.96146 36.6415H5.34873C5.25662 36.9128 4.356 39.0824 4.356 39.0824C4.26389 39.3536 4.1769 39.4458 4.1769 39.5327C4.1769 39.7118 4.356 39.7118 4.44811 39.804H2.46265C2.73386 39.6249 3.00507 39.3536 3.18417 39.0824L6.34658 30.68C6.43869 30.68 6.43869 30.5879 6.43869 30.5879C6.43869 30.3167 6.25959 30.1376 6.07537 30.0455H8.60326L11.8578 39.0773C12.0369 39.4406 12.3081 39.6197 12.5793 39.7988H9.78021V39.8091ZM7.16021 31.857L5.71717 35.6539C6.16748 35.746 6.62291 35.746 7.07322 35.746C7.52353 35.746 8.06595 35.746 8.60837 35.6539L7.16533 31.857H7.16021ZM13.0347 39.8091C13.3059 39.717 13.5772 39.3588 13.5772 38.9033V30.8643C13.5772 30.4139 13.3059 30.1427 13.0347 30.0506H16.105C15.8338 30.1427 15.5626 30.4139 15.5626 30.8643V38.9033C15.5626 39.3536 15.8338 39.717 16.105 39.8091H13.0347ZM20.6235 30.8643H20.1732V34.2979H20.6235C21.7083 34.2979 22.522 33.7555 22.522 32.4915C22.522 31.3146 21.7083 30.8643 20.6235 30.8643ZM25.8635 39.9012C25.4132 39.9012 25.0499 39.9012 24.6917 39.8091C24.0571 39.5379 23.0644 38.0948 22.7062 37.4603C22.1638 36.5546 21.4422 35.2036 20.1783 35.2036V38.9084C20.1783 39.2718 20.2704 39.63 20.6286 39.8142H17.6453C18.0086 39.6351 18.0956 39.2718 18.0956 38.9084V30.8694C18.0956 30.5982 18.0035 30.1478 17.6453 30.0557H21.258C22.7932 30.0557 24.6917 30.5982 24.6917 32.4966C24.6917 34.0318 23.2486 34.8454 22.2508 34.8454C24.3283 34.9375 25.5923 39.6351 27.6698 39.6351C27.1274 39.8142 26.4929 39.9063 25.8635 39.9063V39.9012ZM38.0577 30.9564L35.0744 39.8091C34.8032 39.8091 34.532 39.717 34.4399 39.63C34.1687 39.3588 33.7184 38.1818 33.5341 37.7315L32.1781 34.2979L30.1926 39.8091H29.2869L25.9454 30.9564C25.8533 30.593 25.582 30.2348 25.2238 30.0506H28.115C28.0229 30.1427 27.9359 30.2297 27.9359 30.4139C27.9359 30.506 27.9359 30.6852 28.0281 30.7773L30.1977 36.6518L32.4544 30.0557L34.9823 36.3806L36.9678 30.5982C36.9678 30.506 37.0599 30.4191 37.0599 30.3269C37.0599 30.1478 36.9678 30.1478 36.8808 30.0557H38.7792C38.4159 30.2348 38.1447 30.5982 38.0577 30.9615V30.9564ZM41.5834 31.857L40.1404 35.6539C40.5907 35.746 41.0461 35.746 41.4965 35.746C41.9468 35.746 42.4892 35.746 42.9395 35.6539L41.5834 31.857ZM44.1113 39.8091C44.2904 39.717 44.2904 39.63 44.2904 39.4458C44.2904 39.4458 44.2904 39.2667 44.1983 39.0824C44.1983 39.0824 43.4768 36.9128 43.2926 36.6415H39.7669C39.6747 36.9128 38.7741 39.0824 38.7741 39.0824C38.682 39.3536 38.595 39.4458 38.595 39.5327C38.595 39.7118 38.7741 39.7118 38.8662 39.804H36.8808C37.152 39.6249 37.4232 39.3536 37.5153 39.0824L40.7698 30.68L40.8619 30.5879C40.8619 30.3167 40.6828 30.1376 40.4986 30.0455H43.0265L46.281 39.0773C46.4601 39.4406 46.7313 39.6197 47.0025 39.7988H44.1113V39.8091ZM52.964 31.0434L50.7074 35.1115V38.9033C50.7074 39.2667 50.7995 39.6249 51.0707 39.8091H48.2716C48.5428 39.63 48.6349 39.2667 48.6349 38.9033V35.1115L46.6495 31.857C46.4704 31.5858 45.6567 30.1427 44.5719 30.1427C44.8431 30.0506 45.7488 29.8715 46.2861 29.8715C47.2789 29.8715 47.7343 29.9636 48.2716 30.8643L50.1701 33.8476C50.3492 33.5764 51.7973 30.9564 51.7973 30.9564C51.9764 30.6852 52.0685 30.4139 52.0685 30.3218C52.0685 30.2297 52.0685 30.1427 51.8894 30.0506H53.967C53.6037 30.2297 53.2455 30.6852 52.9743 31.0434H52.964ZM58.3831 37.5524C58.3831 35.746 54.0489 35.2957 54.0489 32.3124C54.0489 30.506 55.7631 29.8715 57.3034 29.8715C58.0249 29.8715 59.0177 29.9636 59.6522 30.2348L59.7443 32.1333C59.381 31.3197 58.3883 30.6903 57.4876 30.6903C56.7661 30.6903 56.0446 31.0536 56.0446 31.8621C56.0446 33.7606 60.4709 34.303 60.4709 37.1021C60.4709 39.1797 58.7567 39.9933 56.9452 39.9933C55.9525 39.9933 54.6885 39.8142 53.8749 39.2718C53.8749 38.9084 53.7828 38.6372 53.7828 38.279C53.7828 37.8287 53.8749 37.4654 53.8749 37.1021C54.4173 38.1869 55.4101 39.0876 56.674 39.0876C57.6667 39.0876 58.3883 38.6372 58.3883 37.5524H58.3831Z" clip-rule="evenodd" fill-rule="evenodd"></path>
<path fill="#5C707A" d="M84.8546 10.4465C83.1404 12.0737 79.5225 13.5168 77.8083 14.1513C75.3674 15.0571 74.2826 15.4153 72.9316 15.8656C71.3965 16.3159 68.3262 17.3086 68.3262 17.3086C74.651 19.2071 79.1695 19.7495 79.1695 19.7495C79.1695 19.7495 81.247 19.115 84.5886 17.3086C86.3949 16.4029 87.2085 15.8656 87.8431 15.231C88.1143 15.0519 88.7488 14.4174 88.8358 13.6038C88.8358 13.5117 88.9279 13.4247 88.9279 13.2405V13.0614C88.8358 12.9692 88.8358 12.8823 88.8358 12.8823C88.8358 12.8823 88.8358 12.7032 88.7437 12.5189C88.7437 12.4268 88.5646 11.9765 88.2013 11.7053C87.9301 11.5262 87.5667 11.0708 86.2158 10.6205C85.7655 10.4414 84.9519 10.2571 84.9519 10.2571L84.8598 10.4362L84.8546 10.4465Z" clip-rule="evenodd" fill-rule="evenodd"></path>
<path fill="#8A99A0" d="M88.9223 13.1587C88.9223 13.1587 88.9223 12.9796 88.8302 12.8875C88.8302 12.7084 88.7381 12.6163 88.6511 12.4372C88.559 12.3451 88.3799 12.166 88.2008 11.8948C88.0217 11.8027 87.8375 11.6236 87.6584 11.4445C86.7526 10.902 85.6729 10.6308 84.675 10.4517C83.1399 10.2726 81.3335 10.2726 81.1493 10.2726C80.6069 10.2726 76.9021 10.2726 76.0014 10.3647C71.8463 10.4568 66.6984 10.4568 65.3424 10.4568C51.5209 10.4568 45.4673 10.1856 38.7791 8.82958C33.0888 7.74474 29.9264 6.6599 29.9264 6.6599C34.9873 6.47057 64.3496 5.20662 69.6766 5.11451C73.2023 5.0224 75.6381 4.93541 77.6287 5.11451C78.7135 5.11451 79.6142 5.20662 80.7911 5.47783C81.876 5.65693 82.8687 5.92814 83.4111 6.11236C84.5829 6.56267 85.6678 7.1972 86.1232 7.91873C86.1232 7.91873 86.3023 8.01083 86.4865 8.28205C86.6656 8.64536 86.9368 9.00357 87.0289 9.09568C87.7505 10.2675 88.1138 10.902 88.2059 11.1732C88.385 11.4445 88.4771 11.7157 88.5692 11.9869C88.7483 12.166 88.7483 12.3502 88.7483 12.4372C88.8404 12.7084 88.8404 12.9796 88.9274 13.0717V13.1638L88.9223 13.1587Z" clip-rule="evenodd" fill-rule="evenodd"></path>
</g>
<defs>
<clipPath id="clip0_433_2361">
<rect transform="translate(2.46228 5.01208)" fill="white" height="34.9759" width="86.4598"></rect>
</clipPath>
</defs>
</svg>
