<svg xmlns="http://www.w3.org/2000/svg" fill="none" viewBox="0 0 96 45" height="45" width="96">
<g clip-path="url(#clip0_433_2356)">
<path fill="#8A99A0" d="M63.6619 31.0392C63.6571 31.0439 63.652 31.0439 63.652 31.049C60.007 33.6112 55.6921 36.3032 51.0485 39.129L50.8654 39.2344C50.8369 39.256 50.8178 39.2877 50.8124 39.3228C50.8069 39.358 50.8153 39.394 50.8359 39.4232C50.8564 39.4523 50.8877 39.4723 50.9228 39.4792C50.958 39.486 50.9945 39.479 51.0246 39.4597L51.1786 39.378C55.1179 37.3381 59.6408 34.9139 64.1924 32.4281C64.2163 32.4141 64.2402 32.3996 64.2646 32.3898C64.0058 31.9673 63.8034 31.5134 63.6619 31.0392ZM87.5768 11.8085C81.8338 5.51467 44.8769 11.1761 29.1635 14.5867L28.7973 14.6632C28.7795 14.6661 28.7624 14.6726 28.7472 14.6822C28.7319 14.6918 28.7187 14.7043 28.7083 14.719C28.698 14.7338 28.6907 14.7504 28.6868 14.7679C28.683 14.7855 28.6828 14.8036 28.6861 14.8213C28.7006 14.8978 28.773 14.9458 28.8453 14.9314L29.2068 14.8595C42.2253 12.556 69.3026 9.36558 75.1269 15.1039C76.9062 16.857 76.4818 19.1078 74.418 21.7712C75.527 22.4802 76.3175 23.5957 76.6748 24.9898C84.7263 19.6828 90.1322 14.6105 87.5768 11.8085Z"></path>
<path fill="#8A99A0" d="M65.9859 29.3868C66.0585 31.5998 67.4708 33.415 69.3078 33.415C72.8712 33.415 74.3899 29.066 74.2834 26.1632C74.2064 23.9455 72.7603 22.135 70.9233 22.135C67.8614 22.1304 65.8797 26.4602 65.9859 29.3868ZM64.1056 29.267C63.9751 25.4878 66.9549 21.6225 71.2844 21.6225C74.1777 21.6225 76.0725 23.5384 76.1786 26.4747C76.3185 30.4595 73.5317 34.1191 69.0041 34.1191C66.1018 34.1191 64.2066 32.208 64.1056 29.267ZM23.1002 28.2708C22.9462 28.3281 22.7482 28.3855 22.4974 28.4382C22.2514 28.496 21.7984 28.5725 21.1426 28.6778C20.6891 28.7497 20.3759 28.8406 20.1974 28.9699C20.0289 29.0944 19.9279 29.2432 19.8984 29.4297C19.8651 29.6261 19.9276 29.7795 20.0966 29.904C20.2698 30.0238 20.5589 30.0859 20.9692 30.0859C21.2773 30.0859 21.5767 30.0383 21.866 29.9422C22.1599 29.8466 22.4106 29.717 22.5988 29.5542C22.7387 29.4348 22.8397 29.2814 22.9167 29.0944C22.965 28.9699 23.0279 28.697 23.1002 28.2708ZM26.8608 25.9477C26.8466 26.2923 26.7837 26.5992 26.6921 27.1309L26.0556 30.6797C26.0025 30.9962 26.1184 31.2406 26.4124 31.4128L26.3931 31.5518L22.7482 31.547L22.7143 30.6461C22.166 30.9681 21.5778 31.2178 20.9645 31.389C20.3857 31.5377 19.9181 31.5998 19.2191 31.5998C18.0426 31.5998 17.3675 31.4799 16.8998 31.0728C16.4272 30.6563 16.1957 30.3783 16.2197 29.8033C16.2393 29.473 16.4125 29.0468 16.6585 28.7497C16.9093 28.448 17.2567 28.2516 17.6276 28.0739C18.0041 27.8972 18.4473 27.768 19.0886 27.6672C19.7346 27.5618 20.6317 27.4611 21.8322 27.3608C22.4637 27.3082 22.8495 27.1644 23.0279 27.0926C23.2786 26.9966 23.3795 26.8865 23.4134 26.6855C23.481 26.3213 23.3655 26.1105 22.8735 26.0148C21.5622 25.756 19.0984 26.1823 17.8303 26.4938L18.5196 24.6451C20.1923 24.4007 21.7599 24.2473 23.4138 24.2473C26.0509 24.2473 26.8898 24.9898 26.8608 25.9477ZM37.43 31.547L38.6928 24.4534H42.1838L40.9205 31.5467L37.43 31.547ZM38.8858 22.8104C38.9919 22.226 39.9177 21.7564 40.9492 21.7564C41.9857 21.7564 42.743 22.2307 42.6416 22.8104C42.5304 23.3947 41.6097 23.8686 40.5684 23.8686C39.5365 23.8686 38.7844 23.3947 38.8858 22.8104ZM54.5781 28.2852C54.419 28.3379 54.2167 28.3952 53.9707 28.4526C53.7247 28.51 53.2715 28.5823 52.6157 28.6873C52.1674 28.7595 51.8491 28.8504 51.6759 28.9796C51.5068 29.0995 51.4106 29.2525 51.3721 29.4344C51.3336 29.6312 51.4059 29.7892 51.5697 29.9087C51.7481 30.0286 52.0374 30.0859 52.4467 30.0859C52.7505 30.0859 53.05 30.043 53.3439 29.952C53.6429 29.8513 53.8889 29.7268 54.0814 29.564C54.2167 29.4442 54.318 29.2861 54.3903 29.1042C54.4382 28.9843 54.5007 28.7114 54.5781 28.2852ZM58.3386 25.9575C58.3245 26.3068 58.2616 26.6137 58.1654 27.1403L57.5339 30.6945C57.4809 31.0056 57.5964 31.2546 57.8907 31.4272L57.8714 31.5518L54.2265 31.5564L54.1973 30.6512C53.6505 30.9761 53.0617 31.2259 52.4472 31.3936C51.8684 31.5467 51.4007 31.6091 50.6923 31.6091C49.5158 31.6091 48.8453 31.4944 48.3778 31.0821C47.9003 30.661 47.674 30.3877 47.6975 29.813C47.7125 29.4778 47.8858 29.0514 48.1365 28.7591C48.3876 28.4531 48.7346 28.2609 49.1106 28.0837C49.4866 27.9065 49.9303 27.7777 50.5669 27.6719C51.2129 27.5716 52.1144 27.4662 53.3147 27.3655C53.942 27.3128 54.3275 27.1743 54.5058 27.102C54.7612 27.0064 54.858 26.8959 54.8965 26.6897C54.9593 26.331 54.848 26.1202 54.3612 26.0195C53.0402 25.7607 50.5862 26.1874 49.3181 26.4985L50.0026 24.6498C51.6805 24.4054 53.2425 24.2519 54.8965 24.2519C57.5241 24.257 58.3626 25.0042 58.3386 25.9575ZM15.7474 28.9988C14.6094 29.224 13.9732 29.3103 12.8497 29.3103C11.1813 29.3103 9.85543 28.4862 9.92774 26.9775C9.98077 25.9715 11.1765 23.8546 14.2187 23.8546C15.1784 23.8546 15.9257 24.0221 16.9332 24.5924L17.3769 22.1304C16.0079 21.6178 15.1009 21.5414 13.9244 21.5507C9.93287 21.594 6.10434 23.3951 5.62689 27.0587C5.14475 30.7803 9.72068 31.7145 11.7503 31.7052C12.9221 31.7 14.1417 31.6524 15.2797 31.5372L15.7474 28.9988ZM44.1073 24.4152L44.358 22.9685L48.0082 22.1779L47.6176 24.4101H49.4059L49.0687 25.8376L47.3331 25.833L46.2772 31.5372C46.2772 31.5372 42.7622 31.5135 42.7477 31.5372L43.7988 25.847H42.4777L42.7477 24.4105H44.1073V24.4152ZM63.5815 21.747L61.8844 31.5419L58.331 31.5467L60.1196 21.651L63.5815 21.747ZM32.8108 26.1151C32.3631 26.1123 31.9271 26.2572 31.5715 26.5274C31.2052 26.8049 30.9738 27.2074 30.8822 27.739C30.771 28.357 30.8385 28.8024 31.0846 29.0753C31.3353 29.3486 31.6921 29.4875 32.1643 29.4875C32.4826 29.4875 32.8104 29.4297 33.0516 29.3103C33.3507 29.1522 33.5578 28.989 33.7361 28.7259C33.9291 28.4526 34.0544 28.1462 34.1221 27.7918C34.2234 27.2312 34.1366 26.8143 33.8761 26.5367C33.6206 26.2592 33.2686 26.1151 32.8108 26.1151ZM26.4561 33.9946L28.1579 24.4916H31.2245L30.9878 25.7033C31.2531 25.3396 31.6775 25.0424 32.2658 24.8027C32.8588 24.5635 33.524 24.3862 34.2474 24.3862C35.0474 24.3862 35.5394 24.4292 36.1375 24.736C36.7305 25.0471 37.1501 25.4976 37.3718 26.082C37.6028 26.6566 37.6515 27.3082 37.5258 28.0119C37.3187 29.1858 36.745 30.105 35.8 30.7854C34.8647 31.4654 34.0207 31.6426 32.8203 31.6474C32.3958 31.6474 32.039 31.6044 31.7451 31.5326C31.4559 31.4561 31.2245 31.3647 31.0508 31.2546C30.8822 31.1446 30.7038 30.9864 30.477 30.7374L29.908 33.9946H26.4561ZM89.8186 26.9872C89.7994 26.4169 89.5098 26.0293 88.9168 26.0293C87.485 26.0293 85.9615 28.8168 85.7009 29.9376C88.0492 29.9422 89.8764 28.5534 89.8186 26.9872ZM90.1267 31.3554L90.4018 31.5424C89.7028 32.955 88.2807 34.0902 86.6122 34.0902C85.2474 34.0902 84.1244 33.185 84.0667 31.4893C83.9554 28.448 86.8244 25.6268 89.1723 25.6268C90.1801 25.6268 91.1154 26.0625 91.1539 27.1403C91.2408 29.5594 87.8225 30.2967 85.5709 30.3494C85.4981 30.6031 85.4695 30.8572 85.4841 31.2402C85.5226 32.2415 86.13 33.0847 87.3934 33.0847C88.483 33.0847 89.5723 32.2131 90.1267 31.3554Z"></path>
<path fill="#8A99A0" d="M76.1248 26.9104C76.3656 26.8769 76.7563 26.8339 76.9248 26.8339C77.1807 26.8339 77.4216 26.8819 77.4361 27.1357C77.4412 27.2844 77.1708 28.3618 77.1131 28.6109L76.5684 30.9964C76.3464 31.9734 76.1103 32.9938 75.8981 33.8031H77.2961L78.0821 30.024C80.4787 27.5429 81.4041 26.7332 81.9683 26.7332C82.2238 26.7332 82.3975 26.8675 82.412 27.1693C82.4266 27.6049 82.1515 28.5964 82.06 28.8841L81.2599 31.6381C81.0763 32.256 80.9416 32.8162 80.9561 33.214C80.9801 33.8175 81.3463 34.0852 81.8961 34.0852C82.9186 34.0852 83.6608 33.027 84.3068 31.9875L84.1186 31.6475C83.8584 32.064 83.2509 32.979 82.7735 32.979C82.6238 32.979 82.4796 32.8787 82.4745 32.6296C82.4603 32.3088 82.5951 31.8247 82.6918 31.5038L83.5838 28.2755C83.8247 27.3847 83.9354 26.8148 83.9308 26.5084C83.9068 25.9049 83.5543 25.6223 83.0096 25.6223C82.089 25.6223 80.8693 26.2925 78.2802 29.2479H78.2417L78.5694 27.8063C78.7477 27.0158 78.921 26.1922 79.0853 25.6218C78.1882 25.9431 76.9061 26.3023 76.115 26.4557L76.1248 26.9104Z"></path>
</g>
<defs>
<clipPath id="clip0_433_2356">
<rect transform="translate(0.53894 5.51465)" fill="white" height="33.9707" width="95.3065"></rect>
</clipPath>
</defs>
</svg>
