<svg xmlns="http://www.w3.org/2000/svg" fill="none" viewBox="0 0 96 45" height="45" width="96">
<path fill="#8A99A0" d="M90.6922 5.86292H7.6922V40H90.6922V5.86292Z"></path>
<path fill="#091A23" d="M22.3895 35.0066H12.9449V11.4019H22.1953L25.85 14.8256V31.5829L22.3895 35.0066ZM17.7274 16.0974V30.8131H19.9999V16.0974H17.7274Z" clip-rule="evenodd" fill-rule="evenodd"></path>
<path fill="#091A23" d="M32.9285 11.4019H27.5938V35.0033H32.9285V11.4019Z"></path>
<path fill="#091A23" d="M42.3362 20.4548H47.5405V14.8256L44.0164 11.4019H38.1963L34.7023 14.8256V31.5829L38.5176 35.0066H44.0164L47.5405 31.5829V24.9328H42.3362V30.5621H40.0404V15.8463H42.3362V20.4548Z"></path>
<path fill="#091A23" d="M54.5587 21.4756H54.6223L58.1164 11.4019H63.5816L58.9563 22.4295L64.2945 35.0066H58.5045L54.6223 24.9328H54.5587V35.0066H49.2239V11.4019H54.5587V21.4756Z"></path>
<path fill="#091A23" d="M85.4394 14.8256L81.6878 11.4019H76.0583L72.5677 14.8256V21.904L76.2859 25.3278L80.1012 25.6256V30.5621H77.9024V27.4362H72.5677V31.5829L76.0282 35.0066H81.9453L85.4394 31.5829V24.4074L81.7846 20.9837L77.9024 20.6523V15.8463H80.1012V19.0057H85.4394V14.8256Z"></path>
<path fill="#091A23" d="M84.7836 34.4109H84.6492V34.7322H84.5389V33.9926H84.8199C84.9941 33.9926 85.0809 34.0561 85.0809 34.2034C85.0809 34.3373 84.9977 34.3942 84.8903 34.4075L85.1015 34.7322H84.9777L84.7836 34.4109ZM84.6527 34.0896V34.3172H84.7864C84.8839 34.3172 84.9671 34.3105 84.9671 34.1967C84.9671 34.1063 84.8839 34.0896 84.8071 34.0896H84.6527Z" clip-rule="evenodd" fill-rule="evenodd"></path>
<path fill="#091A23" d="M85.4359 34.3641C85.4359 34.7356 85.1379 35.0067 84.7866 35.0067C84.4352 35.0067 84.1344 34.7323 84.1344 34.3641C84.1344 33.996 84.4352 33.7249 84.7866 33.7249C85.1379 33.7249 85.4359 33.9926 85.4359 34.3641ZM84.7866 33.8286C84.4957 33.8286 84.2645 34.0562 84.2645 34.3608C84.2645 34.6687 84.4992 34.8963 84.7866 34.8963C85.0746 34.8963 85.3057 34.662 85.3057 34.3608C85.3057 34.0595 85.0781 33.8286 84.7866 33.8286Z" clip-rule="evenodd" fill-rule="evenodd"></path>
<path fill="#8A99A0" d="M66.5702 21.0901L66.5724 21.0882L66.5739 21.0901H66.5702Z"></path>
<path fill="#091A23" d="M66.5723 21.0882C67.0029 20.7341 67.2935 20.4033 67.4773 20.0892C67.6613 19.7746 67.7383 19.4734 67.7383 19.1956C67.7383 18.9413 67.6747 18.7103 67.5877 18.5028L67.253 18.6433C67.3266 18.8174 67.3769 18.9982 67.3769 19.1956C67.3769 19.4064 67.3233 19.6374 67.166 19.9051C67.0087 20.1728 66.751 20.4741 66.3427 20.8088L66.5723 21.0882Z"></path>
<path fill="#091A23" d="M66.3695 21.9031C67.1191 21.4044 67.5743 20.9626 67.8421 20.541C68.1132 20.1192 68.1901 19.721 68.1868 19.3529C68.1868 19.2792 68.1868 19.2056 68.1801 19.132L67.8187 19.1554L67.8191 19.1646C67.8223 19.2282 67.8253 19.289 67.8253 19.3529C67.8253 19.6742 67.7684 19.982 67.5375 20.3468C67.3066 20.7083 66.8916 21.1233 66.1687 21.6019L66.3695 21.9031Z"></path>
<path fill="#091A23" d="M67.8957 21.4279C67.4271 21.97 66.7711 22.4821 65.9913 22.7832L65.9946 22.7799L65.8641 22.4419C66.3997 22.2378 66.8782 21.9165 67.2665 21.5584C67.6547 21.2003 67.9525 20.7986 68.1232 20.4472C68.237 20.2163 68.2906 20.0021 68.2906 19.8482V19.7946L68.652 19.7645C68.6553 19.7913 68.6553 19.8214 68.6553 19.8481C68.652 20.0824 68.5784 20.3401 68.4479 20.6079C68.3173 20.8756 68.1299 21.1568 67.8957 21.4279Z"></path>
<path fill="#091A23" d="M68.7858 17.2009C67.7584 16.8796 66.6639 17.4552 66.3427 18.4827C66.0214 19.5102 66.597 20.6045 67.6245 20.9259C68.6519 21.2471 69.7464 20.6715 70.0643 19.644C70.3856 18.6166 69.8133 17.5222 68.7825 17.2042L68.7858 17.2009Z"></path>
<path fill="#8A99A0" d="M70.149 19.1548L70.1513 19.1555L70.148 19.1689L70.149 19.1548Z"></path>
<path fill="#8A99A0" d="M68.7455 17.2009C69.7464 17.4835 70.1989 18.4368 70.1489 19.1548C70.1301 19.1498 70.1176 19.1625 70.1144 19.1722C70.108 19.1966 70.1003 19.219 70.0928 19.2406C70.0768 19.2873 70.0619 19.3304 70.0642 19.383C70.0642 19.4131 70.0809 19.4098 70.0876 19.3629C70.0876 19.3292 70.1054 19.2966 70.1217 19.2667C70.1345 19.2432 70.1464 19.2215 70.1479 19.2023C70.1479 19.276 70.1144 19.4667 70.0977 19.5169L70.0776 19.4901C70.0513 19.5092 70.0353 19.5368 70.0185 19.5656C70.0118 19.5772 70.0049 19.589 69.9972 19.6005C69.9772 19.6307 69.9504 19.6608 69.9136 19.6776V19.6909C69.9227 19.6985 69.9347 19.693 69.9437 19.6887C69.9544 19.6837 69.961 19.6806 69.9537 19.7043L69.9605 19.7177C69.9724 19.7097 69.976 19.7005 69.9799 19.6909C69.9824 19.6843 69.9852 19.6776 69.9906 19.6708C70.0207 19.624 70.0541 19.5738 70.091 19.5336C70.0675 19.6274 70.0408 19.711 70.0039 19.8014C69.9906 19.7813 69.9705 19.7712 69.9437 19.7813C69.8901 19.798 69.8098 19.9118 69.7897 19.9888C69.7797 20.0189 69.7897 20.029 69.8065 20.0088L69.8167 19.9967C69.8573 19.9483 69.9325 19.8588 69.9571 19.865C69.9544 19.8726 69.9516 19.8804 69.9488 19.8884C69.9205 19.9691 69.8859 20.0676 69.8098 20.0859C69.8074 20.0863 69.8048 20.0871 69.8021 20.0879C69.7854 20.0925 69.7649 20.0983 69.7763 20.0524C69.7672 20.057 69.758 20.0618 69.7486 20.0667C69.7034 20.0906 69.6562 20.1154 69.609 20.1126L69.6084 20.1135C69.571 20.1715 69.4513 20.3565 69.358 20.2733L69.3212 20.29C69.3112 20.1795 69.5019 20.0992 69.5923 20.0959C69.6057 20.0892 69.6123 20.0725 69.5956 20.039C69.5655 19.9721 69.4149 20.0524 69.3312 20.2063C69.2543 20.1361 69.1371 20.213 69.1104 20.2499C69.0669 20.3101 68.9029 20.387 68.8125 20.2499C68.7996 20.2513 68.7867 20.2546 68.7738 20.2578C68.7566 20.2622 68.7394 20.2666 68.7221 20.2666C68.6686 20.3603 68.528 20.4172 68.4209 20.3235C68.3908 20.3268 68.3573 20.3302 68.3272 20.3302C68.277 20.4239 68.1063 20.4272 68.0226 20.2733C67.9843 20.2733 67.9489 20.2603 67.9138 20.2474C67.8847 20.2367 67.8556 20.2261 67.8252 20.223C67.7616 20.2799 67.6746 20.2833 67.6043 20.2499C67.5608 20.2264 67.5307 20.1762 67.5173 20.126H67.4972C67.4604 19.9788 67.3634 19.8783 67.1726 19.962C67.1205 19.962 67.0923 19.9253 67.0662 19.8912C67.0571 19.8793 67.0482 19.8678 67.0387 19.8583C67.032 19.7645 66.9851 19.6574 66.8948 19.6139C66.8546 19.5939 66.8044 19.5939 66.7609 19.6139C66.7458 19.6114 66.7401 19.5955 66.7354 19.5821C66.7339 19.5778 66.7325 19.5737 66.7308 19.5705C66.7186 19.5501 66.7004 19.5353 66.6823 19.5205C66.6558 19.499 66.6297 19.4777 66.6237 19.4399C66.6471 19.3094 66.5702 19.142 66.4664 19.1789C66.4463 19.2525 66.3392 19.1655 66.3828 18.9714C66.3337 18.9288 66.3363 18.8549 66.3385 18.7896C66.3399 18.7523 66.341 18.7179 66.3326 18.6936C66.3195 18.6512 66.37 18.472 66.4067 18.3421L66.409 18.3341C66.3894 18.4044 66.3863 18.5131 66.4062 18.5463L66.4262 18.5397C66.453 18.4794 66.4664 18.379 66.4397 18.3087L66.4229 18.2953C66.5468 17.8636 67.437 16.8328 68.7455 17.2009Z"></path>
<path fill="#8A99A0" d="M66.3037 18.7613C66.2918 18.822 66.28 18.8821 66.2858 18.9371C66.3324 18.8805 66.3424 18.7971 66.3091 18.7338C66.3073 18.743 66.3055 18.7522 66.3037 18.7613Z"></path>
<path fill="#8A99A0" d="M66.3525 19.1617L66.3358 19.1951C66.2825 19.165 66.2825 19.0984 66.2858 19.045C66.3158 19.0784 66.3391 19.1184 66.3525 19.1617Z"></path>
<path fill="#8A99A0" d="M69.1564 20.437C69.1623 20.4357 69.1681 20.4343 69.1737 20.4335L69.1771 20.4302C69.1835 20.4263 69.1902 20.4224 69.1969 20.4186C69.2425 20.3921 69.2921 20.3633 69.3037 20.3168L69.2437 20.3468C69.236 20.3491 69.2282 20.3515 69.2205 20.3538C69.1715 20.3686 69.1222 20.3835 69.0704 20.3835V20.3901C69.0673 20.4089 69.0846 20.4218 69.0978 20.4316L69.1003 20.4335C69.1181 20.4462 69.1378 20.4415 69.1564 20.437Z"></path>
<path fill="#8A99A0" d="M67.4295 20.1791C67.3862 20.2058 67.3328 20.2125 67.2862 20.1859C67.2495 20.1592 67.2262 20.1125 67.2228 20.0658C67.2391 20.0735 67.2573 20.0808 67.2763 20.0883C67.3312 20.1102 67.3923 20.1346 67.4295 20.1791Z"></path>
<path fill="#8A99A0" d="M67.2055 20.7147C67.1521 20.688 67.0922 20.6481 67.0455 20.6114C67.1088 20.6314 67.1721 20.6614 67.2055 20.7147Z"></path>
<path fill="#8A99A0" d="M69.7465 20.1428C69.7446 20.1463 69.742 20.1501 69.7388 20.154C69.7403 20.1502 69.7418 20.1465 69.7431 20.1428H69.7465Z"></path>
<path fill="#8A99A0" d="M69.738 20.1539C69.7102 20.2243 69.6586 20.3001 69.5889 20.3128C69.5389 20.3228 69.5356 20.2861 69.5756 20.2061C69.594 20.2613 69.7025 20.1981 69.738 20.1539Z"></path>
<path fill="#8A99A0" d="M69.6561 20.3598C69.6661 20.3031 69.7227 20.2331 69.7528 20.2331C69.7494 20.2531 69.6828 20.3364 69.6561 20.3598Z"></path>
<path fill="#8A99A0" d="M69.5617 20.3536C69.4717 20.3769 69.4251 20.4803 69.4284 20.5203C69.4618 20.5069 69.495 20.4502 69.5017 20.4369C69.5084 20.4236 69.5317 20.4136 69.555 20.4103C69.5917 20.407 69.6017 20.3436 69.5617 20.3536Z"></path>
<path fill="#8A99A0" d="M69.4476 20.3704C69.421 20.4904 69.2943 20.5503 69.2476 20.5037H69.251C69.2209 20.467 69.2543 20.447 69.2877 20.467C69.3243 20.487 69.4243 20.4071 69.4476 20.3704Z"></path>
<path fill="#8A99A0" d="M69.2941 20.5812C69.2341 20.6078 69.1642 20.6645 69.1608 20.7445C69.1638 20.7415 69.1688 20.736 69.1753 20.7288C69.2047 20.6962 69.264 20.6306 69.2941 20.6278C69.3308 20.6278 69.3441 20.5578 69.2941 20.5812Z"></path>
<path fill="#8A99A0" d="M68.8327 20.8724C68.8561 20.7586 69.0569 20.705 69.1205 20.7652C69.0067 20.7652 68.8963 20.8054 68.8327 20.8724Z"></path>
<path fill="#8A99A0" d="M68.8058 20.5909C68.8625 20.6876 69.0492 20.6076 69.0425 20.5109C69.0192 20.5342 68.9392 20.6143 68.8058 20.5909Z"></path>
<path fill="#8A99A0" d="M68.6051 20.4138C68.6185 20.5845 68.8594 20.5376 68.8929 20.397C68.8728 20.4606 68.6151 20.4741 68.6051 20.4138Z"></path>
<path fill="#8A99A0" d="M68.5179 20.6614C68.4745 20.6914 68.4646 20.7048 68.4845 20.7247C68.5146 20.7514 68.6512 20.7347 68.6846 20.6448C68.6646 20.6814 68.5079 20.7014 68.5179 20.6614Z"></path>
<path fill="#8A99A0" d="M68.4579 20.9727C68.5014 20.8589 68.749 20.8389 68.7993 20.9058C68.6855 20.8891 68.5316 20.9125 68.4579 20.9727Z"></path>
<path fill="#8A99A0" d="M68.0328 20.956C68.0964 20.8724 68.3541 20.8724 68.3943 20.946C68.2838 20.9126 68.1198 20.9259 68.0328 20.956Z"></path>
<path fill="#8A99A0" d="M68.2604 20.5309C68.2269 20.4975 68.257 20.4607 68.2972 20.4975C68.3307 20.5276 68.4913 20.5243 68.5114 20.4942C68.4478 20.6347 68.2838 20.5544 68.2604 20.5309Z"></path>
<path fill="#8A99A0" d="M68.283 20.7185C68.3096 20.7752 68.2063 20.8985 68.0896 20.7718L68.0964 20.7737C68.1401 20.7861 68.2578 20.8194 68.283 20.7185Z"></path>
<path fill="#8A99A0" d="M67.9022 20.6282C67.9993 20.7854 68.1633 20.7285 68.18 20.6282C68.16 20.6583 68.0194 20.7252 67.9022 20.6282Z"></path>
<path fill="#8A99A0" d="M67.7115 20.357C67.7617 20.5879 68.0294 20.5277 68.0327 20.4139C68.0127 20.444 67.8219 20.5243 67.7115 20.357Z"></path>
<path fill="#8A99A0" d="M67.7943 20.6078C67.7943 20.7377 67.5342 20.6978 67.5809 20.5444C67.5942 20.5944 67.7276 20.6911 67.7943 20.6078Z"></path>
<path fill="#8A99A0" d="M67.3535 20.28C67.4037 20.511 67.6212 20.4976 67.6447 20.3905C67.6246 20.4206 67.464 20.4507 67.3535 20.28Z"></path>
<path fill="#8A99A0" d="M67.9418 20.7485C67.9351 20.8418 67.7585 20.8718 67.7551 20.7318C67.7784 20.7718 67.8685 20.8051 67.9418 20.7485Z"></path>
<path fill="#8A99A0" d="M67.5166 20.5776C67.5965 20.7443 67.2699 20.6542 67.3165 20.5042C67.3332 20.5843 67.5365 20.6809 67.5166 20.5776Z"></path>
<path fill="#8A99A0" d="M67.3258 20.3667C67.3492 20.5333 67.0725 20.4567 67.1192 20.3033C67.1325 20.3701 67.2592 20.45 67.3258 20.3667Z"></path>
<path fill="#8A99A0" d="M66.9312 20.527C66.8845 20.4871 66.8345 20.4371 66.7979 20.3904C66.8546 20.4237 66.9112 20.467 66.9312 20.527Z"></path>
<path fill="#8A99A0" d="M66.6945 20.2354C66.7028 20.2478 66.7109 20.2597 66.7205 20.2693C66.7071 20.2093 66.6639 20.156 66.6005 20.1227C66.6066 20.141 66.6214 20.1543 66.6365 20.1679C66.6462 20.1767 66.656 20.1856 66.6639 20.196C66.676 20.2081 66.6854 20.222 66.6945 20.2354Z"></path>
<path fill="#8A99A0" d="M66.7539 20.2123C66.7639 20.1623 66.7506 20.0956 66.6773 20.0256C66.7506 20.0456 66.8106 20.1656 66.7539 20.2123Z"></path>
<path fill="#8A99A0" d="M66.9016 20.2733C66.9583 20.3733 67.0749 20.3966 67.0416 20.3233C67.0316 20.3333 66.9616 20.3299 66.9016 20.2733Z"></path>
<path fill="#8A99A0" d="M66.9217 20.3302C66.9617 20.3702 66.995 20.4536 66.975 20.4969C66.965 20.4736 66.9017 20.2802 66.9217 20.3302Z"></path>
<path fill="#8A99A0" d="M66.7142 19.9352C66.7242 20.0586 66.8543 20.1152 66.8776 20.0286C66.8309 20.0486 66.7609 20.0019 66.7142 19.9352Z"></path>
<path fill="#8A99A0" d="M66.9518 20.0557C66.9085 20.1057 67.1052 20.3224 67.1652 20.2191L67.1559 20.2158C67.1048 20.198 67.0019 20.1621 66.9518 20.0557Z"></path>
<path fill="#8A99A0" d="M66.9978 19.8743C66.9579 19.9476 66.7846 19.8976 66.7879 19.691C66.8278 19.761 66.9112 19.8477 66.9978 19.8743Z"></path>
<path fill="#8A99A0" d="M66.577 20.0925C66.6004 20.0156 66.51 19.8549 66.4565 19.8281C66.4616 19.8394 66.4714 19.857 66.4834 19.8783C66.5177 19.94 66.5695 20.0329 66.577 20.0925Z"></path>
<path fill="#8A99A0" d="M66.6137 19.9246C66.6503 19.8812 66.6203 19.7912 66.587 19.7612C66.6003 19.8046 66.6137 19.8879 66.6137 19.9246Z"></path>
<path fill="#8A99A0" d="M66.597 19.5839C66.5237 19.7206 66.7136 19.8472 66.7403 19.7372C66.687 19.7739 66.6137 19.6972 66.597 19.5839Z"></path>
<path fill="#8A99A0" d="M66.3795 19.5338C66.3996 19.5838 66.4195 19.7071 66.4262 19.7671C66.4429 19.7271 66.4496 19.6004 66.3795 19.5338Z"></path>
<path fill="#8A99A0" d="M66.4733 19.2827C66.4566 19.4859 66.5733 19.5593 66.6099 19.4527C66.5666 19.4427 66.4967 19.3426 66.4733 19.2827Z"></path>
<path fill="#8A99A0" d="M66.4397 19.4571C66.4398 19.4559 66.4398 19.4546 66.4398 19.4534L66.4397 19.4571Z"></path>
<path fill="#8A99A0" d="M66.3528 19.3262C66.3462 19.4812 66.4375 19.5579 66.4394 19.4561C66.3989 19.4624 66.3904 19.4277 66.3841 19.4013C66.3836 19.3996 66.3832 19.3979 66.3828 19.3962C66.3815 19.3911 66.3805 19.3863 66.3795 19.3817C66.3753 19.3618 66.3717 19.3451 66.3528 19.3262Z"></path>
<path fill="#091A23" d="M66.4596 18.7765C66.4963 18.7032 66.4729 18.6065 66.4229 18.5965H66.4196L66.4329 18.6465C66.4429 18.6565 66.4562 18.6831 66.4329 18.7265V18.7765H66.4596Z"></path>
<path fill="#091A23" d="M69.9004 19.5962C69.8703 19.5862 69.927 19.3596 70.0004 19.3596C70.0194 19.4184 69.9864 19.4578 69.9534 19.4974C69.9283 19.5274 69.9032 19.5575 69.9004 19.5962Z"></path>
<path fill="#091A23" d="M69.7755 19.8464C69.8013 19.8461 69.8263 19.8456 69.8359 19.8112C69.8158 19.7312 69.6725 19.8345 69.6558 19.9179C69.679 19.9202 69.6909 19.9032 69.7038 19.8849C69.7095 19.8767 69.7154 19.8684 69.7225 19.8612C69.7367 19.8471 69.7563 19.8467 69.7755 19.8464Z"></path>
<path fill="#091A23" d="M66.4995 19.1276C66.4963 19.1146 66.4935 19.1019 66.4908 19.0896C66.4767 19.0263 66.4648 18.9728 66.4062 18.931C66.4429 18.8043 66.5695 18.9609 66.4995 19.1276Z"></path>
<path fill="#091A23" d="M69.9299 19.2254C69.8599 19.2121 69.8132 19.3587 69.8099 19.4087C69.7999 19.3487 69.7966 19.2487 69.8766 19.1754C69.9032 19.1521 69.9466 19.1721 69.9299 19.2254Z"></path>
<path fill="#091A23" d="M66.5569 18.5118C66.6003 18.5152 66.6436 18.3485 66.6269 18.3018C66.6036 18.2451 66.5569 18.2752 66.5669 18.3085C66.5669 18.3085 66.607 18.4018 66.5569 18.5118Z"></path>
<path fill="#091A23" d="M69.8527 19.5134C69.8444 19.5452 69.8192 19.5534 69.7924 19.5622C69.7658 19.571 69.7376 19.5802 69.7227 19.6133C69.7127 19.6334 69.7027 19.6533 69.6894 19.6666C69.6894 19.58 69.816 19.3967 69.8561 19.5134H69.8527Z"></path>
<path fill="#091A23" d="M66.6104 18.8006C66.6304 18.7739 66.6773 18.6501 66.6304 18.573V18.5697C66.6004 18.5228 66.5167 18.5664 66.5836 18.6266C66.6265 18.6753 66.6205 18.7215 66.6137 18.7737C66.6125 18.7825 66.6113 18.7914 66.6104 18.8006Z"></path>
<path fill="#091A23" d="M69.652 19.7342C69.6495 19.7561 69.6398 19.7549 69.6231 19.7526C69.617 19.7517 69.61 19.7508 69.602 19.7508C69.5519 19.7508 69.4619 19.8575 69.4619 19.8575C69.4686 19.7641 69.602 19.5808 69.652 19.7342Z"></path>
<path fill="#091A23" d="M66.6854 19.0557C66.6897 19.086 66.6932 19.1103 66.7107 19.1153C66.7844 18.9145 66.6003 18.7806 66.5869 18.9145C66.6685 18.9375 66.6782 19.005 66.6854 19.0557Z"></path>
<path fill="#091A23" d="M69.4106 19.915C69.4062 19.9328 69.3928 19.9328 69.3795 19.9328C69.3729 19.9328 69.3662 19.9328 69.3606 19.9349C69.3223 19.9491 69.2889 19.9754 69.2558 20.0014C69.2343 20.0183 69.213 20.0351 69.1906 20.0483C69.1773 19.9883 69.3673 19.795 69.4106 19.915Z"></path>
<path fill="#091A23" d="M66.6772 19.2424C66.7824 19.1339 66.894 19.3655 66.8429 19.4392C66.8382 19.44 66.8181 19.4416 66.8006 19.4124L66.7991 19.4094C66.7814 19.374 66.739 19.2888 66.6839 19.2824C66.6539 19.279 66.6606 19.2557 66.6772 19.2424Z"></path>
<path fill="#091A23" d="M69.0741 20.1293C69.1505 20.1223 69.1437 20.0623 69.087 20.0423C69.0234 20.0222 68.9062 20.059 68.8694 20.1661C68.9305 20.1103 68.9999 20.1199 69.0461 20.1262C69.0568 20.1277 69.0663 20.129 69.0741 20.1293Z"></path>
<path fill="#091A23" d="M67.2463 19.8014C67.2999 19.8784 67.3233 19.8315 67.3233 19.8315C67.33 19.6809 67.1593 19.527 67.0522 19.6977C67.1697 19.6946 67.2186 19.7629 67.2412 19.7944C67.2431 19.797 67.2448 19.7994 67.2463 19.8014Z"></path>
<path fill="#091A23" d="M68.7156 20.146C68.7289 20.1661 68.7122 20.2564 68.6319 20.2196C68.5549 20.1795 68.478 20.1762 68.4044 20.2129C68.508 20.0322 68.672 20.0891 68.7156 20.1493V20.146Z"></path>
<path fill="#091A23" d="M68.1851 20.2598C68.2186 20.28 68.2721 20.28 68.2621 20.2331C68.2253 20.0591 67.9508 20.1025 67.9374 20.2264C67.9341 20.2364 67.9341 20.2532 67.9542 20.2431C68.0244 20.2096 68.1483 20.2364 68.1851 20.2598Z"></path>
<path fill="#091A23" d="M67.7634 20.1594C67.7534 20.2096 67.6931 20.1762 67.663 20.1527C67.6329 20.1293 67.4923 20.0791 67.4421 20.0825L67.4321 20.0624C67.5794 19.8716 67.7835 20.0758 67.7634 20.1594Z"></path>
<path fill="#091A23" d="M70.1817 19.2639C70.1904 19.1878 70.1948 19.1113 70.1948 19.035C70.1948 18.3958 69.8868 17.7699 69.3213 17.3884C68.9833 17.1608 68.6017 17.0537 68.2235 17.0537C67.5818 17.0537 66.9501 17.3641 66.5617 17.9417L66.5602 17.9406C66.3293 18.2853 66.2188 18.6736 66.2188 19.0618V19.0651C66.2188 19.1758 66.2281 19.2854 66.2463 19.393C66.3245 19.8618 66.5689 20.3008 66.9625 20.6136C67.1508 20.7645 67.37 20.8834 67.6144 20.9593C67.8119 21.0196 68.0093 21.0497 68.2068 21.0497C69.0535 21.0497 69.8367 20.5042 70.101 19.6541C70.1429 19.5241 70.1689 19.394 70.1817 19.2639ZM66.7417 17.829C67.1027 17.4003 67.6403 17.1474 68.2068 17.1474C68.3942 17.1474 68.5883 17.1742 68.7757 17.2344C69.5154 17.4639 70.0154 18.1018 70.1062 18.824C70.1139 18.8939 70.1178 18.9644 70.1178 19.035C70.1178 19.4031 70.0107 19.778 69.7898 20.1093C69.4183 20.6649 68.8092 20.9661 68.1901 20.9661C67.8252 20.9661 67.4605 20.8623 67.1358 20.6448C66.5903 20.28 66.2958 19.6776 66.2958 19.0618C66.2958 18.6903 66.4029 18.3188 66.6271 17.9841L66.6263 17.9837C66.6626 17.9297 66.7011 17.878 66.7417 17.829Z" clip-rule="evenodd" fill-rule="evenodd"></path>
<path fill="#8A99A0" d="M71.5302 16.5282C71.4666 15.0389 70.2083 13.8842 68.719 13.9478C67.2297 14.0114 66.075 15.2698 66.1386 16.7591C66.2022 18.2484 67.4606 19.4031 68.9499 19.3395C70.4392 19.2759 71.5939 18.0175 71.5302 16.5282Z"></path>
<path fill="#091A23" d="M68.1969 17.9069C68.1969 18.342 68.0965 18.767 67.9057 19.1519H67.9023L67.7149 19.0582C67.8923 18.7035 67.986 18.3085 67.986 17.9069C67.986 17.5656 67.9191 17.2208 67.7751 16.8928L67.966 16.8092C68.1232 17.1639 68.1969 17.5387 68.1969 17.9069Z"></path>
<path fill="#091A23" d="M70.1981 16.866C70.4324 17.2878 70.7838 17.619 71.1988 17.8299L71.1051 18.014C70.6566 17.7864 70.2751 17.425 70.0174 16.9664L70.1981 16.866Z"></path>
<path fill="#091A23" d="M67.7314 17.2712L67.9891 17.2477L68.3706 17.0235C68.4209 16.9934 68.4376 16.9298 68.4075 16.8829C68.3773 16.8327 68.3137 16.816 68.2669 16.8461L67.9255 17.0469L67.7147 17.0636C67.6578 17.067 67.6143 17.1172 67.621 17.1774C67.6277 17.2377 67.6779 17.2779 67.7348 17.2712H67.7314Z"></path>
<path fill="#091A23" d="M70.2048 16.9967L70.3788 16.8695H70.3754C70.4256 16.836 70.4893 16.8461 70.5227 16.8929C70.5562 16.9398 70.5462 17.0034 70.4993 17.0368L70.2885 17.1908L69.86 17.2677C69.8031 17.2778 69.7497 17.241 69.7396 17.1841C69.7295 17.1272 69.7664 17.0737 69.8233 17.0636L70.2048 16.9967Z"></path>
<path fill="#091A23" d="M70.4223 17.2543L70.5763 17.1037L70.5729 17.107C70.6131 17.0669 70.68 17.0669 70.7202 17.107C70.7603 17.1472 70.7603 17.2142 70.7202 17.2543L70.5327 17.4384L70.1211 17.5823C70.0675 17.6024 70.0106 17.5722 69.9906 17.5188C69.9705 17.4619 70.0006 17.405 70.0542 17.3848L70.4223 17.2543Z"></path>
<path fill="#091A23" d="M70.844 17.3782L70.7001 17.5388L70.3387 17.6928C70.2851 17.7162 70.2617 17.7764 70.2818 17.83C70.3052 17.8836 70.3654 17.907 70.419 17.8869L70.8239 17.7162L70.9979 17.5188C71.0348 17.4753 71.0314 17.4117 70.9879 17.3715C70.9445 17.3347 70.8808 17.3381 70.8407 17.3782H70.844Z"></path>
<path fill="#091A23" d="M70.988 17.7864L71.1018 17.6024V17.599C71.1319 17.5522 71.1955 17.5354 71.2457 17.5655C71.2925 17.5957 71.3093 17.6593 71.2791 17.7095L71.1419 17.9337L70.7738 18.1747C70.7269 18.2048 70.66 18.1914 70.6299 18.1446C70.5997 18.0977 70.6131 18.0308 70.66 18.0006L70.988 17.7864Z"></path>
<path fill="#091A23" d="M67.8152 17.6492L67.8118 17.6459C67.7549 17.6459 67.7081 17.599 67.7081 17.5421C67.7114 17.4852 67.7583 17.4417 67.8152 17.4417H68.026L68.3841 17.2744C68.4343 17.251 68.4979 17.2744 68.5213 17.3246C68.5447 17.3748 68.5247 17.4384 68.4711 17.4618L68.0728 17.6492H67.8152Z"></path>
<path fill="#091A23" d="M67.8353 18.0141L68.0662 18.0475H68.0896L68.508 17.917C68.5615 17.9003 68.5916 17.8401 68.5749 17.7865C68.5581 17.733 68.4979 17.7028 68.4443 17.7195L68.0695 17.8401L67.862 17.8099C67.8051 17.8032 67.7516 17.8401 67.7449 17.897C67.7349 17.9539 67.775 18.0073 67.8319 18.0141H67.8353Z"></path>
<path fill="#091A23" d="M68.0025 18.4157L67.775 18.3655C67.7214 18.3521 67.6846 18.2986 67.6979 18.2417C67.7113 18.1881 67.7682 18.1514 67.8218 18.1647L68.0259 18.2116L68.4075 18.1212C68.461 18.1079 68.5179 18.1413 68.5313 18.1982C68.5447 18.2517 68.5113 18.3086 68.4544 18.3221L68.0259 18.4224L68.0025 18.4157Z"></path>
<path fill="#091A23" d="M67.7215 18.7269L67.9491 18.7838L67.9725 18.7905L68.4009 18.7001C68.4578 18.6901 68.4946 18.6332 68.4812 18.5763C68.4678 18.5194 68.4143 18.4826 68.3574 18.496L67.9758 18.5763L67.7717 18.5227C67.7182 18.5093 67.6613 18.5428 67.6445 18.5964C67.6311 18.6533 67.6646 18.7068 67.7182 18.7236L67.7215 18.7269Z"></path>
<path fill="#091A23" d="M67.8285 19.1119L67.6143 19.0182L67.6077 19.0215C67.5541 18.9981 67.5307 18.9379 67.5541 18.8843C67.5776 18.8308 67.6378 18.8074 67.6914 18.8308L67.8854 18.9145L68.277 18.8944C68.3373 18.8944 68.3875 18.9379 68.3875 18.9948C68.3908 19.0517 68.3473 19.1019 68.2904 19.1019L67.8519 19.1219L67.8285 19.1119Z"></path>
<path fill="#091A23" d="M71.5302 16.5282H71.6039C71.5402 15.0354 70.3153 13.8741 68.8361 13.8741C68.7959 13.8741 68.7557 13.8741 68.7156 13.8741C67.2263 13.9377 66.0616 15.166 66.0616 16.642C66.0616 16.6821 66.0616 16.7222 66.0616 16.7624C66.1252 18.2517 67.3535 19.4164 68.826 19.4164C68.8662 19.4164 68.9063 19.4164 68.9465 19.4164C70.4358 19.3528 71.6005 18.1246 71.6005 16.6486C71.6005 16.6085 71.6005 16.5683 71.6005 16.5282H71.5269L71.4532 16.5348C71.4532 16.5716 71.4532 16.6118 71.4532 16.6486C71.4532 18.0475 70.3522 19.2089 68.9398 19.2692C68.8997 19.2692 68.8628 19.2692 68.826 19.2692C67.4271 19.2692 66.2658 18.1647 66.2055 16.7557C66.2055 16.7189 66.2055 16.6787 66.2055 16.642C66.2055 15.243 67.3099 14.0817 68.7189 14.0214C68.7591 14.0214 68.7959 14.0214 68.8327 14.0214C70.2316 14.0214 71.393 15.1258 71.4532 16.5348H71.5269L71.5302 16.5282Z"></path>
<path fill="#8A99A0" d="M72.049 13.8575C71.972 12.0703 70.4626 10.6847 68.6755 10.7617C66.8882 10.8387 65.5027 12.3481 65.5797 14.1353C65.6567 15.9225 67.166 17.308 68.9532 17.2311C70.7404 17.154 72.1259 15.6447 72.049 13.8575Z"></path>
<path fill="#091A23" d="M72.1026 13.8676V14.0048C72.1026 15.7686 70.7137 17.2344 68.9332 17.3114H68.7893C67.0289 17.3114 65.563 15.9191 65.486 14.142V13.9981C65.486 12.2377 66.8783 10.7718 68.6554 10.6948H68.7993C70.5609 10.6948 72.0219 12.0836 72.1023 13.8609L72.1026 13.8676ZM71.8829 13.315C71.5668 11.8881 70.295 10.8387 68.796 10.8387H68.6588C66.9586 10.9124 65.6299 12.3113 65.6299 13.9981V14.1353C65.654 14.6917 65.8201 15.2083 66.0917 15.6516L66.3161 14.9218L66.3367 14.9279L66.3347 14.922L66.3227 14.9185L66.3277 14.9017L65.7939 13.3354L65.9312 13.2886L66.4634 14.8503L67.2461 14.8424L67.8558 14.4701L68.0229 13.1145L69.4185 12.8568L70.0031 14.1362L70.8946 14.2344L71.374 13.264L70.6969 12.0771L70.8241 12.0068L71.5094 13.2054L71.8829 13.315ZM66.9681 16.5866C67.4847 16.9511 68.1139 17.1641 68.7893 17.1641H68.8885L68.5549 16.612L68.5559 16.6114L68.5537 16.6078L67.4029 16.2373L66.9681 16.5866ZM70.52 16.6535C71.067 16.2962 71.4946 15.775 71.7361 15.1624L71.7216 15.1682L70.5548 16.5235L70.52 16.6535ZM69.0947 15.1305L67.9562 14.6304L67.352 14.9981L67.4838 16.1085L68.6004 16.4711L69.3097 15.8594L69.0947 15.1305ZM70.5279 16.3328L71.5201 15.1803L70.9106 14.3819L70.0266 14.2846L69.2556 14.9986L69.4947 15.8089L70.5279 16.3328Z" clip-rule="evenodd" fill-rule="evenodd"></path>
<path fill="#8A99A0" d="M67.8586 14.8783C70.0323 14.8783 71.7944 13.1162 71.7944 10.9425C71.7944 8.76883 70.0323 7.00671 67.8586 7.00671C65.6849 7.00671 63.9227 8.76883 63.9227 10.9425C63.9227 13.1162 65.6849 14.8783 67.8586 14.8783Z"></path>
<path fill="#091A23" d="M64.2466 12.6512C64.4593 13.1209 64.7578 13.5318 65.1239 13.8705C65.5626 14.2855 66.1027 14.6068 66.7208 14.7913L66.7214 14.7891C67.0984 14.9021 67.4785 14.9553 67.852 14.9553C69.5655 14.9553 71.1486 13.8374 71.664 12.1105C71.7778 11.7323 71.828 11.3508 71.828 10.976C71.828 9.26242 70.7101 7.67939 68.9832 7.16734C68.605 7.05355 68.2235 7 67.8487 7C66.1351 7 64.5521 8.11782 64.04 9.84476C63.9262 10.2229 63.876 10.6045 63.876 10.9793C63.876 11.5642 64.0063 12.134 64.2466 12.6512ZM66.1319 14.4073C66.3295 14.506 66.5385 14.5889 66.7576 14.6541C67.1224 14.7645 67.4906 14.8147 67.852 14.8147C68.2695 14.8147 68.679 14.746 69.0657 14.6164L66.4631 7.40106C65.581 7.74401 64.8331 8.40912 64.4017 9.2977C64.4305 9.29385 64.4616 9.2909 64.4985 9.28942V9.28583H64.619C66.0949 9.28583 67.3232 10.4505 67.3868 11.9398V12.0503C67.3868 12.9985 66.8647 13.8969 66.1319 14.4073ZM65.0462 13.5958C65.3209 13.8863 65.6432 14.1299 66.0034 14.3197C66.7213 13.8453 67.2396 12.9656 67.2396 12.0503V11.9465C67.2328 11.7872 67.2119 11.6319 67.1782 11.4815L64.4014 12.6482C64.4579 12.7682 64.5202 12.8841 64.5881 12.9956C64.7204 13.2095 64.8737 13.4107 65.0462 13.5958ZM64.342 12.5153C64.1546 12.073 64.0445 11.5775 64.0267 11.0395V10.9324C64.0267 10.4109 64.1442 9.91478 64.3327 9.45332L64.3364 9.45273C64.3978 9.44296 64.4426 9.43581 64.5052 9.43309H64.619C65.8093 9.43309 66.8276 10.2326 67.142 11.339L64.342 12.5153ZM66.5973 7.35173L69.2033 14.5674C70.2032 14.1895 71.0351 13.3993 71.4363 12.3388C71.3547 12.3503 71.2711 12.3589 71.1854 12.3615H71.0649C69.589 12.3615 68.3607 11.1969 68.2971 9.70754V9.57701C68.2971 8.70852 68.6718 7.93751 69.3079 7.42964C69.1897 7.38129 69.0681 7.33835 68.943 7.30121C68.5783 7.19076 68.2102 7.14057 67.8487 7.14057C67.4175 7.14057 66.9951 7.21384 66.5973 7.35173ZM69.451 7.51061C68.8189 7.98727 68.441 8.73542 68.441 9.58371V9.70754C68.4536 10.0015 68.5141 10.2822 68.6147 10.5424L71.3228 9.40496C70.9441 8.57209 70.2698 7.90255 69.451 7.51061ZM71.0615 12.221C70.0053 12.221 69.0846 11.5914 68.6709 10.6765L71.3799 9.53737C71.5368 9.92135 71.6317 10.3375 71.6506 10.7752C71.6506 10.8036 71.6515 10.8312 71.6522 10.8588C71.6531 10.8864 71.654 10.914 71.654 10.9425C71.654 11.3794 71.5788 11.8007 71.4407 12.1942C71.3537 12.207 71.2645 12.2152 71.1753 12.221H71.0615Z" clip-rule="evenodd" fill-rule="evenodd"></path>
</svg>
