<svg xmlns="http://www.w3.org/2000/svg" fill="none" viewBox="0 0 84 45" height="45" width="84">
<g clip-path="url(#clip0_433_2360)">
<path fill="#8A99A0" d="M75.0015 22.1457H72.26C70.4913 22.1457 69.5185 23.4747 69.5185 25.7781V34.0175H64.2124V22.1457H62.0015C60.2328 22.1457 59.2601 23.4747 59.2601 25.7781V34.0175H53.954V17.716H59.2601V20.1966C60.1444 18.2475 61.2941 17.716 63.0628 17.716H69.5185V20.1966C70.4029 18.2475 71.5525 17.716 73.3212 17.716H75.0899L75.0015 22.1457ZM52.7159 27.1071H41.75C42.0153 28.9676 43.1649 29.9421 45.0221 29.9421C46.437 29.9421 47.4098 29.322 47.7635 28.3474L52.4506 29.6763C51.3009 32.5114 48.471 34.1947 45.0221 34.1947C39.2738 34.1947 36.6207 29.6763 36.6207 25.7781C36.6207 21.9685 38.92 17.4502 44.6683 17.4502C50.7703 17.4502 52.8043 22.0571 52.8043 25.5124C52.8043 26.3097 52.8043 26.7527 52.7159 27.1071ZM47.6751 24.0062C47.5867 22.5887 46.5254 21.3484 44.7567 21.3484C43.0765 21.3484 42.1037 22.0571 41.75 24.0062H47.6751ZM27.4235 34.0175H32.0221L37.8588 17.8046H32.5527L29.7228 27.2843L26.8929 17.716H21.5868L27.4235 34.0175ZM5.84541 34.0175H11.0631V22.1457H16.1039V34.0175H21.3215V17.716H11.0631V16.7414C11.0631 15.6783 11.859 14.9695 13.0086 14.9695H16.1039V10.5397H12.2127C8.41002 10.5397 5.84541 12.9318 5.84541 16.387V17.716H2.83862V22.1457H5.84541V34.0175Z"></path>
<path fill="#8A99A0" d="M78.2736 34.4606C80.0423 34.4606 81.5456 32.9545 81.5456 31.1826C81.5456 29.4107 80.0423 27.9045 78.2736 27.9045C76.5049 27.9045 75.0015 29.4107 75.0015 31.1826C75.0015 32.9545 76.5049 34.4606 78.2736 34.4606Z"></path>
</g>
<defs>
<clipPath id="clip0_433_2360">
<rect transform="translate(2.83862 10.5396)" fill="white" height="23.9208" width="78.707"></rect>
</clipPath>
</defs>
</svg>
