<svg xmlns="http://www.w3.org/2000/svg" fill="none" viewBox="0 0 78 45" height="45" width="78">
<g clip-path="url(#clip0_433_2352)">
<mask height="27" width="66" y="9" x="6" maskUnits="userSpaceOnUse" style="mask-type:luminance" id="mask0_433_2352">
<path fill="white" d="M71.8686 9.33655H6.51755V35.1543H71.8686V9.33655Z"></path>
</mask>
<g mask="url(#mask0_433_2352)">
<path fill="#8A99A0" d="M6.51755 9.33655V11.1029H19.238V9.33655H6.51755ZM21.0402 9.33655V11.1029H39.1675C39.1675 11.1029 37.3159 9.33655 34.8636 9.33655H21.0402ZM42.7235 9.33655V11.1029H53.6902L53.0393 9.33655H42.7235ZM61.5528 9.33655L60.9018 11.1029H71.7689V9.33655H61.5528ZM6.51755 12.7717V14.5381H19.238V12.7717H6.51755ZM21.0402 12.7742V14.5382H41.271C41.271 14.5382 41.0347 13.1787 40.6225 12.7742H21.0402ZM42.7235 12.7742V14.5382H54.8926L54.2901 12.7742H42.7235ZM60.2509 12.7742L59.6484 14.5382H71.7689V12.7742H60.2509ZM10.1731 16.2069V17.9758H15.682V16.2069H10.1731ZM24.6958 16.2069V17.9758H30.2048V16.2069H24.6958ZM35.563 16.2069V17.9758H41.0719C41.0719 17.9758 41.4217 17.0416 41.4217 16.2069H35.563ZM46.3791 16.2069V17.9758H56.146L55.4951 16.2069H46.3791ZM59.0511 16.2069L58.3976 17.9758H68.213V16.2069H59.0511ZM10.1731 19.6447V21.411H15.682V19.6447H10.1731ZM24.6958 19.6447V21.411H38.7667C38.7667 21.411 39.9438 20.5047 40.3188 19.6447H24.6958ZM46.3791 19.6447V21.411H51.8881V20.4278L52.2378 21.411H62.3289L62.7041 20.4278V21.411H68.213V19.6447H57.8717L57.3228 21.1408L56.7714 19.6447H46.3791ZM10.1731 23.0798V24.8462H15.682V23.0798H10.1731ZM24.6958 23.0798V24.8462H40.3188C39.9437 23.989 38.7667 23.0798 38.7667 23.0798H24.6958ZM46.3791 23.0798V24.8462H51.8881V23.0798H46.3791ZM52.8887 23.0798L53.5549 24.8462H61.1214L61.7545 23.0798H52.8887ZM62.704 23.0798V24.8462H68.213V23.0798H62.704ZM10.1731 26.515V28.2813H15.682V26.515H10.1731ZM24.6958 26.515V28.2813H30.2048V26.515H24.6958ZM35.563 26.515V28.2813H41.4216C41.4216 27.4478 41.0718 26.515 41.0718 26.515H35.563ZM46.3791 26.515V28.2813H51.8881V26.515H46.3791ZM54.1395 26.515L54.7854 28.2813H59.8577L60.5087 26.515H54.1395ZM62.704 26.515V28.2813H68.213V26.515H62.704ZM6.61708 29.9502V31.7191H19.3376V29.9502H6.61708ZM21.0402 29.9502V31.7191H40.6225C41.0347 31.314 41.271 29.9502 41.271 29.9502H21.0402ZM42.8231 29.9502V31.7191H51.8881V29.9502H42.8231ZM55.3929 29.9502L56.0566 31.7191H58.6375L59.2604 29.9502H55.3929ZM62.704 29.9502V31.7191H71.8686V29.9502H62.704ZM6.61708 33.3879V35.1543H19.3376V33.3879H6.61708ZM21.0402 33.3879V35.1517H34.8636C37.3159 35.1517 39.1675 33.3879 39.1675 33.3879H21.0402ZM42.8231 33.3879V35.1543H51.8881V33.3879H42.8231ZM56.6514 33.3879L57.2896 35.1492L57.3994 35.1517L58.0479 33.3879H56.6514ZM62.704 33.3879V35.1543H71.8686V33.3879H62.704Z"></path>
</g>
</g>
<defs>
<clipPath id="clip0_433_2352">
<rect transform="translate(6.49548 9.33636)" fill="white" height="26.3273" width="65.3935"></rect>
</clipPath>
</defs>
</svg>
