<svg xmlns="http://www.w3.org/2000/svg" fill="none" viewBox="0 0 77 45" height="45" width="77">
<g clip-path="url(#clip0_433_2362)">
<path fill="#8A99A0" d="M9.56968 9.65778H4.63965V14.5878H9.56968V9.65778Z"></path>
<path fill="#8A99A0" d="M9.44567 35.3427V17.5876H4.77881V35.3427H9.44567ZM40.4645 35.5182V31.1671C39.7803 31.1671 39.2013 31.132 38.7802 31.0619C38.289 30.9917 37.9206 30.8162 37.6749 30.5706C37.4293 30.325 37.2714 29.9741 37.1837 29.5179C37.1135 29.0793 37.0784 28.5003 37.0784 27.7986V21.5878H40.4645V17.5876H37.0784V10.6575H32.394V27.8336C32.394 29.2898 32.5168 30.518 32.7624 31.5005C33.0081 32.4654 33.4291 33.2549 34.0081 33.8514C34.5871 34.448 35.359 34.869 36.2889 35.1322C37.2363 35.3954 38.4293 35.5182 39.8505 35.5182H40.4645ZM67.2727 35.3427V9.289H62.5883V35.3427H67.2727ZM27.885 19.3245C26.5867 17.9209 24.7621 17.2192 22.4462 17.2192C21.3234 17.2192 20.3058 17.4472 19.3759 17.9034C18.4636 18.3596 17.6741 18.9912 17.06 19.7982L16.7969 20.1316V19.8333V17.5876H12.1826V35.3427H16.8319V25.8862V26.5353C16.8319 26.4301 16.8319 26.3248 16.8319 26.2195C16.8846 24.5528 17.2881 23.3247 18.0601 22.5352C18.8847 21.693 19.8847 21.272 21.0251 21.272C22.376 21.272 23.4112 21.693 24.0954 22.5001C24.7621 23.3071 25.113 24.4475 25.113 25.9037V25.9388V35.3252H29.8325V25.2546C29.85 22.7282 29.1833 20.7281 27.885 19.3245ZM60.1671 26.4301C60.1671 25.1493 59.939 23.9563 59.5004 22.8334C59.0443 21.7281 58.4126 20.7456 57.6231 19.9035C56.8161 19.0613 55.8511 18.4122 54.7283 17.9385C53.6054 17.4648 52.3598 17.2367 51.0088 17.2367C49.7281 17.2367 48.5175 17.4823 47.3946 17.956C46.2718 18.4473 45.2893 19.0964 44.4647 19.921C43.6401 20.7456 42.9734 21.7281 42.4997 22.851C42.0084 23.9738 41.7804 25.1844 41.7804 26.4652C41.7804 27.7459 42.0084 28.9565 42.4646 30.0794C42.9208 31.2022 43.5699 32.1847 44.377 33.0093C45.184 33.8339 46.1841 34.5006 47.342 34.9743C48.4999 35.4655 49.7807 35.7112 51.1492 35.7112C55.1143 35.7112 57.5705 33.9041 59.0443 32.2198L55.6757 29.6583C54.9739 30.5004 53.2896 31.6408 51.1843 31.6408C49.8684 31.6408 48.7807 31.3426 47.9561 30.7285C47.1315 30.132 46.57 29.2898 46.2718 28.2547L46.2192 28.0968H60.1671V26.4301ZM46.2542 24.7984C46.2542 23.5001 47.7455 21.2369 50.9562 21.2193C54.1669 21.2193 55.6757 23.4826 55.6757 24.7809L46.2542 24.7984Z"></path>
<path fill="#8A99A0" d="M72.6076 33.0269C72.5199 32.8164 72.3971 32.6409 72.2391 32.483C72.0812 32.3251 71.9058 32.2023 71.6953 32.1146C71.4847 32.0269 71.2567 31.9742 71.0286 31.9742C70.7829 31.9742 70.5724 32.0269 70.3619 32.1146C70.1513 32.2023 69.9759 32.3251 69.818 32.483C69.6601 32.6409 69.5373 32.8164 69.4496 33.0269C69.3618 33.2375 69.3092 33.4655 69.3092 33.6936C69.3092 33.9392 69.3618 34.1498 69.4496 34.3603C69.5373 34.5708 69.6601 34.7463 69.818 34.9042C69.9759 35.0621 70.1513 35.1849 70.3619 35.2726C70.5724 35.3604 70.8005 35.413 71.0286 35.413C71.2742 35.413 71.4847 35.3604 71.6953 35.2726C71.9058 35.1849 72.0812 35.0621 72.2391 34.9042C72.3971 34.7463 72.5199 34.5708 72.6076 34.3603C72.6953 34.1498 72.7479 33.9217 72.7479 33.6936C72.7479 33.4655 72.6953 33.2375 72.6076 33.0269ZM72.3269 34.255C72.2567 34.4305 72.1514 34.5884 72.0286 34.7112C71.9058 34.834 71.7479 34.9393 71.5725 35.0095C71.397 35.0796 71.2216 35.1147 71.011 35.1147C70.818 35.1147 70.625 35.0796 70.4496 35.0095C70.2742 34.9393 70.1163 34.834 69.9934 34.7112C69.8706 34.5884 69.7654 34.4305 69.6952 34.255C69.625 34.0796 69.5899 33.9041 69.5899 33.6936C69.5899 33.5006 69.625 33.3076 69.6952 33.1322C69.7654 32.9567 69.8706 32.7988 69.9934 32.676C70.1163 32.5532 70.2742 32.4479 70.4496 32.3778C70.625 32.3076 70.8005 32.2725 71.011 32.2725C71.204 32.2725 71.397 32.3076 71.5725 32.3778C71.7479 32.4479 71.9058 32.5532 72.0286 32.676C72.1514 32.7988 72.2567 32.9567 72.3269 33.1322C72.3971 33.3076 72.4321 33.4831 72.4321 33.6936C72.4497 33.9041 72.3971 34.0796 72.3269 34.255ZM71.3444 33.834C71.4847 33.8164 71.59 33.7638 71.6777 33.6761C71.7654 33.5883 71.8181 33.4655 71.8181 33.2901C71.8181 33.0971 71.7654 32.9567 71.6426 32.8515C71.5374 32.7462 71.3444 32.6936 71.1163 32.6936H70.3443V34.6761H70.7128V33.8691H70.9759L71.4672 34.6761H71.8532L71.3444 33.834ZM71.1514 33.5533C71.0988 33.5533 71.0461 33.5533 70.9759 33.5533H70.7128V32.9918H70.9759C71.0286 32.9918 71.0812 32.9918 71.1514 32.9918C71.204 32.9918 71.2567 33.0094 71.3093 33.0269C71.3619 33.0445 71.397 33.0796 71.4146 33.1146C71.4321 33.1497 71.4496 33.2024 71.4496 33.2725C71.4496 33.3427 71.4321 33.3954 71.4146 33.4304C71.3795 33.4655 71.3444 33.5006 71.3093 33.5182C71.2567 33.5357 71.204 33.5533 71.1514 33.5533Z"></path>
</g>
<defs>
<clipPath id="clip0_433_2362">
<rect transform="translate(4.63806 9.28894)" fill="white" height="26.4222" width="68.1081"></rect>
</clipPath>
</defs>
</svg>
