<svg xmlns="http://www.w3.org/2000/svg" fill="none" viewBox="0 0 85 45" height="45" width="85">
<g clip-path="url(#clip0_433_2355)">
<mask height="27" width="81" y="9" x="2" maskUnits="userSpaceOnUse" style="mask-type:luminance" id="mask0_433_2355">
<path fill="white" d="M82.6083 9.33673H2.77734V35.664H82.6083V9.33673Z"></path>
</mask>
<g mask="url(#mask0_433_2355)">
<path fill="#8A99A0" d="M5.29394 15.3763H8.27874V31.4795C8.27874 33.9835 6.46445 35.664 3.94858 35.664H2.77734V32.835H3.62596C4.65016 32.835 5.29321 32.3628 5.29321 31.2444L5.29394 15.3763ZM5.29394 9.33673H8.27874V12.3425H5.29394V9.33673Z"></path>
<path fill="#8A99A0" d="M13.1886 21.5057C13.2472 19.2367 14.5633 18.0284 16.319 18.0284C18.0748 18.0284 19.3624 19.2367 19.4509 21.5057H13.1886ZM22.4335 23.9811V21.5057C22.4335 17.6446 19.5958 15.2002 16.3184 15.2002C13.4513 15.2002 10.2039 17.0862 10.2039 22.8908C10.2039 29.018 13.7439 30.4922 16.7872 30.4922C18.7771 30.4922 20.6792 29.785 22.1416 28.0765L19.9761 26.2207C19.0983 27.1342 17.8693 27.6639 16.728 27.6639C14.6811 27.6639 13.1886 26.427 13.1886 23.9818L22.4335 23.9811Z"></path>
<path fill="#8A99A0" d="M24.7981 10.8387H27.7829V15.3762H29.9483V17.674H27.7829V26.3665C27.7829 27.1923 28.1048 27.4856 28.8364 27.4856H29.9483V30.3146H28.3974C26.3205 30.3146 24.7988 28.9884 24.7988 26.6317V17.674H23.3071V15.3762H24.7988L24.7981 10.8387Z"></path>
<path fill="#8A99A0" d="M39.8668 21.0043C42.207 21.0043 43.2605 22.5072 43.2605 24.1574C43.2605 25.8077 42.207 27.3105 39.8668 27.3105H35.0099V21.0043H39.8668ZM31.8494 30.3149H40.6268C43.7565 30.3149 46.4194 27.9876 46.4194 24.3637C46.4194 22.2419 45.3066 20.0613 43.0257 19.5316V19.4734C45.4537 18.383 46.0982 16.7041 46.0982 14.9654C46.0982 11.6649 43.9906 9.33765 39.9238 9.33765H31.8488V30.3157M39.5741 12.1666C41.8551 12.1666 42.9386 13.5509 42.9386 15.1702C42.9386 16.7895 41.8551 18.176 39.5741 18.176H35.0091V12.1666H39.5741Z"></path>
<path fill="#8A99A0" d="M48.1362 9.33667H51.121V26.455C51.121 27.1335 51.5014 27.4857 52.2329 27.4857H53.2572V30.3147H51.941C49.7756 30.3147 48.1369 29.3724 48.1369 26.6915L48.1362 9.33667Z"></path>
<path fill="#8A99A0" d="M54.5153 15.3763H57.5001V24.2751C57.5001 26.3077 58.7577 27.4857 60.4556 27.4857C62.1536 27.4857 63.3804 26.3077 63.3804 24.2751V15.3763H66.366V30.3147H63.3804V28.7249H63.3227C62.3863 29.9029 61.0402 30.4922 59.49 30.4922C57.1497 30.4922 54.5153 28.6947 54.5153 25.3065V15.3763Z"></path>
<path fill="#8A99A0" d="M70.9514 21.5058C71.0106 19.2367 72.326 18.0285 74.0825 18.0285C75.839 18.0285 77.1258 19.2367 77.2136 21.5058H70.9514ZM80.1969 23.9811V21.5058C80.1969 17.6447 77.3592 15.2003 74.0825 15.2003C71.2148 15.2003 67.9673 17.0862 67.9673 22.8909C67.9673 29.0181 71.5073 30.4923 74.55 30.4923C76.5406 30.4923 78.4419 29.785 79.9051 28.0766L77.7396 26.2207C76.8625 27.1343 75.6327 27.664 74.4922 27.664C72.4453 27.664 70.9521 26.427 70.9521 23.9819H80.1977L80.1969 23.9811Z"></path>
<path fill="#8A99A0" d="M81.2879 15.1183C82.0158 15.1183 82.6084 15.7129 82.6084 16.4474C82.6084 17.1819 82.0165 17.7764 81.2879 17.7764C80.5593 17.7764 79.9667 17.1826 79.9667 16.4474C79.9667 15.7121 80.5585 15.1183 81.2879 15.1183ZM81.2879 17.5127C81.8819 17.5127 82.3231 17.0677 82.3231 16.4474C82.3231 15.8271 81.8827 15.3828 81.2879 15.3828C80.6931 15.3828 80.252 15.8271 80.252 16.4474C80.252 17.0677 80.6924 17.5127 81.2879 17.5127ZM80.7883 15.6363H81.372C81.7253 15.6363 81.901 15.7784 81.901 16.0982C81.901 16.4179 81.7217 16.5247 81.5073 16.5505L81.9478 17.1848H81.6419L81.2016 16.5572H81.0516V17.1848H80.7889L80.7883 15.6363ZM81.0502 16.3148H81.233C81.4437 16.3148 81.6368 16.3008 81.6368 16.0982C81.6368 15.9184 81.4613 15.8779 81.2901 15.8779H81.0502V16.3148Z"></path>
</g>
</g>
<defs>
<clipPath id="clip0_433_2355">
<rect transform="translate(2.77673 9.33636)" fill="white" height="26.3273" width="79.831"></rect>
</clipPath>
</defs>
</svg>
