<svg xmlns="http://www.w3.org/2000/svg" fill="none" viewBox="0 0 111 45" height="45" width="111">
<g clip-path="url(#clip0_433_2353)">
<mask height="23" width="106" y="11" x="3" maskUnits="userSpaceOnUse" style="mask-type:luminance" id="mask0_433_2353">
<path fill="white" d="M108.299 11.5579H3.08691V33.4421H108.299V11.5579Z"></path>
</mask>
<g mask="url(#mask0_433_2353)">
<path fill="#8A99A0" d="M14.1347 22.4394L14.6191 22.1592L20.679 26.3603L14.1347 22.4394ZM13.7865 22.2154L13.336 21.9532L13.8381 13.9348L13.7865 22.2154ZM13.2436 22.1882L11.2352 23.8687L13.6417 22.4333L13.2436 22.1882Z" clip-rule="evenodd" fill-rule="evenodd"></path>
<path fill="#8A99A0" d="M13.9088 11.5579C7.93245 11.5579 3.08691 16.4565 3.08691 22.5003C3.08691 28.544 7.93245 33.4426 13.9088 33.4426C19.8852 33.4426 24.7311 28.544 24.7311 22.5003C24.7311 16.4565 19.8856 11.5579 13.9088 11.5579ZM13.9097 32.859C11.4368 32.859 9.12269 32.0256 7.39868 30.495C5.72106 29.0052 4.41808 26.6382 4.09635 24.1216C4.85905 28.9066 8.9627 32.5618 13.9097 32.5618C19.3996 32.5618 23.8501 28.0617 23.8501 22.5108C23.8501 20.2077 22.9993 17.9524 21.7103 16.2579C23.0163 17.2764 24.1436 20.177 24.1436 22.5108C24.1436 28.2257 19.5613 32.859 13.9097 32.859ZM12.9701 21.7207L13.8451 12.6483H13.9088L13.9314 12.6479L14.0172 22.1951L15.5231 21.285L14.0081 12.6487C19.3441 12.7027 23.6541 17.0922 23.6541 22.5003C23.6541 24.2382 23.2088 25.87 22.4283 27.287L15.6645 21.5651L15.0241 21.9325L22.3823 27.369L22.326 27.4668L14.0511 22.6532V24.3513L22.2692 27.5628C20.5656 30.4323 17.4592 32.3531 13.9084 32.3531C10.3576 32.3531 7.25733 30.4363 5.55326 27.5715L13.7662 24.3338V22.6366L5.48171 27.4502L5.42708 27.3545L12.7593 21.9325L12.1189 21.5651L5.37375 27.2567C4.57808 25.8008 4.16225 24.1637 4.16485 22.5003C4.16442 17.1343 8.40638 12.7706 13.6843 12.6496L12.3643 21.3533L12.9701 21.7207ZM13.9088 12.1459C8.25635 12.1459 3.67445 16.7792 3.67445 22.4936C3.67445 24.8147 4.5074 27.0104 5.77786 28.9066C6.20843 29.7217 6.675 30.2258 7.29679 30.8918C4.85949 28.9232 3.28247 25.8933 3.28247 22.4932C3.28247 16.5595 8.03955 11.7491 13.9088 11.7491C19.7781 11.7491 24.6253 16.7691 24.451 22.4932C24.3036 16.9081 19.4677 12.1459 13.9088 12.1459ZM61.4458 23.2246C61.4458 21.3055 60.6068 19.7495 58.7644 19.7495C57.0543 19.7495 56.0817 21.3055 56.0817 23.2246C56.0817 25.1436 56.8943 26.6995 58.7644 26.6995C60.6345 26.6995 61.1141 25.7898 61.3929 24.3346L60.7668 24.3324C60.7139 24.8722 60.3657 26.0879 59.0315 26.1146C57.5091 26.1458 57.4029 24.1706 57.4289 23.2254L57.4553 22.6853C57.4553 22.0916 57.4024 20.3362 58.8173 20.3362C59.9386 20.3362 60.099 21.7949 60.099 22.6853H57.4553L57.4289 23.2254H61.4458V23.2246ZM29.8547 17.3584L29.8278 17.7906H30.228C30.5215 17.7906 30.8962 17.8174 30.8962 18.1953L30.763 25.5136C30.763 25.7837 30.6291 26.0805 30.0949 26.0805H29.6947L29.6678 26.5128H32.3648V26.0805H31.9108C31.5631 26.0805 31.3233 25.9726 31.3233 25.5136L31.4564 18.4926L34.3408 26.0533H34.6343L37.5451 18.4115L37.679 25.5136C37.679 25.7565 37.4384 26.0805 37.0642 26.0805H36.5036V26.5128H39.8952V26.0805H39.495C39.2014 26.0805 38.8537 25.9183 38.8537 25.5403L38.7197 18.3032C38.7197 18.0598 38.9868 17.7902 39.2539 17.7902H39.7612V17.3579H37.3305L34.8198 24.0005L32.3093 17.3579H29.8538L29.8547 17.3584ZM48.6415 26.5185V26.1677H48.3743C48.1341 26.1677 47.7066 26.0866 47.7066 25.6004V22.0631C47.7066 20.9561 48.2673 20.551 48.8279 20.551C49.0416 20.551 49.1756 20.6588 49.1214 21.0639C49.0681 21.4686 49.415 21.7391 49.709 21.7124C50.0029 21.6857 50.3772 21.6313 50.323 20.8755C50.2687 20.1196 49.8425 19.7684 49.0946 19.7684C48.5071 19.7684 48.0262 20.1463 47.8926 20.3357C47.7374 20.5558 47.5448 20.4704 47.5188 20.2279C47.4924 19.9849 47.3858 19.7421 47.1186 19.8232C46.6079 19.9885 46.0784 20.088 45.5429 20.12V20.3901C46.6642 20.3362 46.5579 20.9031 46.5579 21.1731V25.6017C46.5579 26.0879 46.1304 26.169 45.8898 26.169H45.516V26.5197H48.641L48.6415 26.5185ZM54.591 20.1788C54.1972 19.8881 53.7025 19.7215 53.1002 19.7215C51.3909 19.7215 50.4184 21.2775 50.4184 23.1969C50.4184 25.1164 51.2305 26.6627 53.1002 26.6719C54.7557 26.6803 55.1568 25.7354 55.4352 24.2798L54.809 24.2772C54.7557 24.8169 54.5688 26.0594 53.3673 26.0866C51.8453 26.1213 51.7387 24.1418 51.7651 23.1974C51.7651 22.6033 51.8453 20.2261 53.1271 20.2261C54.2215 20.2261 54.8897 21.0095 54.8897 21.9009H55.2365V19.6325H54.943L54.591 20.1788ZM93.2271 26.1138C91.7045 26.1449 91.5984 24.1698 91.6245 23.2246H95.6411C95.6411 21.3055 94.8028 19.7495 92.9594 19.7495C91.2508 19.7495 90.2786 21.3055 90.2786 23.2246C90.2786 25.1436 91.09 26.6995 92.9594 26.6995C94.8297 26.6995 95.3103 25.7898 95.5881 24.3346L94.9635 24.332C94.9097 24.8722 94.562 26.0875 93.2271 26.1138ZM93.0133 20.3353C94.1344 20.3353 94.2952 21.7939 94.2952 22.6844H91.6514C91.6514 22.0908 91.5984 20.3353 93.0133 20.3353ZM71.2708 26.1138C69.7485 26.1449 69.6422 24.1698 69.6682 23.2246H73.6852C73.6852 21.3055 72.8462 19.7495 71.0038 19.7495C69.2944 19.7495 68.321 21.3055 68.321 23.2246C68.321 25.1436 69.1336 26.6995 71.0038 26.6995C72.8739 26.6995 73.3535 25.7898 73.6322 24.3346L73.0062 24.332C72.9532 24.8722 72.6064 26.0875 71.2708 26.1138ZM71.0566 20.3353C72.1793 20.3353 72.3384 21.7939 72.3384 22.6844H69.6947C69.6947 22.0908 69.6422 20.3353 71.0566 20.3353ZM42.9265 26.1138C41.4045 26.1449 41.2979 24.1698 41.3243 23.2246H45.3413C45.3413 21.3055 44.5023 19.7495 42.6599 19.7495C40.9502 19.7495 39.978 21.3055 39.978 23.2246C39.978 25.1436 40.7902 26.6995 42.6599 26.6995C44.5296 26.6995 45.01 25.7898 45.2884 24.3346L44.6623 24.3324C44.6089 24.8722 44.2625 26.0879 42.9265 26.1138ZM42.7132 20.3353C43.835 20.3353 43.995 21.7939 43.995 22.6844H41.3513C41.3513 22.0908 41.2983 20.3353 42.7132 20.3353ZM67.2617 25.1085V17.5741C67.2617 17.2636 67.1026 17.0067 66.8342 17.0878C66.3234 17.2531 65.7944 17.3531 65.2589 17.3847V17.6547C66.0334 17.6008 66.1136 17.8441 66.1136 18.1142V20.4366C65.7667 20.1125 65.3656 19.7881 64.6454 19.7881C63.737 19.7881 62.0546 20.5172 62.0546 23.0821C62.0546 26.458 64.0045 26.6737 64.592 26.6737C65.1795 26.6737 65.954 26.1879 66.1144 25.931C66.1275 25.877 66.2077 25.8091 66.2341 25.931C66.2619 26.1743 66.4349 26.5382 66.7019 26.4575C67.2128 26.2927 67.7418 26.1927 68.2773 26.1607V25.8907C67.1555 25.9454 67.2617 25.3781 67.2617 25.1085ZM66.114 24.2982C66.0876 25.7827 65.3131 26.2422 64.6723 26.2422C63.2305 26.2155 63.3367 24.0015 63.3367 23.0557C63.3367 22.1101 63.3909 20.2471 64.6987 20.4094C66.0078 20.5716 66.1148 21.9755 66.1148 22.8124L66.114 24.2982ZM82.9392 22.6532V22.0325H79.4148V22.6532H82.9392ZM74.5584 24.2232V26.5185H74.8516L75.1187 25.9244C75.3857 26.1677 75.9468 26.5729 76.6675 26.5729C77.3882 26.5729 78.4041 26.1682 78.8052 25.4123C79.205 24.656 79.0185 23.4135 78.1101 23.0356C77.3148 22.7046 76.6177 22.3082 76.0804 22.0364C75.7374 21.8711 75.5419 21.498 75.6 21.1179C75.6802 20.6856 76.054 20.227 76.9081 20.1994C77.7628 20.1726 78.1899 20.9017 78.2979 21.7387H78.5909V19.579H78.3239L78.0299 20.0919C77.4697 19.714 77.229 19.6597 76.7217 19.6597C76.2144 19.6597 75.3597 19.9297 74.8789 20.686C74.3984 21.4424 74.532 22.6296 75.6806 23.1162C76.8283 23.602 77.3634 23.8993 77.6834 24.0615C78.0039 24.2238 78.1908 24.8717 77.9774 25.2501C77.7632 25.6275 77.3634 26.0603 76.7221 26.0603C76.0808 26.0603 75.0671 25.6009 74.8264 24.2242H74.5589L74.5584 24.2232ZM87.9589 21.5708C88.6011 21.4086 89.2416 20.2476 89.2416 19.4646C89.2416 18.6815 88.9479 17.3584 87.0775 17.3584H83.0718V17.7091C83.473 17.7091 84.1667 17.7902 84.1667 18.4654V25.1356C84.1667 25.5136 84.1403 26.1348 83.0718 26.1348V26.5128H86.3573C87.3445 26.5128 89.6154 26.4316 89.6692 23.7857C89.6692 22.8939 89.2416 21.8408 87.9589 21.5708ZM85.3153 17.7906H86.6508C87.639 17.7906 88.0389 18.5189 88.0389 19.4646C88.0389 20.6256 87.6921 21.5168 86.6508 21.5168H85.3153V17.7906ZM86.6772 26.0809H85.3153V21.9491H86.8377C87.7198 21.9491 88.4942 22.57 88.4942 23.9199C88.4942 25.2698 87.6916 26.0809 86.6772 26.0809ZM100.577 21.6041V25.6004C100.577 26.0866 100.149 26.1677 99.9085 26.1677H99.7477V26.5185H102.658V26.1677H102.392C102.151 26.1677 101.723 26.0866 101.723 25.6004V21.6313C101.697 19.8219 100.095 19.768 99.534 19.768C98.9734 19.768 98.3051 20.1459 98.1721 20.3353C98.0164 20.5554 97.8236 20.4698 97.7975 20.2274C97.7714 19.9849 97.6645 19.7417 97.396 19.8228C96.886 19.9881 96.3565 20.0875 95.8212 20.1196V20.3896C96.9424 20.3357 96.8363 20.9027 96.8363 21.1727V25.6013C96.8363 26.0874 96.4087 26.1686 96.168 26.1686H95.7943V26.5193H98.9187V26.1686H98.6519C98.4111 26.1686 97.9835 26.0874 97.9835 25.6013V22.064C97.9835 21.4704 98.1973 20.5247 99.2924 20.4436C100.389 20.3629 100.576 21.092 100.576 21.6045L100.577 21.6041ZM103.278 21.7391L103.758 19.903H108.299L104.4 26.141H106.483C106.964 26.141 107.337 25.9516 107.845 24.7091H108.059L107.631 26.5185H102.984L106.857 20.2809H105.12C104.693 20.2809 104.213 20.2809 103.545 21.7387L103.278 21.7391Z" clip-rule="evenodd" fill-rule="evenodd"></path>
</g>
</g>
<defs>
<clipPath id="clip0_433_2353">
<rect transform="translate(3.08594 11.5579)" fill="white" height="21.8842" width="105.213"></rect>
</clipPath>
</defs>
</svg>
