<svg xmlns="http://www.w3.org/2000/svg" fill="none" viewBox="0 0 101 45" height="45" width="101">
<path fill="#8A99A0" d="M36.1143 17.7678V23.4933L30.6203 17.7844L30.6037 17.7512H29.8756V27.2771H31.8448V21.6014L37.2727 27.2439L37.3058 27.2771H38.0836V17.7512H36.1143V17.7678ZM42.684 27.2771H44.6531V17.7512H42.684V27.2771ZM52.4143 17.7678L48.8069 27.161L48.7572 27.2771H50.8587L51.3884 25.8499H55.3435L55.8894 27.2771H57.9912L54.3506 17.8176L54.3339 17.7678H52.4143ZM53.4072 20.4895L54.6483 23.8086L52.1166 23.8418L53.4072 20.4895ZM68.2843 17.7678V23.4933L62.8068 17.7844L62.7902 17.7512H62.0621V27.2771H64.0314V21.6014L69.4592 27.2439L69.4923 27.2771H70.2701V17.7512H68.2843V17.7678ZM74.3244 17.7678V19.6929H77.3197V27.2937H79.2889V19.6929H82.2842V17.7678H74.3244ZM86.4046 27.2771H88.3573V17.7512H86.4046V27.2771ZM98.9649 24.5222C98.3857 25.0035 97.9555 25.2525 97.1777 25.2525C96.3999 25.2525 95.7544 25.0035 95.291 24.5056C94.8111 24.0078 94.5795 23.3439 94.5629 22.4976C94.5629 21.7176 94.8113 21.0703 95.2747 20.5725C95.7546 20.0746 96.3832 19.809 97.161 19.809C97.9222 19.809 98.3692 20.058 98.9649 20.5393L99.031 20.589L100.338 19.0954L100.272 19.029C99.3454 18.1827 98.4683 17.7678 97.161 17.7678C95.8702 17.7678 94.778 18.2324 93.901 19.1286C93.0239 20.0414 92.5771 21.1699 92.5771 22.4976C92.5771 23.8584 93.0239 25.0035 93.8844 25.9163C94.7615 26.8125 95.8538 27.2771 97.1446 27.2771C98.4519 27.2771 99.3288 26.8456 100.256 26.0159L100.322 25.9495L99.0144 24.4559L98.9649 24.5222ZM20.2444 18.0997C20.5423 17.469 20.7409 16.8052 20.8567 16.1248C22.7929 17.1205 23.67 17.8673 23.8354 18.1661C23.5045 18.332 22.2964 18.3984 20.2444 18.0997ZM12.2184 12.0422C10.3484 12.6397 8.56122 13.3035 6.98913 13.9673C7.07187 11.0963 9.02458 8.78946 11.4075 8.78946C12.6983 8.78946 13.8733 9.46989 14.6842 10.5486C14.8331 10.7478 14.9655 10.9801 15.0979 11.2124C13.4927 11.6439 12.3342 12.009 12.2184 12.0422ZM2.30595 11.2788C2.62037 11.1129 3.7622 11.0299 5.91349 11.3452C5.61562 11.9758 5.40049 12.6397 5.28465 13.3201C3.41469 12.3576 2.47143 11.6107 2.30595 11.2788ZM7.61797 20.4895C8.14751 21.0039 8.74326 21.4188 9.40519 21.7673L10.2988 28.6048C10.2657 28.5882 10.2326 28.5716 10.183 28.555C10.0671 28.5052 9.93474 28.4554 9.8189 28.4056C9.7527 28.3891 9.68651 28.3559 9.62032 28.3393L7.38629 20.6222C7.3201 20.4895 7.50213 20.3899 7.61797 20.4895ZM11.6227 24.1239L11.6558 24.2733C11.6889 24.4061 11.8047 24.572 12.086 24.572H14.0388C14.3036 24.572 14.436 24.4061 14.4691 24.2733L14.5022 24.1239C14.6676 23.3937 15.0814 22.5805 16.0246 22.0993L15.2303 28.2065C13.7575 27.2273 12.417 27.078 11.9371 27.0614H11.9205C11.8212 27.0614 11.7551 27.1444 11.7716 27.2439L12.1522 29.8661C12.1522 29.8661 12.1357 29.8827 12.1357 29.8661C11.7882 29.5342 11.4241 29.252 11.0104 29.0031L10.9607 28.9699L10.0671 22.0827C11.0435 22.5971 11.4572 23.4103 11.6227 24.1239ZM18.5234 20.4895C18.6393 20.3899 18.8047 20.4895 18.7716 20.6388L16.3225 29.0695C16.2066 28.9533 16.0743 28.8371 15.9584 28.7376C15.9253 28.7044 15.8922 28.6878 15.8591 28.6546L16.7527 21.7673C17.3816 21.4188 17.9939 20.9873 18.5234 20.4895ZM15.9584 29.8329C15.5447 30.812 14.4691 31.5256 13.3272 31.758C13.2776 31.7746 13.2444 31.758 13.2279 31.7082L12.6818 27.9908C12.6818 27.941 12.7149 27.9078 12.7645 27.9244C13.6251 28.0903 15.0979 28.8703 15.9088 29.6835C15.975 29.7499 15.9584 29.8163 15.9584 29.8329ZM14.436 34.4299L11.7054 34.5793L11.4572 32.6376L11.7716 32.6044L12.5494 32.5214H12.5659L12.6321 33.0359C12.6487 33.1188 12.7149 33.1686 12.7976 33.1686H12.8141L14.3863 33.0193L14.6346 33.0027L14.436 34.4299ZM8.92529 32.1397C8.89219 32.1397 8.87564 32.1231 8.87564 32.1065L8.29645 28.8703C8.29645 28.8371 8.313 28.8039 8.34609 28.8205C9.98438 29.0197 11.6061 30.0486 12.3673 31.3265C12.3839 31.3597 12.4004 31.3929 12.4004 31.4261L12.4501 31.7746C12.4501 31.7912 12.4335 31.8078 12.417 31.8078L8.92529 32.1397ZM20.9726 14.8137C20.9726 14.7805 20.9726 14.7639 20.9726 14.7307C20.9726 14.6976 20.9726 14.6478 20.9726 14.6146C23.9844 13.1541 25.3413 11.9095 25.0269 10.8971C24.8449 10.2997 24.1333 9.98436 22.9087 9.91798C22.7763 9.91798 22.6605 9.91798 22.5281 9.91798C21.6511 9.91798 20.6251 10.0341 19.5494 10.2167C18.1263 8.14223 15.7433 6.79797 13.0458 6.79797C10.3484 6.79797 7.96548 8.15883 6.54233 10.2167C3.2492 9.66904 1.41234 9.88478 1.09792 10.8971C0.915887 11.478 1.04827 12.4405 4.25865 14.1665C4.53998 14.3159 4.83785 14.4652 5.15226 14.6146C5.15226 14.6478 5.15226 14.6976 5.15226 14.7307C5.15226 14.7639 5.15226 14.7805 5.15226 14.8137C4.83785 14.9631 4.53998 15.1124 4.2752 15.2618C1.06482 16.9712 0.932435 17.9503 1.11447 18.5312C1.42889 19.5103 3.16646 19.7593 6.2941 19.2614L8.87564 28.1401C8.7598 28.1235 8.66051 28.0903 8.54468 28.0737C8.19716 28.0239 7.84964 28.0073 7.51868 28.0239C7.43594 28.0239 7.38629 28.0903 7.38629 28.1733L8.23026 32.8201C8.24681 32.8865 8.313 32.9363 8.37919 32.9197L10.1995 32.7371H10.2326L10.7787 34.6125H10.6298C10.3484 34.6291 10.2657 34.5627 10.1002 34.4465C9.91819 34.3137 9.86854 34.1976 9.62032 34.1976L7.94893 34.2639C7.86619 34.2639 7.81655 34.3303 7.81655 34.4133C7.81655 35.0771 8.14751 37.2512 9.52103 37.3176C9.62032 37.3176 9.7527 37.3176 9.91819 37.3176C10.365 38.3299 11.2917 38.2137 11.5399 38.1805C12.3839 38.0976 16.8024 36.6869 17.2326 36.3716C17.6794 36.0397 18.1263 34.9112 18.1263 34.9112C18.1263 34.9112 19.4501 34.4631 20.1617 34.2474C20.261 34.2142 20.2279 34.0814 20.1286 34.0814L15.4454 34.3303L15.8922 32.8201L16.2397 32.7869L18.54 32.5546C18.6062 32.5546 18.6558 32.4716 18.6227 32.4052C18.1263 31.3099 17.5802 30.4469 17.001 29.7499C16.9513 29.6835 16.9017 29.6337 16.8355 29.5673L19.566 20.1742C17.4643 19.8588 15.1475 19.2614 13.5589 18.8133C12.9134 19.2448 12.1853 19.5103 11.391 19.5103C9.73616 19.5103 8.29645 18.3984 7.55177 16.772C7.27045 16.6559 6.98913 16.5397 6.70781 16.4235C6.2941 16.6061 5.88039 16.8052 5.48323 17.0044C5.59907 17.3695 5.73146 17.718 5.88039 18.0499C3.74565 18.3652 2.58727 18.2656 2.2894 18.1163C2.60382 17.4856 5.76455 15.3448 12.5825 13.1707C19.4005 10.9967 23.2066 10.9137 23.8354 11.2456C23.67 11.5444 22.7929 12.2912 20.8567 13.2869C20.8071 12.955 20.7243 12.6231 20.6251 12.3078C19.3343 12.4737 17.696 12.789 15.7598 13.3035C15.7929 13.569 15.8095 13.8512 15.8095 14.1333C15.8095 15.1622 15.5613 16.1248 15.1475 16.9546C14.287 16.7222 13.4265 16.4567 12.5825 16.1912C11.6227 15.8924 10.6794 15.5605 9.73616 15.212C9.17351 15.4278 8.61087 15.6435 8.06477 15.8593C9.35554 16.3737 10.7622 16.8882 12.235 17.3529C12.5163 17.4359 18.9371 19.4771 22.5612 19.4771C22.6936 19.4771 22.8094 19.4771 22.9418 19.4771C24.1499 19.4273 24.8614 19.0954 25.06 18.498C25.3579 17.5354 23.9844 16.2742 20.9726 14.8137Z" clip-rule="evenodd" fill-rule="evenodd"></path>
</svg>
