<svg xmlns="http://www.w3.org/2000/svg" fill="none" viewBox="0 0 101 45" height="45" width="101">
<path fill="#8A99A0" d="M90.9767 29.4948C90.7366 29.5387 88.8593 29.553 87.2364 29.525C87.1684 29.5239 87.0999 29.5129 87.0182 29.5047C86.8 28.7492 86.6087 27.9942 86.4053 27.2431C86.2013 26.4903 85.999 25.737 85.7967 24.9837C85.5944 24.2304 85.3926 23.477 85.1925 22.7232C84.9935 21.9726 84.7972 21.2215 84.5828 20.472C84.5318 20.7379 84.5669 21.0022 84.5751 21.2664C84.5839 21.5384 84.5927 21.8098 84.5993 22.0817C84.6058 22.3624 84.6091 22.6431 84.6152 22.9238C84.6212 23.1958 84.6316 23.4672 84.6365 23.7391C84.6415 24.0111 84.6431 24.283 84.6448 24.5549C84.6464 24.8269 84.647 25.0988 84.647 25.3708C84.647 25.6427 84.647 25.9146 84.647 26.1866V29.4822C84.5834 29.4987 84.5357 29.5173 84.4863 29.5228C84.4255 29.5294 84.3635 29.5255 84.3021 29.5255C82.9429 29.5255 81.5832 29.5255 80.2241 29.525C80.121 29.525 80.0141 29.5442 79.917 29.4915C79.9077 29.4608 79.894 29.4362 79.894 29.412C79.8929 24.8071 79.8929 20.2022 79.894 15.5973C79.894 15.5732 79.9088 15.5485 79.9209 15.5134C79.9598 15.5052 80.0009 15.491 80.0426 15.4888C80.1215 15.4844 80.2005 15.4855 80.2794 15.4855C82.5422 15.4855 84.8049 15.4855 87.0676 15.4855C87.18 15.4855 87.2929 15.4921 87.4185 15.4959C87.4431 15.582 87.4689 15.6549 87.4859 15.73C87.9656 17.8496 88.4437 19.9698 88.9235 22.0894C88.9437 22.1798 88.9717 22.2687 89.0051 22.3926C89.1208 22.2473 89.1016 22.0998 89.1367 21.9709C89.1735 21.8361 89.1916 21.6963 89.2195 21.5586C89.2458 21.4298 89.2722 21.301 89.3012 21.1727C89.3319 21.0361 89.3665 20.9002 89.3977 20.7631C89.429 20.6266 89.4575 20.489 89.4871 20.3519C89.5167 20.2148 89.5446 20.0772 89.5748 19.9407C89.6033 19.8124 89.634 19.6847 89.6631 19.5564C89.6938 19.4193 89.7234 19.2828 89.753 19.1457C89.7826 19.0086 89.8105 18.871 89.8402 18.734C89.8703 18.5969 89.9016 18.4604 89.9323 18.3239C89.9613 18.1956 89.9904 18.0673 90.0183 17.939C90.0479 17.8019 90.0759 17.6643 90.1055 17.5272C90.1351 17.3902 90.1658 17.2536 90.1971 17.1166C90.2278 16.9795 90.2596 16.843 90.2897 16.7065C90.3177 16.5782 90.3435 16.4493 90.3714 16.3205C90.401 16.1834 90.4284 16.0458 90.4635 15.9104C90.4981 15.7766 90.5047 15.6335 90.5743 15.508C90.6154 15.5003 90.6494 15.4888 90.6834 15.4888C93.104 15.4882 95.5246 15.4882 97.9452 15.4888C97.9787 15.4888 98.0127 15.5008 98.0587 15.5096C98.0691 15.56 98.085 15.6088 98.0883 15.6587C98.0938 15.7371 98.0911 15.8166 98.0911 15.8956C98.0911 20.3075 98.0911 24.72 98.09 29.1319C98.09 29.252 98.1152 29.3764 98.0538 29.5058C97.988 29.5124 97.92 29.5233 97.8515 29.525C96.2428 29.5579 93.6194 29.5403 93.3738 29.4943C93.3277 29.4192 93.3463 29.3298 93.3458 29.2454C93.3447 27.8857 93.3447 26.526 93.3458 25.1668C93.3458 24.6317 93.3441 24.0966 93.3557 23.5615C93.3781 22.5444 93.4105 21.5274 93.4384 20.5104C93.4395 20.4676 93.4384 20.4248 93.4384 20.3777C93.4165 20.3843 93.4072 20.3854 93.4006 20.3903C93.3935 20.3952 93.3891 20.4029 93.3842 20.41C93.3792 20.4172 93.3743 20.4248 93.371 20.4325C93.3644 20.4484 93.3579 20.4648 93.3524 20.4813C93.3496 20.4895 93.348 20.4983 93.3458 20.5065C92.6012 23.4639 91.8019 26.4064 91.0326 29.3572C91.0239 29.3912 91.0129 29.4241 91.0014 29.457C90.9987 29.4652 90.9921 29.4718 90.9767 29.4937V29.4948Z"></path>
<path fill="#8A99A0" d="M8.0586 24.9888C7.95772 25.3502 7.83381 25.6775 7.72251 26.0086C7.60792 26.3491 7.49279 26.6896 7.37984 27.0306C7.27074 27.3607 7.14135 27.6847 7.05362 28.0274C7.15067 28.057 7.19727 27.9934 7.2499 27.9572C7.90618 27.5032 8.56081 27.047 9.21599 26.5909C9.58333 26.3354 9.95013 26.0799 10.3175 25.8244C10.3893 25.7745 10.4622 25.7263 10.5335 25.678C10.6393 25.6961 10.7078 25.7679 10.7857 25.8217C11.7868 26.5169 12.7874 27.2132 13.788 27.9095C13.8587 27.9588 13.9322 28.0043 14.0046 28.052C14.0813 27.9917 14.0358 27.9341 14.0183 27.8821C13.8083 27.2592 13.5967 26.6369 13.3856 26.0147C13.3318 25.8568 13.2704 25.7016 13.2266 25.5415C13.1613 25.3052 13.0128 25.1374 12.8055 25.0267C12.6054 24.9198 12.397 24.8249 12.1843 24.7454C11.789 24.5985 11.3745 24.5184 10.9617 24.4384C10.1272 24.2766 9.29056 24.1286 8.45774 23.9576C7.74444 23.8112 7.04485 23.6121 6.37158 23.3292C5.95818 23.1554 5.56233 22.9487 5.19828 22.685C4.60834 22.2574 4.15986 21.7201 3.91807 21.0243C3.80239 20.691 3.73605 20.3483 3.72179 19.9952C3.70041 19.4656 3.73989 18.9436 3.90382 18.4359C4.12532 17.7501 4.51898 17.1804 5.06505 16.7138C5.53711 16.3103 6.07332 16.017 6.649 15.7916C7.27183 15.5482 7.91824 15.3941 8.57891 15.2905C9.14362 15.2017 9.71273 15.16 10.2818 15.16C10.8334 15.16 11.3855 15.1995 11.9365 15.2362C12.5588 15.2779 13.1707 15.3914 13.7721 15.5586C14.2381 15.688 14.6883 15.8585 15.1137 16.0899C15.9323 16.534 16.5661 17.1552 16.9504 18.0138C17.1642 18.4908 17.2739 18.9946 17.3249 19.5122C17.3282 19.5456 17.3178 19.5802 17.3112 19.6312C17.241 19.6383 17.1741 19.6515 17.1072 19.6515C16.6072 19.6531 16.1072 19.6525 15.6072 19.6525C14.4755 19.6525 13.3445 19.6525 12.2128 19.6525C12.1174 19.6525 12.022 19.6476 11.9179 19.6449C11.8866 19.5643 11.8554 19.493 11.8307 19.4201C11.4464 18.2917 11.0637 17.1629 10.6782 16.0351C10.6481 15.9468 10.6344 15.8492 10.5702 15.7807C10.4962 15.779 10.5006 15.835 10.483 15.8689C10.4671 15.8996 10.4584 15.9342 10.4469 15.9676C10.255 16.5318 10.0631 17.096 9.87172 17.6607C9.67764 18.2331 9.48355 18.806 9.28891 19.3784C9.25821 19.4683 9.22257 19.5566 9.19406 19.6328C9.16226 19.641 9.15404 19.6432 9.14527 19.6449C9.1365 19.6465 9.12827 19.6487 9.1195 19.6498C9.11073 19.6509 9.10195 19.6515 9.09318 19.6515C9.06687 19.652 9.04055 19.6531 9.01423 19.6531C7.68961 19.6531 6.36555 19.6531 5.04093 19.6536C5.02338 19.6536 5.00584 19.6547 4.98829 19.6558C4.97952 19.6564 4.97075 19.6575 4.96253 19.6597C4.9543 19.6619 4.94443 19.6635 4.93785 19.6684C4.93182 19.6734 4.92908 19.6822 4.9247 19.6893C4.92744 19.7057 4.92415 19.7299 4.93347 19.7364C5.70159 20.2891 6.48836 20.8149 7.26197 21.3538C7.31844 21.3368 7.36011 21.3264 7.40068 21.3116C7.95607 21.1126 8.52901 20.9931 9.11347 20.9169C9.784 20.8291 10.4573 20.7798 11.1327 20.7858C12.4108 20.7979 13.6652 20.9772 14.8906 21.35C15.5364 21.5463 16.1231 21.8522 16.6428 22.2837C17.2882 22.8199 17.712 23.4937 17.8287 24.3293C18.0365 25.8184 17.6407 27.109 16.5052 28.1343C15.957 28.6294 15.3116 28.9622 14.6219 29.2122C13.9437 29.4578 13.2425 29.6108 12.5281 29.7056C11.7358 29.8109 10.9392 29.8602 10.1409 29.846C9.11237 29.8273 8.09369 29.7264 7.09968 29.4413C6.507 29.2714 5.93954 29.0438 5.41375 28.7176C4.26787 28.006 3.57486 26.9884 3.35007 25.6561C3.32265 25.4922 3.30621 25.326 3.29031 25.1605C3.28537 25.11 3.29798 25.0579 3.30347 24.9954C3.35774 24.9834 3.40654 24.9675 3.45643 24.9625C3.51729 24.9565 3.57924 24.9598 3.64065 24.9598C5.00913 24.9598 6.37706 24.9598 7.74554 24.9598C7.84039 24.9598 7.93743 24.9483 8.0575 24.9894L8.0586 24.9888Z"></path>
<path fill="#8A99A0" d="M79.3581 29.485C79.2326 29.5415 79.135 29.5245 79.0407 29.5245C78.1728 29.5261 77.3043 29.5256 76.4364 29.5256C75.6211 29.5256 74.8053 29.5256 73.99 29.5256C73.9286 29.5256 73.8672 29.5234 73.8058 29.5256C73.7203 29.5283 73.6528 29.5004 73.6073 29.4236C73.5761 29.371 73.5393 29.3216 73.5059 29.2701C72.7877 28.1686 72.07 27.0666 71.3517 25.9651C71.2997 25.8856 71.2459 25.8067 71.1801 25.7075C71.1259 25.7678 71.0831 25.8067 71.0502 25.8522C70.2333 26.9926 69.4185 28.1346 68.6005 29.2739C68.3988 29.5547 68.4635 29.5251 68.1082 29.5256C66.5209 29.5261 64.9343 29.5261 63.347 29.5251C63.2538 29.5251 63.1557 29.5453 63.0482 29.4905C63.1935 29.2493 63.3783 29.0524 63.5411 28.8397C63.7116 28.6171 63.8876 28.3984 64.0614 28.178C64.2297 27.9647 64.3986 27.7514 64.5669 27.5381C64.7407 27.3177 64.9145 27.0979 65.0883 26.8775C65.2566 26.6642 65.4255 26.4509 65.5938 26.2376C65.7676 26.0172 65.9414 25.7974 66.1152 25.577C66.2835 25.3637 66.4519 25.1504 66.6202 24.9366C66.794 24.7162 66.9678 24.4963 67.1416 24.2759C67.3099 24.0626 67.4782 23.8494 67.6471 23.6361C67.8209 23.4157 67.9969 23.1975 68.168 22.9749C68.333 22.7605 68.5161 22.5593 68.6707 22.3153C68.4684 22.028 68.2551 21.7506 68.0479 21.4699C67.8401 21.1875 67.6301 20.9063 67.4212 20.625C67.2123 20.3432 67.0034 20.0619 66.7945 19.7801C66.5802 19.4912 66.3663 19.2028 66.152 18.9139C65.9431 18.632 65.7342 18.3502 65.5253 18.069C65.3164 17.7872 65.1075 17.5054 64.8986 17.2235C64.6897 16.9417 64.4808 16.6605 64.272 16.3781C64.0653 16.0985 63.8558 15.8216 63.6447 15.5288C63.6952 15.508 63.7166 15.4921 63.7396 15.4905C63.9907 15.4696 69.0995 15.4861 69.2782 15.5086C69.3275 15.5765 69.3851 15.6533 69.4394 15.7317C70.02 16.5771 70.5995 17.4237 71.1812 18.2685C71.2344 18.3459 71.2684 18.4423 71.3814 18.4868C72.0667 17.4927 72.752 16.4982 73.4335 15.5091C73.484 15.4998 73.518 15.4888 73.5519 15.4888C75.2269 15.4877 76.9013 15.4877 78.5763 15.4888C78.6004 15.4888 78.6251 15.5025 78.6492 15.5097C78.6684 15.5957 78.6032 15.6407 78.5642 15.6939C78.0587 16.3776 77.5516 17.0607 77.045 17.7433C76.0416 19.0953 75.0383 20.4468 74.0355 21.7988C73.984 21.8685 73.9357 21.9408 73.8869 22.0116C73.9122 22.1201 73.984 22.1881 74.0399 22.2643C75.2154 23.8592 76.3925 25.4536 77.5691 27.048C78.1108 27.7816 78.6519 28.5151 79.1931 29.2493C79.2441 29.3189 79.2912 29.3913 79.3565 29.4867L79.3581 29.485Z"></path>
<path fill="#8A99A0" d="M39.1157 18.2504H43.5161C43.5271 18.3047 43.5425 18.3535 43.5458 18.4029C43.5507 18.4813 43.5474 18.5608 43.5474 18.6397C43.5474 20.5252 43.5479 22.4107 43.5474 24.2962C43.5474 24.6394 43.5633 24.9799 43.6516 25.3132C43.6719 25.3894 43.6932 25.4657 43.7206 25.5391C43.8939 25.9953 44.2201 26.2672 44.7021 26.3544C44.9987 26.4081 45.2931 26.4153 45.5902 26.3571C46.0234 26.2722 46.3403 26.0331 46.5486 25.6477C46.7049 25.3587 46.7794 25.044 46.831 24.7222C46.8864 24.3746 46.8929 24.0237 46.8929 23.6728C46.8929 21.9803 46.8929 20.2878 46.8929 18.5953C46.8929 18.4911 46.8968 18.3875 46.899 18.2959C46.9812 18.2197 47.064 18.2439 47.1391 18.2439C47.7707 18.2417 48.4018 18.2428 49.0334 18.2428C49.6995 18.2428 50.3662 18.2428 51.0324 18.2428C51.1272 18.2428 51.2215 18.2493 51.3295 18.2532C51.3388 18.3168 51.3493 18.3667 51.352 18.4166C51.3558 18.4867 51.3536 18.5569 51.3536 18.6271C51.3536 22.1349 51.3536 25.6427 51.3531 29.1506C51.3531 29.263 51.3717 29.3781 51.3218 29.5042C51.2593 29.5108 51.1914 29.5245 51.1228 29.525C49.8953 29.5261 48.6677 29.5261 47.4401 29.525C47.3803 29.525 47.32 29.5146 47.2723 29.5097C47.2011 29.4433 47.2159 29.3693 47.2153 29.3013C47.2137 28.9417 47.2153 28.582 47.2142 28.2229C47.2142 28.1368 47.2087 28.0507 47.206 27.9707C47.1188 27.9416 47.0996 28.003 47.0678 28.0392C46.8765 28.2558 46.6967 28.4839 46.4932 28.6889C45.8989 29.2876 45.1763 29.6358 44.3424 29.7581C43.7152 29.8496 43.0863 29.8847 42.4558 29.803C41.0747 29.6243 40.0769 28.9247 39.5258 27.6286C39.3186 27.1412 39.2079 26.6285 39.1426 26.1038C39.0949 25.7195 39.0911 25.3346 39.0911 24.9486C39.0911 22.8263 39.0911 20.7039 39.0911 18.5816C39.0911 18.4785 39.0801 18.3733 39.1157 18.251V18.2504Z"></path>
<path fill="#8A99A0" d="M63.1381 21.4245C63.0531 21.4328 63.0021 21.441 62.9511 21.4426C62.0087 21.4673 59.3561 21.453 59.1034 21.4218C59.0836 21.3604 59.0623 21.2946 59.0425 21.2288C58.906 20.7759 58.5973 20.5023 58.145 20.3949C57.7793 20.3083 57.4114 20.3335 57.0534 20.4398C56.93 20.4766 56.8056 20.5363 56.7047 20.6158C56.3555 20.89 56.3697 21.3598 56.725 21.6246C56.8741 21.7359 57.0413 21.816 57.2173 21.8692C57.5359 21.9651 57.8561 22.0567 58.1795 22.134C58.8698 22.299 59.5639 22.446 60.2531 22.6143C60.7219 22.7289 61.1764 22.8912 61.6145 23.0946C61.9335 23.2426 62.2362 23.4191 62.5125 23.6373C63.2264 24.2021 63.5778 24.9444 63.5943 25.8491C63.6025 26.3096 63.5334 26.7586 63.37 27.1896C63.1189 27.8508 62.6803 28.3629 62.1008 28.7604C61.5514 29.137 60.9412 29.375 60.2997 29.5367C59.6862 29.6913 59.0628 29.7845 58.4301 29.8114C58.0798 29.8262 57.7289 29.8498 57.3791 29.8443C56.6504 29.8333 55.9267 29.767 55.2162 29.5926C54.6339 29.4501 54.0774 29.2439 53.567 28.9238C52.5993 28.3163 52.057 27.4357 51.8925 26.3129C51.881 26.2356 51.8832 26.1566 51.8783 26.0618C51.9441 26.0508 52.0011 26.0333 52.0576 26.0327C52.4436 26.03 52.829 26.0311 53.215 26.0311C54.0653 26.0311 54.9163 26.0311 55.7666 26.0311H56.0687C56.0874 26.0947 56.112 26.1495 56.1186 26.206C56.1784 26.7044 56.4476 27.0481 56.901 27.2444C57.4334 27.4752 57.9783 27.4654 58.5167 27.2707C58.8545 27.1485 59.0645 26.9045 59.122 26.5393C59.1642 26.2745 59.0869 26.0547 58.8874 25.8781C58.741 25.7482 58.5666 25.6648 58.3862 25.5958C58.0743 25.4757 57.7508 25.3978 57.4251 25.3293C56.8423 25.2065 56.2584 25.0897 55.6767 24.962C55.2057 24.8583 54.7441 24.7202 54.2973 24.5354C53.9392 24.3874 53.5999 24.2064 53.2928 23.968C52.6886 23.4981 52.3394 22.8851 52.2385 22.1247C52.1826 21.702 52.199 21.2853 52.2851 20.8702C52.4315 20.1646 52.7955 19.5906 53.3466 19.1317C53.7698 18.7791 54.2523 18.5335 54.7688 18.352C55.3335 18.153 55.9157 18.0379 56.5106 17.971C57.1318 17.9014 57.7546 17.9052 58.3758 17.9386C59.139 17.9798 59.8929 18.0905 60.6193 18.3438C60.9933 18.4743 61.3496 18.6404 61.6786 18.8625C62.4379 19.374 62.8925 20.0868 63.0712 20.9793C63.0986 21.1159 63.1129 21.2546 63.1381 21.424V21.4245Z"></path>
<path fill="#8A99A0" d="M28.7922 29.5005C28.7533 29.5081 28.7111 29.5235 28.6689 29.5235C27.2658 29.523 25.8628 29.5208 24.4592 29.5169C24.4357 29.5169 24.4121 29.4972 24.3797 29.4829C24.3748 29.4336 24.3655 29.3831 24.3644 29.3316C24.3326 27.9774 24.3501 18.5548 24.3858 18.2719C24.4691 18.2215 24.5678 18.2429 24.661 18.2429C25.4242 18.2407 26.1868 18.2418 26.95 18.2418C27.336 18.2418 27.722 18.2412 28.108 18.2418C28.1941 18.2418 28.2807 18.2478 28.37 18.2511C28.4282 18.3476 28.4117 18.4457 28.4123 18.5395C28.4139 19.0834 28.4128 19.6272 28.4134 20.1711C28.4134 20.2501 28.4145 20.329 28.4205 20.4074C28.4221 20.4294 28.4441 20.4491 28.4704 20.4919C28.5082 20.4157 28.5422 20.3581 28.5663 20.2972C28.6996 19.9622 28.8575 19.6399 29.0598 19.3411C29.4178 18.8125 29.8783 18.4074 30.4781 18.171C31.0527 17.9446 31.6503 17.8865 32.2611 17.9369C32.3373 17.943 32.4113 17.9704 32.4892 17.989C32.4969 18.0351 32.5073 18.0685 32.5073 18.1025C32.5078 19.5061 32.5078 20.9096 32.5067 22.3127C32.5067 22.3373 32.493 22.362 32.4826 22.3971C32.413 22.3883 32.345 22.3807 32.277 22.3708C31.7079 22.2836 31.1415 22.2902 30.5812 22.4316C29.886 22.6076 29.4063 23.032 29.1321 23.6932C28.9934 24.0282 28.9128 24.3785 28.8767 24.7371C28.8449 25.0507 28.8273 25.3671 28.8257 25.6823C28.8196 26.8578 28.824 28.0333 28.8224 29.2088C28.8224 29.3031 28.8416 29.4012 28.7922 29.501V29.5005Z"></path>
<path fill="#8A99A0" d="M18.7105 29.4928C18.6765 29.2296 18.6579 19.4666 18.688 18.4282C18.6897 18.3772 18.6984 18.3262 18.7056 18.2615C18.7648 18.2544 18.8147 18.2434 18.8646 18.2434C20.2325 18.2423 21.6004 18.2429 22.9684 18.2434C23.0111 18.2434 23.0544 18.25 23.1109 18.2544C23.1224 18.3059 23.1394 18.3542 23.1427 18.4035C23.1482 18.4819 23.1454 18.5614 23.1454 18.6404C23.1454 22.1394 23.1454 25.6385 23.1454 29.137C23.1454 29.2499 23.1422 29.3629 23.14 29.489C23.0698 29.5027 23.0128 29.5219 22.9552 29.5241C22.8236 29.529 22.692 29.5263 22.5604 29.5263C21.3855 29.5263 20.2106 29.5263 19.0356 29.5257C18.9325 29.5257 18.8262 29.5427 18.7105 29.4939V29.4928Z"></path>
<path fill="#8A99A0" d="M33.5332 18.2505H37.9303C37.9419 18.3064 37.9567 18.3552 37.9611 18.4056C37.9665 18.4665 37.9627 18.5285 37.9627 18.5899C37.9627 22.1158 37.9627 25.6412 37.9627 29.1671C37.9627 29.2712 37.9594 29.3754 37.9583 29.4604C37.8837 29.5355 37.8108 29.5251 37.7417 29.5251C37.4786 29.5262 37.2154 29.5256 36.9522 29.5256C35.9177 29.5256 34.8825 29.5262 33.8479 29.5245C33.7443 29.5245 33.6374 29.5459 33.5256 29.4867C33.5195 29.4346 33.5102 29.3754 33.5064 29.3167C33.5031 29.2641 33.5053 29.2115 33.5053 29.1588C33.5053 25.6417 33.5053 22.1251 33.5058 18.608C33.5058 18.4961 33.4921 18.3821 33.5338 18.2505H33.5332Z"></path>
<path fill="#8A99A0" d="M18.7134 17.2717C18.7024 17.2191 18.6898 17.1857 18.6898 17.1522C18.6898 16.5217 18.6898 15.8917 18.692 15.2612C18.692 15.2377 18.7085 15.2135 18.7183 15.1878C18.7435 15.1773 18.7671 15.1598 18.7912 15.1598C20.2008 15.1576 21.6099 15.1565 23.0195 15.1571C23.0524 15.1571 23.0858 15.1746 23.122 15.185C23.1297 15.2229 23.1429 15.2563 23.1429 15.2903C23.1429 15.9208 23.1423 16.5508 23.1401 17.1813C23.1401 17.2054 23.1253 17.2295 23.1198 17.2454C23.1061 17.258 23.1006 17.2652 23.093 17.2695C23.0858 17.2734 23.0765 17.2761 23.0683 17.2761C21.668 17.2794 20.2672 17.2822 18.8669 17.2843C18.8236 17.2843 18.7803 17.2778 18.7139 17.2717H18.7134Z"></path>
<path fill="#8A99A0" d="M33.5056 17.2745C33.5056 16.559 33.499 15.8775 33.51 15.207C33.6114 15.1313 33.7112 15.1549 33.805 15.1543C34.3214 15.1521 34.8385 15.1532 35.3549 15.1532C36.117 15.1532 36.8786 15.1527 37.6407 15.1543C37.735 15.1543 37.8331 15.1351 37.9395 15.1916C37.9455 15.2245 37.9598 15.2651 37.9598 15.3062C37.9609 15.9192 37.9609 16.5321 37.9598 17.1456C37.9598 17.1791 37.9504 17.2131 37.9455 17.2438C37.8698 17.3046 37.7881 17.2843 37.7125 17.2849C37.2136 17.2871 36.7141 17.286 36.2152 17.286C35.4185 17.286 34.6213 17.286 33.8247 17.286C33.7304 17.286 33.6356 17.28 33.5056 17.2756V17.2745Z"></path>
</svg>
