<svg xmlns="http://www.w3.org/2000/svg" fill="none" viewBox="0 0 79 45" height="45" width="79">
<g clip-path="url(#clip0_433_2354)">
<mask height="27" width="75" y="9" x="2" maskUnits="userSpaceOnUse" style="mask-type:luminance" id="mask0_433_2354">
<path fill="white" d="M76.6342 9.76099H2.74811V35.239H76.6342V9.76099Z"></path>
</mask>
<g mask="url(#mask0_433_2354)">
<path fill="#8A99A0" d="M6.99903 27.9563C7.31126 28.7792 7.74355 29.4828 8.29595 30.0672C8.84837 30.6516 9.5028 31.0988 10.2593 31.4089C11.0158 31.719 11.8384 31.874 12.7271 31.874C13.5917 31.874 14.4022 31.713 15.1588 31.3909C15.9153 31.0689 16.5757 30.6157 17.1401 30.0314C17.7044 29.447 18.1427 28.7494 18.455 27.9383C18.7673 27.1274 18.9233 26.221 18.9233 25.2192V9.7627H22.7059V34.8079H18.9594V32.4822C18.1188 33.3647 17.128 34.0445 15.9873 34.5217C14.8464 34.9986 13.6157 35.2372 12.2947 35.2372C10.9497 35.2372 9.69492 35.0046 8.53007 34.5394C7.36531 34.0744 6.35655 33.4125 5.50402 32.5538C4.65149 31.6951 3.97895 30.6635 3.48665 29.4589C2.99426 28.2543 2.74811 26.9128 2.74811 25.4338V9.7627H6.53071V25.2192C6.53071 26.221 6.68679 27.1333 6.99903 27.9563ZM29.2261 9.7627V18.8863C30.0667 18.0514 31.0394 17.3896 32.1442 16.9006C33.2489 16.4115 34.4498 16.1671 35.7467 16.1671C37.0917 16.1671 38.3524 16.4175 39.5292 16.9184C40.706 17.4193 41.7267 18.0991 42.5913 18.9579C43.456 19.8165 44.1405 20.8302 44.6448 21.999C45.1492 23.1678 45.4013 24.4082 45.4013 25.7201C45.4013 27.0319 45.1492 28.2662 44.6448 29.4231C44.1405 30.58 43.456 31.5877 42.5913 32.4463C41.7267 33.3051 40.706 33.9849 39.5292 34.4858C38.3524 34.9867 37.0916 35.2371 35.7467 35.2371C34.4497 35.2371 33.243 34.9926 32.1262 34.5036C31.0094 34.0147 30.0307 33.3527 29.1901 32.5179V34.8078H25.5877V9.7627H29.2261ZM29.6404 28.1888C29.9646 28.9521 30.415 29.62 30.9914 30.1925C31.5678 30.7649 32.2402 31.2181 33.0087 31.552C33.7773 31.886 34.6059 32.0529 35.4945 32.0529C36.3592 32.0529 37.1756 31.886 37.9441 31.552C38.7127 31.2181 39.3791 30.765 39.9436 30.1925C40.508 29.6201 40.9583 28.9521 41.2945 28.1888C41.6307 27.4255 41.7988 26.6026 41.7988 25.7201C41.7988 24.8375 41.6307 24.0086 41.2945 23.2334C40.9583 22.4582 40.508 21.7844 39.9436 21.2119C39.3792 20.6395 38.7127 20.1923 37.9441 19.8702C37.1756 19.5483 36.3591 19.3872 35.4945 19.3872C34.63 19.3872 33.8133 19.5482 33.0448 19.8702C32.2763 20.1923 31.6039 20.6395 31.0274 21.2119C30.4511 21.7844 29.9948 22.4582 29.6585 23.2334C29.3222 24.0086 29.1542 24.8375 29.1542 25.7201C29.1541 26.6026 29.3162 27.4255 29.6404 28.1888ZM47.4544 22.0348C47.9347 20.8899 48.5952 19.8822 49.4357 19.0116C50.2762 18.141 51.273 17.4552 52.4258 16.9543C53.5786 16.4534 54.8275 16.203 56.1724 16.203C57.4933 16.203 58.7182 16.4416 59.847 16.9185C60.9757 17.3956 61.9484 18.0575 62.765 18.9043C63.5815 19.751 64.2181 20.7529 64.6742 21.9097C65.1306 23.0666 65.3587 24.3248 65.3587 25.6845V26.8651H50.4084C50.5286 27.6046 50.7687 28.2904 51.129 28.9223C51.4893 29.5544 51.9395 30.103 52.4798 30.5682C53.0202 31.0333 53.6326 31.3971 54.3171 31.6594C55.0017 31.9217 55.728 32.053 56.4967 32.053C58.6822 32.053 60.4475 31.1585 61.7924 29.3695L64.4222 31.3016C63.5095 32.5181 62.3808 33.4722 61.0359 34.1639C59.6909 34.8556 58.1779 35.2014 56.4967 35.2014C55.1278 35.2014 53.8489 34.9629 52.6601 34.4858C51.4713 34.0089 50.4385 33.3409 49.5619 32.4822C48.6853 31.6235 47.9949 30.6157 47.4906 29.4589C46.9862 28.3022 46.734 27.0438 46.734 25.6843C46.7339 24.3963 46.9741 23.1798 47.4544 22.0348ZM52.5159 20.6216C51.4951 21.4684 50.8167 22.5953 50.4805 24.0027H61.6843C61.3721 22.5953 60.7056 21.4684 59.6848 20.6216C58.6641 19.7748 57.4693 19.3515 56.1004 19.3515C54.7314 19.3515 53.5366 19.7748 52.5159 20.6216ZM72.1673 21.0329C71.3987 21.8678 71.0144 23.0008 71.0144 24.432V34.8079H67.3759V16.5607H70.9783V18.8148C71.4347 18.0753 72.0291 17.4909 72.7616 17.0616C73.4941 16.6322 74.3647 16.4175 75.3734 16.4175H76.6342V19.7807H75.1212C73.9204 19.7808 72.9358 20.1981 72.1673 21.0329Z"></path>
</g>
</g>
<defs>
<clipPath id="clip0_433_2354">
<rect transform="translate(2.74915 9.76099)" fill="white" height="25.478" width="73.8861"></rect>
</clipPath>
</defs>
</svg>
