<svg xmlns="http://www.w3.org/2000/svg" fill="none" viewBox="0 0 97 45" height="45" width="97">
<path fill="#8A99A0" d="M20.6598 6.25488C21.1197 6.53031 21.5762 6.80918 22.0395 7.08116C25.8337 9.31212 29.6278 11.5431 33.4254 13.7706C33.5167 13.8222 33.5471 13.8808 33.5471 13.984C33.5471 18.9417 33.5471 23.8994 33.5437 28.8605C33.5437 28.9294 33.5099 29.0017 33.4863 29.0946C33.307 28.9879 33.1549 28.9018 33.0027 28.8123C31.5486 27.955 30.0979 27.0978 28.6438 26.244C28.5559 26.1923 28.5356 26.1338 28.5356 26.0374C28.5356 24.161 28.5356 22.2813 28.5356 20.4049C28.5356 20.3429 28.5356 20.281 28.5356 20.219C28.5356 19.9264 28.3597 19.8231 28.1163 19.9677C27.5448 20.3016 26.9733 20.639 26.4018 20.9764C24.9984 21.7993 23.5984 22.6255 22.1951 23.4484C21.9922 23.5654 21.8975 23.7376 21.8975 23.9717C21.8975 26.299 21.8975 28.6298 21.8975 30.9572C21.8975 30.9916 21.8941 31.0295 21.8975 31.0639C21.9245 31.2189 22.0699 31.3841 22.2728 31.2602C22.6888 31.0054 23.1115 30.7644 23.5308 30.5165C24.7685 29.7866 26.0095 29.0602 27.2472 28.3269C27.3216 28.2821 27.3723 28.2787 27.4467 28.3234C29.0327 29.2633 30.6187 30.1998 32.2046 31.1362C32.2249 31.15 32.2418 31.1672 32.2756 31.1948C31.8732 31.4323 31.4843 31.6595 31.0921 31.8902C28.0588 33.6736 25.0221 35.457 21.9888 37.2404C21.14 37.7396 20.2912 38.2388 19.4391 38.7311C19.3917 38.7587 19.297 38.738 19.2429 38.707C17.8801 37.9048 16.5207 37.0958 15.1613 36.2936C12.3343 34.6238 9.50388 32.9575 6.67348 31.2912C6.59908 31.2464 6.52807 31.1913 6.43338 31.1259C6.66671 30.9847 6.87637 30.8608 7.08603 30.7369C8.46911 29.9209 9.85219 29.105 11.2319 28.2821C11.3333 28.2201 11.4043 28.2305 11.499 28.2856C13.1053 29.2358 14.7149 30.1826 16.3246 31.1293C16.5884 31.2843 16.8217 31.1466 16.8217 30.8401C16.8217 28.5369 16.8217 26.2336 16.8217 23.9304C16.8217 23.6515 16.6932 23.4794 16.4632 23.3451C14.786 22.3639 13.1087 21.3758 11.4314 20.3877C11.1575 20.2259 10.887 20.0675 10.6131 19.9092C10.4102 19.7921 10.187 19.9195 10.1734 20.157C10.1701 20.219 10.1734 20.281 10.1734 20.3395C10.1734 22.209 10.1734 24.075 10.1734 25.9444C10.1734 26.0512 10.1532 26.12 10.0517 26.1785C8.49278 27.0943 6.93724 28.017 5.3817 28.9363C5.34112 28.9604 5.29716 28.981 5.23291 29.0154C5.23291 28.9397 5.23291 28.8846 5.23291 28.833C5.23291 23.8891 5.23291 18.9452 5.23291 14.0047C5.23291 13.8739 5.27349 13.8085 5.38508 13.743C9.60871 11.2849 13.8323 8.81635 18.0526 6.34784C18.0999 6.3203 18.1405 6.28587 18.1845 6.25488C18.2048 6.25488 18.2251 6.25488 18.2453 6.25488C18.2453 6.31685 18.2386 6.37882 18.2386 6.43735C18.2386 8.26894 18.2386 10.1005 18.2386 11.9321C18.2386 12.032 18.2183 12.0974 18.1236 12.1525C16.47 13.1199 14.8164 14.0942 13.1662 15.072C13.0985 15.1133 13.0343 15.22 13.0343 15.2992C13.0343 15.3749 13.0952 15.4851 13.1628 15.5264C13.7343 15.8742 14.3125 16.2081 14.8874 16.5455C16.284 17.3683 17.684 18.1877 19.0806 19.0106C19.3139 19.1483 19.527 19.1552 19.7704 19.0106C21.7419 17.8435 23.7202 16.6867 25.695 15.5264C25.8371 15.4438 25.8743 15.282 25.766 15.1546C25.7153 15.0961 25.6443 15.0479 25.5767 15.0066C23.9806 14.0632 22.3844 13.1199 20.7849 12.1834C20.6666 12.1146 20.6192 12.0423 20.6192 11.9011C20.6226 10.0799 20.6192 8.25861 20.6226 6.43735C20.6226 6.37538 20.6294 6.31341 20.6294 6.25488C20.6395 6.25488 20.6497 6.25488 20.6598 6.25488Z"></path>
<path fill="#8A99A0" d="M92.1473 18.353C91.9579 18.9108 91.7618 19.4651 91.5758 20.0228C90.4666 23.3211 89.3642 26.6193 88.2551 29.9141C88.0184 30.6199 87.7174 31.2981 87.2575 31.8903C86.7198 32.5823 86.0131 32.9748 85.1643 33.0849C84.1126 33.2226 83.0542 33.1262 82.0025 33.1469C81.9923 33.1469 81.9856 33.14 81.9619 33.1331C81.9382 32.2242 81.9179 31.3119 81.8943 30.3857C81.9551 30.3857 82.0092 30.3789 82.0633 30.3789C82.5165 30.372 82.9696 30.3754 83.4194 30.3513C83.7339 30.3341 84.0314 30.2446 84.2682 30.0139C84.4474 29.8383 84.5285 29.6214 84.5488 29.3736C84.5826 28.8812 84.4508 28.4199 84.2851 27.9723C83.629 26.2234 82.9662 24.4744 82.3068 22.7289C81.7725 21.3139 81.2315 19.8989 80.6938 18.4839C80.6769 18.4357 80.6634 18.3875 80.6431 18.3289H84.3054C85.0087 20.7561 85.8778 23.1455 86.4256 25.6312C86.4391 25.6312 86.4561 25.6312 86.4696 25.6312C86.4831 25.6002 86.5034 25.5692 86.5102 25.5348C87.0546 23.1214 87.8831 20.794 88.5865 18.4288C88.6101 18.3462 88.6406 18.3117 88.7285 18.3152C89.8715 18.3152 91.0111 18.3152 92.1541 18.3186V18.3496L92.1473 18.353Z"></path>
<path fill="#8A99A0" d="M40.9975 14.7346H44.7985C44.7985 14.8034 44.7985 14.8688 44.7985 14.9342C44.7985 18.0259 44.7951 21.1141 44.8018 24.2058C44.8018 24.884 44.9777 25.5106 45.4815 25.9995C45.84 26.3472 46.2796 26.5194 46.7598 26.5951C47.3279 26.6846 47.8926 26.6881 48.4438 26.5125C49.3163 26.2336 49.8168 25.6105 49.9859 24.7084C50.0332 24.4502 50.0501 24.1817 50.0501 23.9166C50.0535 20.9282 50.0501 17.9398 50.0501 14.9515V14.7414H53.8443C53.8443 14.7931 53.851 14.8413 53.851 14.8895C53.851 17.9708 53.8578 21.0487 53.8477 24.13C53.8443 25.1836 53.6278 26.1957 53.0936 27.115C52.4916 28.1478 51.5989 28.8157 50.4999 29.2185C49.34 29.6455 48.1327 29.7281 46.912 29.6937C46.1376 29.6696 45.3733 29.5732 44.6294 29.3425C43.4424 28.9741 42.4618 28.32 41.799 27.2251C41.4101 26.5813 41.1734 25.8824 41.0888 25.1354C41.0313 24.6052 41.0009 24.0646 40.9975 23.531C40.9874 20.6666 40.9942 17.8021 40.9942 14.9342V14.7346H40.9975Z"></path>
<path fill="#8A99A0" d="M66.2442 29.4906H62.7105V29.2944C62.7105 27.2115 62.7105 25.1286 62.7105 23.0456C62.7105 22.6807 62.68 22.3226 62.5448 21.9784C62.2979 21.3552 61.7433 20.9799 61.0873 20.9558C60.0694 20.918 59.3593 21.6306 59.1395 22.5912C59.0786 22.8528 59.0516 23.1248 59.0482 23.3934C59.0414 25.3592 59.0448 27.3216 59.0448 29.2875V29.4837H55.5245V18.2601H58.9805V19.7887C58.9805 19.7887 59.011 19.8025 59.0245 19.8094C59.0651 19.7612 59.109 19.713 59.1462 19.6579C59.6095 19.0003 60.1878 18.4804 60.952 18.2188C61.9124 17.8883 62.8863 17.8642 63.8433 18.2119C65.0607 18.6526 65.7438 19.589 66.0718 20.8285C66.2003 21.3208 66.2409 21.8234 66.2409 22.3295C66.2409 24.6569 66.2409 26.9842 66.2409 29.315C66.2409 29.3701 66.2409 29.4252 66.2409 29.4906H66.2442Z"></path>
<path fill="#8A99A0" d="M77.6947 14.7415V18.2498H79.6797V21.1658H77.6913C77.6913 21.2347 77.6913 21.2829 77.6913 21.3345C77.6913 22.7977 77.6913 24.2609 77.6913 25.7241C77.6913 25.8653 77.7015 26.0099 77.7319 26.1511C77.8164 26.5539 78.0937 26.7983 78.5164 26.8293C78.8478 26.8534 79.1792 26.85 79.5106 26.8603C79.5647 26.8603 79.6188 26.8603 79.6797 26.8603V29.4458C79.3517 29.494 79.0237 29.5663 78.6923 29.587C78.2324 29.618 77.7691 29.6283 77.3058 29.618C76.7918 29.6077 76.2879 29.5113 75.8145 29.3047C74.9826 28.9432 74.5227 28.2787 74.3739 27.3905C74.3198 27.0634 74.2996 26.7295 74.2996 26.3989C74.2928 24.7257 74.2996 23.0525 74.2996 21.3793C74.2996 21.3139 74.2996 21.2485 74.2996 21.1693H72.8455V18.2566H74.2962V14.745H77.6981L77.6947 14.7415Z"></path>
<path fill="#8A99A0" d="M68.051 18.2567H71.5578V29.4218H68.051V18.2567Z"></path>
<path fill="#8A99A0" d="M71.5573 16.7487H68.0472V13.8533H71.5573V16.7487Z"></path>
</svg>
