<svg xmlns="http://www.w3.org/2000/svg" fill="none" viewBox="0 0 96 45" height="45" width="96">
<g clip-path="url(#clip0_433_2363)">
<mask height="27" width="92" y="8" x="2" maskUnits="userSpaceOnUse" style="mask-type:luminance" id="mask0_433_2363">
<path fill="white" d="M93.8509 8.55103H2.52771V34.6434H93.8509V8.55103Z"></path>
</mask>
<g mask="url(#mask0_433_2363)">
<path fill="#8A99A0" d="M54.5941 26.99C54.9311 25.4788 56.1052 24.4134 57.8012 24.4134C59.3668 24.4134 60.5301 25.2831 60.8236 26.99H54.5832H54.5941ZM57.9317 34.6438C60.617 34.6438 62.3783 33.4696 63.3567 32.3607C63.6394 32.0345 63.5959 31.7301 63.3024 31.5127L61.8238 30.4146C61.5194 30.1754 61.2802 30.2733 61.0519 30.5016C60.6931 30.8604 59.8125 31.8171 57.9752 31.8171C56.4096 31.8171 54.8767 30.8386 54.5506 29.2622H63.4763C63.8351 29.2622 64.0743 29.0448 64.0743 28.686V28.1424C64.0743 24.6091 61.8564 21.5976 57.7469 21.5976C54.0831 21.5976 51.1694 24.2612 51.1694 28.175C51.1694 32.0889 54.0722 34.6438 57.9426 34.6438H57.9317ZM39.6236 34.4263H49.8539C50.2127 34.4263 50.4519 34.2089 50.4519 33.8501V32.1541C50.4519 31.7953 50.2127 31.5779 49.8539 31.5779H43.4396L49.767 24.8591C50.017 24.5873 50.0605 24.4134 50.0605 24.0329V22.3912C50.0605 22.0325 49.8213 21.815 49.4626 21.815H39.7323C39.3735 21.815 39.1343 22.0325 39.1343 22.3912L39.1126 24.0872C39.1126 24.446 39.3518 24.6634 39.7106 24.6634H45.6792L39.3192 31.4366C39.0691 31.7084 39.0365 31.8823 39.0365 32.2628V33.8501C39.0365 34.2089 39.2757 34.4263 39.6345 34.4263H39.6236ZM30.1977 31.6866C28.143 31.6866 26.6644 30.0993 26.6644 28.1207C26.6644 26.142 28.143 24.5547 30.1977 24.5547C32.2525 24.5547 33.6985 26.142 33.6985 28.1207C33.6985 30.0993 32.2525 31.6866 30.1977 31.6866ZM29.6215 34.6438C31.5676 34.6438 32.9592 33.8719 33.6006 32.6977V33.8501C33.6006 34.2089 33.8398 34.4263 34.1986 34.4263H36.2859C36.6447 34.4263 36.8839 34.2089 36.8839 33.8501V22.3912C36.8839 22.0325 36.6447 21.815 36.2859 21.815H34.1986C33.8398 21.815 33.6006 22.0325 33.6006 22.3912V23.5436C32.9483 22.3695 31.5676 21.5976 29.6868 21.5976C26.186 21.5976 23.2724 24.2612 23.2724 28.175C23.2724 32.0889 26.186 34.6438 29.6107 34.6438H29.6215ZM13.89 21.815H11.5961C11.259 21.815 11.0199 21.9455 10.8894 22.3369L8.36715 30.3059L5.98622 22.326C5.89925 22.0216 5.71443 21.8259 5.3013 21.8259H3.09432C2.64858 21.8259 2.43114 22.1194 2.57248 22.5652L6.37761 33.8827C6.50807 34.2632 6.7255 34.4372 7.06253 34.4372H9.49781C9.83484 34.4372 10.1284 34.2741 10.2588 33.8827L12.7159 26.0768L15.162 33.8827C15.2925 34.2741 15.5425 34.4372 15.9231 34.4372H18.304C18.6954 34.4372 18.9128 34.2415 19.0433 33.8827L22.8484 22.5652C22.9897 22.1194 22.7723 21.8259 22.3265 21.8259H20.1848C19.7717 21.8259 19.5868 22.0216 19.4999 22.326L17.1407 30.3059L14.6184 22.3477C14.488 21.9564 14.2597 21.8259 13.9118 21.8259L13.89 21.815Z"></path>
<path fill="#8A99A0" d="M92.7435 20.282C92.7435 17.1727 91.515 14.1829 89.2971 11.9977C87.1119 9.77984 84.133 8.55133 81.0237 8.55133C77.436 8.55133 74.0983 10.1495 71.8153 13.0088C70.1627 15.0853 69.2713 17.651 69.2713 20.2929V22.2389C69.2713 23.2283 68.4885 24.2067 67.173 24.2067C66.9556 24.2067 66.7599 24.3481 66.6946 24.5655C66.4446 25.3809 67.4448 27.1747 68.8581 28.5989C69.7496 29.5013 70.7933 30.2623 71.9457 30.8168C71.6413 32.5889 72.8263 34.2849 74.5984 34.5893C74.7833 34.6219 74.9681 34.6328 75.1529 34.6328C76.7076 34.6328 78.0448 33.5456 78.3492 32.0236H81.0889C81.4477 33.8718 83.372 35.1329 85.4159 34.4371C86.3074 34.1327 87.014 33.4369 87.3402 32.5563C87.6337 31.7844 87.6229 30.9364 87.3293 30.1753C88.0469 29.7187 88.7209 29.1751 89.3189 28.5663C91.5258 26.3702 92.7652 23.3805 92.7543 20.2711L92.7435 20.282ZM81.0128 30.7407H78.3492C77.9904 28.9794 76.2727 27.8379 74.5006 28.1967C73.6417 28.3706 72.8916 28.8816 72.4132 29.6209V29.6426C71.4347 29.1425 70.5433 28.4793 69.7822 27.6966C68.869 26.7725 68.3689 25.9136 68.1406 25.3809C68.7385 25.2395 69.2821 24.9243 69.7061 24.4677C70.2715 23.8588 70.5759 23.0652 70.5759 22.2389V20.3038C70.5759 17.9881 71.3369 15.7376 72.7611 13.9111C74.7941 11.3128 77.7947 9.84508 81.0237 9.84508C86.7857 9.84508 91.4606 14.52 91.4497 20.282C91.4497 23.0434 90.3517 25.6962 88.3948 27.6531C86.4378 29.6209 83.7851 30.7298 81.0237 30.7298L81.0128 30.7407Z"></path>
<path fill="#8A99A0" d="M86.231 18.9883C86.9485 18.9883 87.5356 18.4012 87.5356 17.6836C87.5356 16.9661 86.9485 16.379 86.231 16.379C85.5135 16.379 84.9264 16.9661 84.9264 17.6836C84.9264 18.4012 85.5135 18.9883 86.231 18.9883ZM78.4033 18.9883C79.1208 18.9883 79.7079 18.4012 79.7079 17.6836C79.7079 16.9661 79.1208 16.379 78.4033 16.379C77.6858 16.379 77.0987 16.9661 77.0987 17.6836C77.0987 18.4012 77.6858 18.9883 78.4033 18.9883ZM78.7947 21.9563C78.686 21.728 78.4577 21.5866 78.1967 21.5866C77.838 21.5866 77.5444 21.8802 77.5444 22.2389C77.5444 22.3368 77.5662 22.4238 77.5988 22.5107C78.8273 25.12 81.9366 26.2289 84.5459 25.0004C85.6439 24.4785 86.5246 23.5979 87.0355 22.5107C87.1877 22.1846 87.0355 21.8041 86.7202 21.6519C86.6333 21.6084 86.5463 21.5975 86.4484 21.5975H86.4376C86.1875 21.5975 85.9592 21.7388 85.8614 21.9671C84.9373 23.9241 82.5998 24.7503 80.6538 23.8262C79.8384 23.4348 79.1752 22.7825 78.7947 21.9671V21.9563ZM54.5941 26.9899C54.9311 25.4787 56.1052 24.4133 57.8012 24.4133C59.3668 24.4133 60.5301 25.283 60.8236 26.9899H54.5832H54.5941ZM57.9317 34.6437C60.617 34.6437 62.3783 33.4695 63.3567 32.3606C63.6394 32.0344 63.5959 31.73 63.3024 31.5126L61.8238 30.4145C61.5194 30.1753 61.2802 30.2732 61.0519 30.5015C60.6931 30.8603 59.8125 31.817 57.9752 31.817C56.4096 31.817 54.8767 30.8385 54.5506 29.2621H63.4763C63.8351 29.2621 64.0743 29.0447 64.0743 28.6859V28.1423C64.0743 24.609 61.8564 21.5975 57.7469 21.5975C54.0831 21.5975 51.1694 24.2611 51.1694 28.1749C51.1694 32.0888 54.0722 34.6437 57.9426 34.6437H57.9317ZM39.6236 34.4262H49.8539C50.2127 34.4262 50.4519 34.2088 50.4519 33.85V32.154C50.4519 31.7952 50.2127 31.5778 49.8539 31.5778H43.4396L49.767 24.859C50.017 24.5872 50.0605 24.4133 50.0605 24.0328V22.3911C50.0605 22.0324 49.8213 21.8149 49.4626 21.8149H39.7323C39.3735 21.8149 39.1343 22.0324 39.1343 22.3911L39.1126 24.0871C39.1126 24.4459 39.3518 24.6633 39.7106 24.6633H45.6792L39.3192 31.4365C39.0691 31.7083 39.0365 31.8822 39.0365 32.2627V33.85C39.0365 34.2088 39.2757 34.4262 39.6345 34.4262H39.6236ZM30.1977 31.6865C28.143 31.6865 26.6644 30.0992 26.6644 28.1206C26.6644 26.1419 28.143 24.5546 30.1977 24.5546C32.2525 24.5546 33.6985 26.1419 33.6985 28.1206C33.6985 30.0992 32.2525 31.6865 30.1977 31.6865ZM29.6215 34.6437C31.5676 34.6437 32.9592 33.8718 33.6006 32.6976V33.85C33.6006 34.2088 33.8398 34.4262 34.1986 34.4262H36.2859C36.6447 34.4262 36.8839 34.2088 36.8839 33.85V22.3911C36.8839 22.0324 36.6447 21.8149 36.2859 21.8149H34.1986C33.8398 21.8149 33.6006 22.0324 33.6006 22.3911V23.5435C32.9483 22.3694 31.5676 21.5975 29.6868 21.5975C26.186 21.5975 23.2724 24.2611 23.2724 28.1749C23.2724 32.0888 26.186 34.6437 29.6107 34.6437H29.6215ZM13.89 21.8149H11.5961C11.259 21.8149 11.0199 21.9454 10.8894 22.3368L8.36715 30.3058L5.98622 22.3259C5.89925 22.0215 5.71443 21.8258 5.3013 21.8258H3.09432C2.64858 21.8258 2.43114 22.1193 2.57248 22.5651L6.37761 33.8826C6.50807 34.2631 6.7255 34.4371 7.06253 34.4371H9.49781C9.83484 34.4371 10.1284 34.274 10.2588 33.8826L12.7159 26.0767L15.162 33.8826C15.2925 34.274 15.5425 34.4371 15.9231 34.4371H18.304C18.6954 34.4371 18.9128 34.2414 19.0433 33.8826L22.8484 22.5651C22.9897 22.1193 22.7723 21.8258 22.3265 21.8258H20.1848C19.7717 21.8258 19.5868 22.0215 19.4999 22.3259L17.1407 30.3058L14.6184 22.3476C14.488 21.9563 14.2597 21.8258 13.9118 21.8258L13.89 21.8149Z"></path>
<path fill="#8A99A0" d="M92.7435 20.282C92.7435 17.1727 91.515 14.1829 89.2971 11.9977C87.1119 9.77984 84.133 8.55133 81.0237 8.55133C77.436 8.55133 74.0983 10.1495 71.8153 13.0088C70.1627 15.0853 69.2713 17.651 69.2713 20.2929V22.2389C69.2713 23.2283 68.4885 24.2067 67.173 24.2067C66.9556 24.2067 66.7599 24.3481 66.6946 24.5655C66.4446 25.3809 67.4448 27.1747 68.8581 28.5989C69.7496 29.5013 70.7933 30.2623 71.9457 30.8168C71.6413 32.5889 72.8263 34.2849 74.5984 34.5893C74.7833 34.6219 74.9681 34.6328 75.1529 34.6328C76.7076 34.6328 78.0448 33.5456 78.3492 32.0236H81.0889C81.4477 33.8718 83.372 35.1329 85.4159 34.4371C86.3074 34.1327 87.014 33.4369 87.3402 32.5563C87.6337 31.7844 87.6229 30.9364 87.3293 30.1753C88.0469 29.7187 88.7209 29.1751 89.3189 28.5663C91.5258 26.3702 92.7652 23.3805 92.7543 20.2711L92.7435 20.282ZM81.0128 30.7407H78.3492C77.9904 28.9794 76.2727 27.8379 74.5006 28.1967C73.6417 28.3706 72.8916 28.8816 72.4132 29.6209V29.6426C71.4347 29.1425 70.5433 28.4793 69.7822 27.6966C68.869 26.7725 68.3689 25.9136 68.1406 25.3809C68.7385 25.2395 69.2821 24.9243 69.7061 24.4677C70.2715 23.8588 70.5759 23.0652 70.5759 22.2389V20.3038C70.5759 17.9881 71.3369 15.7376 72.7611 13.9111C74.7941 11.3128 77.7947 9.84508 81.0237 9.84508C86.7857 9.84508 91.4606 14.52 91.4497 20.282C91.4497 23.0434 90.3517 25.6962 88.3948 27.6531C86.4378 29.6209 83.7851 30.7298 81.0237 30.7298L81.0128 30.7407Z"></path>
<path fill="#8A99A0" d="M86.2312 18.9884C86.9487 18.9884 87.5358 18.4013 87.5358 17.6838C87.5358 16.9662 86.9487 16.3792 86.2312 16.3792C85.5137 16.3792 84.9266 16.9662 84.9266 17.6838C84.9266 18.4013 85.5137 18.9884 86.2312 18.9884ZM78.4035 18.9884C79.121 18.9884 79.7081 18.4013 79.7081 17.6838C79.7081 16.9662 79.121 16.3792 78.4035 16.3792C77.686 16.3792 77.0989 16.9662 77.0989 17.6838C77.0989 18.4013 77.686 18.9884 78.4035 18.9884ZM78.7949 21.9564C78.6862 21.7281 78.4579 21.5867 78.1969 21.5867C77.8382 21.5867 77.5446 21.8803 77.5446 22.2391C77.5446 22.3369 77.5664 22.4239 77.599 22.5108C78.8275 25.1201 81.9368 26.229 84.5461 25.0005C85.6441 24.4786 86.5247 23.598 87.0357 22.5108C87.1879 22.1847 87.0357 21.8042 86.7204 21.652C86.6335 21.6085 86.5465 21.5976 86.4486 21.5976H86.4378C86.1877 21.5976 85.9594 21.739 85.8616 21.9673C84.9375 23.9242 82.6 24.7504 80.654 23.8263C79.8386 23.435 79.1754 22.7826 78.7949 21.9673V21.9564Z"></path>
</g>
</g>
<defs>
<clipPath id="clip0_433_2363">
<rect transform="translate(2.53052 8.55133)" fill="white" height="26.0923" width="91.3232"></rect>
</clipPath>
</defs>
</svg>
