<svg xmlns="http://www.w3.org/2000/svg" fill="none" viewBox="0 0 91 45" height="45" width="91">
<g clip-path="url(#clip0_433_2351)">
<mask height="23" width="86" y="11" x="3" maskUnits="userSpaceOnUse" style="mask-type:luminance" id="mask0_433_2351">
<path fill="white" d="M88.1541 11.4598H3.22755V33.5407H88.1541V11.4598Z"></path>
</mask>
<g mask="url(#mask0_433_2351)">
<path fill="#8A99A0" d="M23.2401 26.5977L23.2279 26.5614L30.7551 19.9355V16.743H18.6792V19.9355H25.8923L25.9041 19.966L18.4505 26.5977V29.7902H30.8763V26.598L23.2401 26.5977ZM38.2901 16.4393C36.8972 16.4393 35.762 16.6409 34.8847 17.0452C34.0674 17.3973 33.3789 17.9774 32.9085 18.7103C32.4586 19.4479 32.176 20.2687 32.0794 21.1187L35.7433 21.6141C35.876 20.8632 36.1412 20.3313 36.5387 20.0177C36.9908 19.6898 37.5477 19.5242 38.1134 19.5495C38.857 19.5495 39.3964 19.7404 39.7317 20.123C40.064 20.5052 40.2328 21.0346 40.2328 21.7326V22.0804H36.7098C34.9165 22.0804 33.6282 22.4627 32.8446 23.2275C32.0614 23.992 31.6704 25.0016 31.6717 26.2558C31.6717 27.5402 32.0627 28.4962 32.8449 29.1233C33.6269 29.7501 34.6104 30.0618 35.7951 30.0579C37.2649 30.0579 38.3959 29.5717 39.187 28.599C39.6543 28.0014 39.988 27.3175 40.1672 26.5901H40.3003L40.8053 29.7826H44.1255V21.6979C44.1255 20.0272 43.6676 18.733 42.7516 17.8157C41.836 16.8977 40.3484 16.4393 38.2901 16.4393ZM39.4515 26.4045C38.9245 26.8271 38.2346 27.0373 37.3757 27.0373C36.6678 27.0373 36.1763 26.9181 35.9006 26.6799C35.7663 26.5672 35.6595 26.4274 35.5876 26.2706C35.5158 26.1136 35.4808 25.9434 35.485 25.772C35.4772 25.6104 35.5037 25.4489 35.5629 25.2974C35.622 25.1459 35.7126 25.0074 35.8292 24.8907C35.9551 24.777 36.1037 24.6891 36.266 24.6322C36.4283 24.5754 36.6009 24.5507 36.7734 24.5598H40.2386V24.7798C40.2457 25.0905 40.1783 25.3987 40.0419 25.6804C39.9054 25.9622 39.7033 26.2098 39.4515 26.4045ZM64.2017 16.743H60.2792V29.792H64.2017V16.743ZM87.3614 16.743C86.2534 16.743 85.38 17.119 84.7413 17.8711C84.2828 18.4112 83.9341 19.2098 83.6956 20.2661H83.5801L83.0673 16.743H79.7173V29.7902H83.6402V23.0992C83.6402 22.2556 83.8453 21.6088 84.2563 21.1591C84.6672 20.709 85.4253 20.4841 86.5307 20.4841H88.0195V16.743H87.3614ZM75.8243 17.1694C74.9086 16.6456 73.7535 16.3844 72.3593 16.3857C70.1642 16.3857 68.4463 16.9863 67.2059 18.1881C65.9652 19.39 65.3451 21.0469 65.3451 23.1588C65.3135 24.4355 65.6033 25.7006 66.19 26.8463C66.727 27.8673 67.5633 28.7147 68.5955 29.2838C69.6346 29.861 70.8705 30.1503 72.3036 30.1515C73.5428 30.1515 74.578 29.9682 75.4088 29.601C76.1902 29.2714 76.8707 28.7547 77.3853 28.1001C77.8751 27.4577 78.2388 26.7349 78.4586 25.9669L75.0791 25.057C74.9366 25.5564 74.6626 26.012 74.2837 26.3799C73.9019 26.7467 73.2622 26.9304 72.3653 26.9304C71.2982 26.9304 70.5028 26.6368 69.9794 26.0491C69.5993 25.6246 69.361 25.0187 69.2558 24.2331H78.5104C78.5483 23.8659 78.568 23.5581 78.568 23.3098V22.4971C78.5903 21.4056 78.356 20.3235 77.8824 19.3314C77.4388 18.4277 76.7213 17.6741 75.8243 17.1694ZM72.2459 19.4959C73.8363 19.4959 74.7379 20.2484 74.9516 21.7537H69.3253C69.4145 21.2514 69.6309 20.7779 69.9555 20.375C70.471 19.7877 71.2345 19.4946 72.2459 19.4959ZM62.2832 11.484C61.9881 11.4743 61.694 11.5217 61.4184 11.6235C61.1427 11.7253 60.8912 11.8793 60.6787 12.0765C60.4694 12.2757 60.3053 12.5145 60.1969 12.7777C60.0884 13.041 60.0379 13.323 60.0484 13.606C60.0378 13.8909 60.0884 14.1747 60.197 14.4399C60.3055 14.7051 60.4698 14.9459 60.6796 15.1473C60.8893 15.3488 61.1399 15.5065 61.4158 15.6107C61.6917 15.7149 61.987 15.7632 62.2832 15.7526C62.5776 15.7633 62.8709 15.7149 63.1448 15.6106C63.4186 15.5062 63.6668 15.3482 63.8736 15.1466C64.079 14.943 64.2392 14.7015 64.3449 14.4366C64.4504 14.1718 64.4992 13.8891 64.4881 13.6057C64.5018 13.324 64.4542 13.0427 64.3484 12.7798C64.2425 12.5168 64.0807 12.278 63.8733 12.0787C63.666 11.8791 63.4176 11.7233 63.1443 11.6213C62.8708 11.5192 62.5782 11.4731 62.2851 11.4859L62.2832 11.484ZM54.1796 16.3857C52.8435 16.3857 51.7699 16.789 50.9587 17.5957C50.3581 18.1932 49.9176 19.0856 49.6368 20.272H49.5115L48.9984 16.749H45.6484V33.541H49.5709V26.6244H49.7141C49.8336 27.0857 50.0015 27.5341 50.2152 27.9628C50.547 28.6611 51.0912 29.2463 51.7761 29.641C52.4859 30.0137 53.2857 30.1991 54.0941 30.1784C55.7363 30.1784 56.9866 29.5632 57.8455 28.3337C58.7045 27.1038 59.1341 25.3877 59.1341 23.1853C59.1341 21.0583 58.7182 19.3932 57.8875 18.19C57.0564 16.9872 55.8205 16.3857 54.1796 16.3857ZM54.5771 25.8407C54.1196 26.4779 53.4042 26.7965 52.4299 26.7965C52.0282 26.8143 51.628 26.7399 51.2622 26.5793C50.8964 26.4188 50.5757 26.1767 50.3266 25.8732C49.8186 25.2604 49.5656 24.4209 49.5673 23.3554V23.1071C49.5673 22.025 49.8203 21.1966 50.3266 20.6218C50.8326 20.047 51.5343 19.7628 52.4299 19.7691C53.4216 19.7691 54.1416 20.0716 54.5912 20.6773C55.0406 21.2826 55.265 22.1268 55.265 23.2101C55.268 24.3304 55.0399 25.2074 54.5811 25.8407H54.5771Z"></path>
<path fill="#8A99A0" d="M16.9337 26.5977H3.36272V29.7943H16.9337V26.5977Z"></path>
</g>
</g>
<defs>
<clipPath id="clip0_433_2351">
<rect transform="translate(3.22888 11.4595)" fill="white" height="22.0809" width="84.9266"></rect>
</clipPath>
</defs>
</svg>
