<svg xmlns="http://www.w3.org/2000/svg" fill="none" viewBox="0 0 64 64" height="64" width="64">
<path fill="white" d="M62 12L46 12L46 10L62 10L62 12Z" clip-rule="evenodd" fill-rule="evenodd"></path>
<path fill="white" d="M53 19V3H55V19H53Z" clip-rule="evenodd" fill-rule="evenodd"></path>
<path fill="white" d="M62 54L46 54L46 52L62 52L62 54Z" clip-rule="evenodd" fill-rule="evenodd"></path>
<path fill="white" d="M53 61V45H55V61H53Z" clip-rule="evenodd" fill-rule="evenodd"></path>
<path fill="white" d="M26 10C13.8497 10 4 19.8497 4 32C4 44.1503 13.8497 54 26 54C38.1502 54 48 44.1503 48 32C48 19.8497 38.1502 10 26 10ZM2 32C2 18.7452 12.7452 8 26 8C39.2548 8 50 18.7452 50 32C50 45.2548 39.2548 56 26 56C12.7452 56 2 45.2548 2 32Z" clip-rule="evenodd" fill-rule="evenodd"></path>
<path fill="white" d="M20.7193 12.8315C19.0716 14.7093 17.6536 17.4429 16.6531 20.7866C15.6708 24.0696 15.1035 27.9001 15.1035 32C15.1035 33.9988 15.2384 35.9347 15.4908 37.7751L13.5093 38.0469C13.2444 36.1149 13.1035 34.0882 13.1035 32C13.1035 27.7213 13.6949 23.6964 14.737 20.2133C15.7935 16.6823 17.3263 13.666 19.216 11.5124C21.1065 9.35793 23.4213 8 26.0001 8C29.8004 8 33.0026 10.9205 35.2121 15.108L33.4432 16.0413C31.361 12.095 28.6845 10 26.0001 10C24.1754 10 22.3662 10.9547 20.7193 12.8315ZM36.8966 32C36.8966 29.8473 36.7402 27.7677 36.449 25.8017L38.4274 25.5086C38.7332 27.5734 38.8966 29.751 38.8966 32C38.8966 38.4776 37.5407 44.3916 35.3004 48.7229C33.0863 53.0035 29.8503 56 26.0001 56C22.0283 56 18.7108 52.8144 16.4883 48.3041L18.2823 47.42C20.3935 51.7045 23.1928 54 26.0001 54C28.7202 54 31.4324 51.8477 33.524 47.804C35.5894 43.8109 36.8966 38.2249 36.8966 32Z" clip-rule="evenodd" fill-rule="evenodd"></path>
<path fill="white" d="M45.1685 26.7193C43.2907 25.0716 40.5571 23.6536 37.2134 22.6531C33.9304 21.6708 30.0999 21.1035 26 21.1035C24.0012 21.1035 22.0653 21.2384 20.2249 21.4908L19.9531 19.5093C21.8851 19.2444 23.9118 19.1035 26 19.1035C30.2787 19.1035 34.3036 19.6949 37.7867 20.737C41.3177 21.7935 44.334 23.3263 46.4876 25.216C48.6421 27.1065 50 29.4213 50 32.0001C50 35.8004 47.0795 39.0026 42.892 41.2121L41.9587 39.4432C45.905 37.361 48 34.6845 48 32.0001C48 30.1754 47.0453 28.3662 45.1685 26.7193ZM26 42.8966C28.1527 42.8966 30.2323 42.7402 32.1983 42.449L32.4914 44.4274C30.4266 44.7332 28.249 44.8966 26 44.8966C19.5224 44.8966 13.6084 43.5407 9.27714 41.3004C4.99652 39.0863 2.00002 35.8503 2.00002 32.0001C2.00002 28.0283 5.18559 24.7108 9.69594 22.4883L10.58 24.2823C6.29545 26.3935 4.00002 29.1928 4.00002 32.0001C4.00002 34.7202 6.15225 37.4324 10.196 39.524C14.1891 41.5894 19.7751 42.8966 26 42.8966Z" clip-rule="evenodd" fill-rule="evenodd"></path>
</svg>
