<svg xmlns="http://www.w3.org/2000/svg" fill="none" viewBox="0 0 64 64" height="64" width="64">
<path fill="white" d="M3 25H25V3H3V25ZM5.09524 5.09524H22.9048V22.9048H5.09524V5.09524Z"></path>
<path fill="white" d="M49.5 38C43.1541 38 38 43.1541 38 49.5C38 55.8459 43.1541 61 49.5 61C55.8459 61 61 55.8459 61 49.5C61 43.1541 55.8459 38 49.5 38ZM49.5 58.9091C44.3145 58.9091 40.0909 54.6855 40.0909 49.5C40.0909 44.3145 44.3145 40.0909 49.5 40.0909C54.6855 40.0909 58.9091 44.3145 58.9091 49.5C58.9091 54.6855 54.6855 58.9091 49.5 58.9091Z"></path>
<path fill="white" d="M23.6235 45.2484L27.4166 51.2018C23.5182 50.3468 19.9147 48.3201 17.2069 45.3962C14.3094 42.2823 12.4971 38.2184 12.0967 33.9751L10 34.1757C10.4425 38.8834 12.455 43.3801 15.658 46.8318C18.6293 50.0512 22.591 52.289 26.8793 53.239L21.4004 57.3134L22.6542 59.0129L30.9569 52.8484L25.3937 44.119L23.613 45.259L23.6235 45.2484ZM28.091 52.2468L28.1331 52.3101L28.0699 52.3523L28.091 52.2468Z"></path>
<path fill="white" d="M49.3112 17.9411C46.4559 14.5106 42.452 11.9772 37.9846 10.7528L44.4118 6.79444L43.3055 5L34.4971 10.4256L39.2806 19.6089L41.1455 18.6272L38.2269 13.0222C41.9568 14.215 45.2758 16.4 47.6886 19.3028C50.3754 22.5328 51.8716 26.5544 51.8926 30.6183H53.9999C53.9788 26.0583 52.3141 21.5617 49.3112 17.9517V17.9411Z"></path>
</svg>
