<svg xmlns="http://www.w3.org/2000/svg" fill="none" viewBox="0 0 64 64" height="64" width="64">
<path fill="white" d="M60.94 8C60.33 5.37 54.88 4 49.5 4C44.12 4 38.68 5.37 38.06 8H38V24.48C38 27.9 48.32 28 49.5 28C50.68 28 61 27.9 61 24.48V8H60.94ZM59.01 24.37C58.5 24.95 55.24 26 49.51 26C43.78 26 40.52 24.95 40.01 24.37V18.41C42.46 19.61 46.65 19.99 49.51 19.99C52.37 19.99 56.56 19.61 59.01 18.41V24.37ZM59.01 15.98C58.8 16.56 55.69 18 49.51 18C43.33 18 40.22 16.56 40.01 15.98V11.14C42.19 12.36 45.86 13 49.51 13C53.16 13 56.83 12.37 59.01 11.14V15.98ZM49.51 11C43.24 11 40.01 9.25 40.01 8.5C40.01 7.75 43.24 6 49.51 6C55.78 6 59.01 7.75 59.01 8.5C59.01 9.25 55.78 11 49.51 11Z"></path>
<path fill="white" d="M51.0621 50.1927V41.4443C52.7826 40.7661 54 39.1245 54 37.2077C54 34.6914 51.9073 32.637 49.3216 32.637C47.3596 32.637 45.6794 33.8263 44.9852 35.5072H33.103C32.5295 34.1212 31.292 33.0793 29.7727 32.7549V23.0236C31.8655 22.5714 33.4451 20.7529 33.4451 18.5708C33.4451 16.0544 31.3523 14 28.7666 14C26.533 14 24.6717 15.5334 24.2089 17.5878H12.2361C11.7733 15.5433 9.91201 14 7.67844 14C5.10278 14 3 16.0446 3 18.5708C3 20.7529 4.5796 22.5911 6.69244 23.0334V32.7746C4.60979 33.2169 3.05031 35.0354 3.05031 37.2077C3.05031 39.3801 4.60979 41.1986 6.70251 41.6606V49.9764C4.61985 50.4384 3.05031 52.2569 3.05031 54.4292C3.05031 56.9456 5.14303 59 7.72874 59C10.3145 59 12.2361 57.0931 12.377 54.6946H24.1284C24.2693 57.0931 26.2916 59 28.7767 59C31.2618 59 33.2841 57.0931 33.4249 54.6946H44.6733C44.8142 57.0931 46.8365 59 49.3216 59C51.8067 59 54 56.9554 54 54.4292C54 52.5125 52.7826 50.8709 51.0621 50.1927ZM49.3216 34.6029C50.7905 34.6029 51.9878 35.7726 51.9878 37.2077C51.9878 38.6429 50.7905 39.8126 49.3216 39.8126C47.8526 39.8126 46.6554 38.6429 46.6554 37.2077C46.6554 35.7726 47.8526 34.6029 49.3216 34.6029ZM31.4429 37.2077C31.4429 38.6429 30.2456 39.8126 28.7767 39.8126C27.3078 39.8126 26.1105 38.6429 26.1105 37.2077C26.1105 35.7726 27.3078 34.6029 28.7767 34.6029C30.2456 34.6029 31.4429 35.7726 31.4429 37.2077ZM28.7767 15.9561C30.2456 15.9561 31.4429 17.1258 31.4429 18.5609C31.4429 19.9961 30.2456 21.1658 28.7767 21.1658C27.3078 21.1658 26.1105 19.9961 26.1105 18.5609C26.1105 17.1258 27.3078 15.9561 28.7767 15.9561ZM12.2462 19.5439H24.2089C24.6013 21.2739 25.9897 22.6402 27.7605 23.0138V32.7549C26.2413 33.0793 25.0037 34.1311 24.4403 35.5072H12.055C11.4816 34.1212 10.234 33.0695 8.70468 32.7451V23.0138C10.4654 22.6304 11.8538 21.2641 12.2462 19.5439ZM5.02229 18.5609C5.02229 17.1258 6.21957 15.9561 7.6885 15.9561C9.15743 15.9561 10.3547 17.1258 10.3547 18.5609C10.3547 19.9961 9.15743 21.1658 7.6885 21.1658C6.21957 21.1658 5.02229 19.9961 5.02229 18.5609ZM5.06254 37.2077C5.06254 35.7726 6.25981 34.6029 7.72874 34.6029C9.19767 34.6029 10.395 35.7726 10.395 37.2077C10.395 38.6429 9.19767 39.8126 7.72874 39.8126C6.25981 39.8126 5.06254 38.6429 5.06254 37.2077ZM7.72874 57.0242C6.25981 57.0242 5.06254 55.8545 5.06254 54.4194C5.06254 52.9843 6.25981 51.8145 7.72874 51.8145C9.19767 51.8145 10.395 52.9843 10.395 54.4194C10.395 55.8545 9.19767 57.0242 7.72874 57.0242ZM24.4403 52.7189H12.055C11.4816 51.3329 10.234 50.2811 8.70468 49.9567V41.6704C10.727 41.2477 12.2462 39.5374 12.3669 37.4731H24.1184C24.2391 39.5374 25.7483 41.228 27.7605 41.6606V49.9666C26.2413 50.291 25.0037 51.3427 24.4403 52.7189ZM28.7767 57.0242C27.3078 57.0242 26.1105 55.8545 26.1105 54.4194C26.1105 52.9843 27.3078 51.8145 28.7767 51.8145C30.2456 51.8145 31.4429 52.9843 31.4429 54.4194C31.4429 55.8545 30.2456 57.0242 28.7767 57.0242ZM44.9852 52.7189H33.103C32.5295 51.3329 31.292 50.291 29.7727 49.9666V41.6704C31.785 41.2379 33.2941 39.5374 33.4149 37.4731H44.6632C44.8041 39.7733 46.6755 41.6114 49.0399 41.749V49.8781C47.1987 49.9862 45.6392 51.1166 44.9852 52.7189ZM49.3216 57.0242C47.8526 57.0242 46.6554 55.8545 46.6554 54.4194C46.6554 52.9843 47.8526 51.8145 49.3216 51.8145C50.7905 51.8145 51.9878 52.9843 51.9878 54.4194C51.9878 55.8545 50.7905 57.0242 49.3216 57.0242Z"></path>
</svg>
