<svg xmlns="http://www.w3.org/2000/svg" fill="none" viewBox="0 0 64 64" height="64" width="64">
<path fill="white" d="M27 12V19.2173C26.6 19.9858 22.63 21.3462 16 21.3462C9.37 21.3462 5.4 19.9858 5 19.2173V12H3V34.4619C3 37.5773 9.74 39 16 39V36.9231C8.68 36.9231 5.12 35.1369 5 34.4619V29.4254C7.43 30.9415 11.72 31.7308 16 31.7308V29.6538C8.88 29.6538 5 27.5977 5 26.5385V21.6577C7.73 23.0077 12.66 23.4231 16 23.4231C19.34 23.4231 24.27 23.0077 27 21.6577V23.5581C27.63 23.5165 28.3 23.475 29 23.4542V12H27Z"></path>
<path fill="white" d="M16 8C11.17 8 3 8.84 3 12C3 12.98 3.78 13.73 5 14.31C7.73 15.6 12.66 16 16 16C19.34 16 24.27 15.6 27 14.31C28.22 13.73 29 12.98 29 12C29 8.84 20.83 8 16 8ZM16 14C9.53 14 5.59 12.75 5.03 12C5.59 11.25 9.53 10 16 10C22.47 10 26.41 11.25 26.97 12C26.41 12.75 22.47 14 16 14Z"></path>
<path fill="white" d="M59 12V19.2173C58.6 19.9858 54.63 21.3462 48 21.3462C41.37 21.3462 37.4 19.9858 37 19.2173V12H35V23.5062C35.71 23.5373 36.37 23.5892 37 23.6515V21.6577C39.73 23.0077 44.66 23.4231 48 23.4231C51.34 23.4231 56.27 23.0077 59 21.6577V26.5385C59 27.5977 55.12 29.6538 48 29.6538C47.66 29.6538 47.33 29.6538 47 29.6331V31.71C47.33 31.7308 47.67 31.7308 48 31.7308C52.28 31.7308 56.57 30.9415 59 29.4254V34.4619C58.88 35.1369 55.32 36.9231 48 36.9231C47.66 36.9231 47.33 36.9231 47 36.9127V38.9792C47.34 39 47.67 39 48 39C54.26 39 61 37.5773 61 34.4619V12H59Z"></path>
<path fill="white" d="M48 8C43.17 8 35 8.84 35 12C35 12.98 35.78 13.73 37 14.31C39.73 15.6 44.66 16 48 16C51.34 16 56.27 15.6 59 14.31C60.22 13.73 61 12.98 61 12C61 8.84 52.83 8 48 8ZM48 14C41.53 14 37.59 12.75 37.03 12C37.59 11.25 41.53 10 48 10C54.47 10 58.41 11.25 58.97 12C58.41 12.75 54.47 14 48 14Z"></path>
<path fill="white" d="M42.9127 30V37.2173C42.7154 37.5808 41.6873 38.0792 39.9115 38.505C37.9592 38.9723 35.1035 39.3462 31.5 39.3462C28.1873 39.3462 25.5288 39.0346 23.5973 38.6192C21.51 38.1727 20.295 37.6119 20.0769 37.2173V30H18V52.4619C18 55.5773 24.9992 57 31.5 57C38.0008 57 45 55.5773 45 52.4619V30H42.9231H42.9127ZM42.9127 52.4619C42.8088 53.0227 40.1919 54.3727 34.875 54.7985C34.7088 54.8088 34.5427 54.8192 34.3765 54.84C34.1688 54.8504 33.9715 54.8608 33.7535 54.8712C33.4627 54.8815 33.1719 54.8919 32.8708 54.9023C32.6423 54.9127 32.4242 54.9127 32.1958 54.9127C31.9569 54.9231 31.7285 54.9231 31.4896 54.9231C31.2508 54.9231 31.0223 54.9231 30.7835 54.9127C30.555 54.9127 30.3369 54.9127 30.1085 54.9023C29.8073 54.8919 29.5165 54.8815 29.2258 54.8712C29.0077 54.8608 28.8104 54.8504 28.6027 54.84C28.4365 54.8192 28.2704 54.8088 28.1042 54.7985C22.7873 54.3727 20.1704 53.0227 20.0665 52.4619V47.4254C22.59 48.9415 27.045 49.7308 31.4896 49.7308C35.9342 49.7308 40.3892 48.9415 42.9127 47.4254V52.4619ZM42.9127 44.5385C42.9127 45.5977 38.8835 47.6538 31.4896 47.6538C24.0958 47.6538 20.0665 45.5977 20.0665 44.5385V39.6577C22.9015 41.0077 28.0212 41.4231 31.4896 41.4231C34.9581 41.4231 40.0777 41.0077 42.9127 39.6577V44.5385Z"></path>
<path fill="white" d="M44.9896 29.88C44.8442 27.76 40.815 26.72 36.6923 26.27C35.9965 26.2 35.3008 26.14 34.6154 26.1C33.5146 26.03 32.445 26 31.5 26C30.8562 26 30.1604 26.01 29.4231 26.04C28.7585 26.07 28.0523 26.12 27.3462 26.17C22.86 26.55 18.0831 27.6 18 29.94V30C18 30.74 18.4673 31.35 19.2462 31.86C19.4954 32.02 19.7758 32.17 20.0769 32.31C21.9046 33.14 24.6773 33.6 27.3462 33.83C28.0523 33.88 28.7585 33.93 29.4231 33.96C30.1604 33.99 30.8562 34 31.5 34C32.445 34 33.5146 33.97 34.6154 33.9C35.3008 33.86 35.9965 33.8 36.6923 33.73C39.0288 33.48 41.3342 33.03 42.9231 32.31C43.2865 32.14 43.6188 31.96 43.8992 31.77C44.595 31.28 45 30.69 45 30C45 29.96 45 29.92 44.9896 29.88ZM40.2335 31.12C39.2885 31.35 38.0942 31.56 36.6923 31.72C36.0485 31.8 35.3527 31.86 34.6154 31.9C33.6496 31.97 32.6112 32 31.5 32C30.7731 32 30.0877 31.99 29.4231 31.96C28.6962 31.93 28.0004 31.89 27.3462 31.82C25.7573 31.69 24.3969 31.48 23.3065 31.24C21.4892 30.85 20.3885 30.37 20.1081 30C20.1808 29.91 20.295 29.81 20.4612 29.72C21.1569 29.29 22.7146 28.8 25.02 28.44C25.2381 28.41 25.4665 28.38 25.7054 28.35C25.7469 28.35 25.7781 28.35 25.8196 28.33C26.1831 28.29 26.5673 28.25 26.9619 28.21C27.2423 28.18 27.5227 28.16 27.8135 28.14L28.1873 28.11C28.5196 28.08 28.8727 28.06 29.2362 28.05C29.2985 28.05 29.3608 28.04 29.4231 28.04C30.0877 28.01 30.7731 28 31.5 28C32.2892 28 33.0473 28.02 33.7638 28.05C34.0546 28.06 34.335 28.08 34.6154 28.1C34.8023 28.11 34.9996 28.12 35.1865 28.14C35.4773 28.16 35.7577 28.18 36.0381 28.21C36.7338 28.27 37.3777 28.36 37.98 28.44C38.1254 28.46 38.2708 28.49 38.4058 28.51C38.5408 28.54 38.6654 28.56 38.8004 28.58C40.2958 28.85 41.4173 29.19 42.1131 29.49C42.5077 29.67 42.7777 29.85 42.8919 30C42.6427 30.33 41.7288 30.75 40.2335 31.12Z"></path>
</svg>
