<svg xmlns="http://www.w3.org/2000/svg" fill="none" viewBox="0 0 64 64" height="64" width="64">
<path fill="white" d="M20.9017 9.30005H18.8848V20.8501H20.9017V9.30005Z"></path>
<path fill="white" d="M42.0794 4.05005H40.0625V20.8501H42.0794V4.05005Z"></path>
<path fill="white" d="M35.0208 14.55H33.0039V31.3501H35.0208V14.55Z"></path>
<path fill="white" d="M27.9613 3H25.9443V27.15H27.9613V3Z"></path>
<path fill="white" d="M41.0716 45H39.0547V35.13C39.0547 34.1325 39.3976 33.177 40.0127 32.421L58.4575 9.66748L60.0005 11.022L41.5557 33.765C41.2431 34.143 41.0817 34.626 41.0817 35.1195V44.9895L41.0716 45Z"></path>
<path fill="white" d="M24.9357 45H22.9188V35.13C22.9188 34.6365 22.7473 34.1535 22.4448 33.7755L4 11.0325L5.54295 9.67798L23.9878 32.421C24.6029 33.177 24.9458 34.1325 24.9458 35.13V45H24.9357Z"></path>
<path fill="white" d="M48.0976 61H15.9024C12.6507 61 10 58.53 10 55.5C10 52.47 12.6507 50 15.9024 50H48.0976C51.3493 50 54 52.47 54 55.5C54 58.53 51.3493 61 48.0976 61ZM15.9024 52C13.8312 52 12.1463 53.57 12.1463 55.5C12.1463 57.43 13.8312 59 15.9024 59H48.0976C50.1688 59 51.8537 57.43 51.8537 55.5C51.8537 53.57 50.1688 52 48.0976 52H15.9024Z"></path>
</svg>
