<svg xmlns="http://www.w3.org/2000/svg" fill="none" viewBox="0 0 64 64" height="64" width="64">
<path fill="white" d="M13 6V4H4V13H6V7.41L16.59 18L18 16.59L7.41 6H13Z"></path>
<path fill="white" d="M52.1699 4V6H57.7599L47.1699 16.59L48.5899 18L59.1699 7.41V13H61.1699V4H52.1699Z"></path>
<path fill="white" d="M16.59 46L6 56.59V51H4V60H13V58H7.41L18 47.41L16.59 46Z"></path>
<path fill="white" d="M59.1699 51V56.59L48.5899 46L47.1699 47.41L57.7599 58H52.1699V60H61.1699V51H59.1699Z"></path>
<path fill="white" d="M43.6918 43H21.3082C20.8099 43 20.3017 42.9318 19.8034 42.7954C15.3087 41.9187 12 37.9637 12 33.4145C12 28.4269 15.9266 24.3161 20.9195 23.8777C21.6969 18.2765 26.6201 14 32.5 14C38.3799 14 43.3031 18.2765 44.0805 23.8777C49.0834 24.3258 53 28.4367 53 33.4145C53 37.9637 49.6913 41.9187 45.1269 42.8149C44.7083 42.9318 44.2 43 43.6918 43ZM21.8264 25.787C17.5012 25.787 13.9932 29.2062 13.9932 33.4145C13.9932 37.0383 16.6342 40.1945 20.2718 40.9056C20.6604 41.003 20.9893 41.0517 21.3082 41.0517H43.6918C44.0207 41.0517 44.3396 41.0128 44.6585 40.9251C48.3658 40.1945 50.9968 37.048 50.9968 33.4145C50.9968 29.2062 47.4888 25.787 43.1835 25.787H42.2467L42.177 24.8713C41.878 19.874 37.6325 15.9483 32.5 15.9483C27.3675 15.9483 23.122 19.8643 22.823 24.8713L22.7732 25.787H21.8364H21.8264Z"></path>
</svg>
